M48
; DRILL file {KiCad 7.0.11+dfsg-1build4} date Sun Oct  4 09:54:03 2026
; FORMAT={-:-/ absolute / metric / decimal}
; #@! TF.CreationDate,2026-10-04T09:54:03+00:00
; #@! TF.GenerationSoftware,Kicad,Pcbnew,7.0.11+dfsg-1build4
; #@! TF.FileFunction,Plated,1,2,PTH
FMAT,2
METRIC
; #@! TA.AperFunction,Plated,PTH,ViaDrill
T1C0.300
; #@! TA.AperFunction,Plated,PTH,ComponentDrill
T2C0.600
; #@! TA.AperFunction,Plated,PTH,ComponentDrill
T3C1.000
; #@! TA.AperFunction,Plated,PTH,ComponentDrill
T4C1.520
%
G90
G05
T1
X101.0Y-82.0
X101.0Y-87.0
X101.0Y-102.0
X102.0Y-78.0
X102.0Y-92.0
X102.0Y-97.0
X102.0Y-107.0
X102.0Y-122.0
X102.111Y-102.866
X107.0Y-81.0
X107.0Y-88.0
X107.0Y-92.0
X107.0Y-97.0
X107.0Y-101.0
X107.0Y-107.0
X107.0Y-122.0
X107.547Y-85.674
X108.0Y-72.0
X108.0Y-77.0
X108.0Y-127.0
X111.0Y-77.0
X111.0Y-116.0
X111.0Y-121.0
X111.2Y-122.319
X112.0Y-72.0
X112.0Y-88.0
X112.0Y-92.0
X112.0Y-97.0
X112.0Y-101.0
X112.0Y-107.0
X112.0Y-112.0
X112.0Y-127.0
X113.546Y-85.72
X113.934Y-109.291
X114.086Y-118.137
X115.004Y-123.859
X116.0Y-86.0
X117.0Y-72.0
X117.0Y-82.0
X117.0Y-92.0
X117.0Y-97.0
X117.0Y-101.0
X117.0Y-107.0
X117.0Y-112.0
X117.0Y-117.0
X117.0Y-127.0
X118.0Y-122.0
X118.8Y-122.32
X122.0Y-72.0
X122.0Y-77.0
X122.0Y-87.0
X122.0Y-97.0
X122.0Y-101.0
X122.0Y-107.0
X122.0Y-117.0
X122.0Y-127.0
X122.978Y-97.133
X123.0Y-82.0
X123.0Y-122.0
X124.825Y-99.864
X124.825Y-105.758
X126.0Y-106.0
X126.0Y-112.0
X126.0Y-126.432
X126.322Y-108.448
X127.0Y-72.0
X127.0Y-77.0
X127.0Y-82.0
X127.0Y-92.0
X127.0Y-122.0
X128.0Y-87.0
X128.0Y-117.0
X128.7Y-93.116
X129.657Y-100.521
X129.733Y-109.007
X130.055Y-106.335
X130.536Y-97.639
X131.0Y-122.0
X131.1Y-101.1
X131.1Y-102.9
X131.45Y-99.519
X131.638Y-115.089
X132.0Y-72.0
X132.0Y-77.0
X132.0Y-82.0
X132.0Y-87.0
X132.0Y-91.0
X132.0Y-102.0
X132.0Y-118.0
X132.0Y-126.43
X132.012Y-106.521
X132.9Y-101.1
X132.9Y-102.9
X133.216Y-99.468
X133.937Y-97.574
X134.496Y-96.941
X135.239Y-97.855
X136.0Y-72.0
X136.0Y-77.0
X136.0Y-82.0
X136.262Y-99.069
X136.456Y-104.832
X136.7Y-83.8
X137.0Y-88.0
X137.0Y-118.0
X137.0Y-122.0
X137.0Y-127.0
X137.001Y-97.104
X137.192Y-71.388
X137.196Y-102.186
X137.478Y-93.441
X138.225Y-90.445
X139.157Y-114.85
X139.507Y-99.868
X139.581Y-105.733
X139.698Y-86.512
X141.0Y-122.0
X142.0Y-97.0
X142.0Y-101.0
X142.0Y-107.0
X143.325Y-88.303
X146.006Y-88.299
X146.4Y-91.696
X146.867Y-87.838
X147.0Y-97.0
X147.0Y-101.0
X147.0Y-107.0
X147.995Y-87.591
X148.0Y-92.0
X148.0Y-112.0
X148.0Y-117.0
X148.0Y-122.0
X148.0Y-127.0
X148.295Y-108.6
X150.861Y-71.317
X150.861Y-82.225
X151.0Y-101.0
X152.0Y-92.0
X152.0Y-97.0
X152.0Y-107.0
X152.0Y-112.0
X152.0Y-117.0
X152.0Y-122.0
X152.0Y-127.0
X152.305Y-102.367
X152.6Y-83.8
X152.6Y-87.676
X156.6Y-85.319
X157.0Y-72.0
X157.0Y-77.0
X157.0Y-82.0
X157.0Y-92.0
X157.0Y-107.0
X157.0Y-112.0
X157.0Y-117.0
X157.0Y-122.0
X157.0Y-127.0
X158.025Y-101.657
X158.65Y-94.346
X159.971Y-86.562
X161.0Y-92.0
X162.0Y-72.0
X162.0Y-77.0
X162.0Y-82.0
X162.0Y-117.0
X162.0Y-122.0
X162.0Y-127.0
X163.0Y-97.0
X163.0Y-102.0
X163.0Y-107.0
X163.0Y-112.0
X163.4Y-85.309
X165.4Y-91.304
X166.137Y-108.888
X166.35Y-120.322
X166.351Y-79.787
X167.0Y-72.0
X167.0Y-77.0
X167.0Y-81.0
X167.0Y-86.0
X167.0Y-92.0
X167.0Y-97.0
X167.0Y-102.0
X167.0Y-107.0
X167.0Y-111.0
X167.0Y-116.0
X167.0Y-122.0
X167.0Y-127.0
X172.0Y-72.0
X172.0Y-77.0
X172.0Y-92.0
X172.0Y-107.0
X172.0Y-122.0
X172.0Y-127.0
X177.0Y-78.0
X177.0Y-92.0
X177.0Y-107.0
X177.0Y-122.0
T3
X103.2Y-82.0
X103.2Y-84.54
X103.2Y-87.08
X110.5Y-74.6
X113.04Y-74.6
X115.58Y-74.6
X118.12Y-74.6
X140.0Y-126.8
X142.54Y-126.8
X145.08Y-126.8
T4
X173.9Y-82.46
X173.9Y-87.54
X173.9Y-97.46
X173.9Y-102.54
X173.9Y-112.46
X173.9Y-117.54
T2
X102.65Y-109.68G85X102.05Y-109.68
G05
X102.65Y-118.32G85X102.05Y-118.32
G05
X107.08Y-109.68G85X105.98Y-109.68
G05
X107.08Y-118.32G85X105.98Y-118.32
G05
M30
