G04 #@! TF.GenerationSoftware,KiCad,Pcbnew,7.0.11+dfsg-1build4*
G04 #@! TF.CreationDate,2026-10-04T09:54:02+00:00*
G04 #@! TF.ProjectId,hushlog,68757368-6c6f-4672-9e6b-696361645f70,1.0*
G04 #@! TF.SameCoordinates,Original*
G04 #@! TF.FileFunction,Copper,L2,Bot*
G04 #@! TF.FilePolarity,Positive*
%FSLAX46Y46*%
G04 Gerber Fmt 4.6, Leading zero omitted, Abs format (unit mm)*
G04 Created by KiCad (PCBNEW 7.0.11+dfsg-1build4) date 2026-10-04 09:54:02*
%MOMM*%
%LPD*%
G01*
G04 APERTURE LIST*
G04 #@! TA.AperFunction,ComponentPad*
%ADD10R,3.000000X3.000000*%
G04 #@! TD*
G04 #@! TA.AperFunction,ComponentPad*
%ADD11C,3.000000*%
G04 #@! TD*
G04 #@! TA.AperFunction,ComponentPad*
%ADD12O,2.100000X1.000000*%
G04 #@! TD*
G04 #@! TA.AperFunction,ComponentPad*
%ADD13O,1.600000X1.000000*%
G04 #@! TD*
G04 #@! TA.AperFunction,ComponentPad*
%ADD14R,1.700000X1.700000*%
G04 #@! TD*
G04 #@! TA.AperFunction,ComponentPad*
%ADD15O,1.700000X1.700000*%
G04 #@! TD*
G04 #@! TA.AperFunction,ViaPad*
%ADD16C,0.600000*%
G04 #@! TD*
G04 #@! TA.AperFunction,Conductor*
%ADD17C,0.200000*%
G04 #@! TD*
G04 #@! TA.AperFunction,Conductor*
%ADD18C,0.400000*%
G04 #@! TD*
G04 APERTURE END LIST*
D10*
X173900000Y-117539999D03*
D11*
X173900000Y-112459999D03*
D12*
X106530000Y-109680000D03*
D13*
X102350000Y-109680000D03*
D12*
X106530000Y-118320000D03*
D13*
X102350000Y-118320000D03*
D14*
X140000000Y-126800000D03*
D15*
X142540000Y-126800000D03*
X145080000Y-126800000D03*
D10*
X173900000Y-102539999D03*
D11*
X173900000Y-97459999D03*
D10*
X173900000Y-87539999D03*
D11*
X173900000Y-82459999D03*
D14*
X110500000Y-74600000D03*
D15*
X113040000Y-74600000D03*
X115580000Y-74600000D03*
X118120000Y-74600000D03*
D14*
X103200000Y-82000000D03*
D15*
X103200000Y-84540000D03*
X103200000Y-87080000D03*
D16*
X132012500Y-106520800D03*
X130536300Y-97638900D03*
X130055500Y-106335200D03*
X152304600Y-102366500D03*
X137195600Y-102186400D03*
X133215900Y-99467500D03*
X133937300Y-97573800D03*
X135239200Y-97854700D03*
X143325000Y-88303200D03*
X137001100Y-97104000D03*
X146006300Y-88299300D03*
X136262100Y-99069500D03*
X146866500Y-87838100D03*
X131450200Y-99518700D03*
X129657300Y-100521300D03*
X136455500Y-104831800D03*
X127000000Y-77000000D03*
X148000000Y-117000000D03*
X157000000Y-117000000D03*
X128000000Y-117000000D03*
X147995000Y-87591400D03*
X177000000Y-78000000D03*
X131000000Y-122000000D03*
X162000000Y-82000000D03*
X152000000Y-122000000D03*
X112000000Y-112000000D03*
X107546700Y-85673600D03*
X167000000Y-72000000D03*
X102000000Y-97000000D03*
X163000000Y-107000000D03*
X139157500Y-114850500D03*
X150860900Y-82225000D03*
X142000000Y-97000000D03*
X122977700Y-97132900D03*
X112000000Y-97000000D03*
X132000000Y-82000000D03*
X136000000Y-72000000D03*
X167000000Y-127000000D03*
X122000000Y-117000000D03*
X162000000Y-127000000D03*
X127000000Y-72000000D03*
X118000000Y-122000000D03*
X112000000Y-107000000D03*
X167000000Y-116000000D03*
X157000000Y-107000000D03*
X102000000Y-122000000D03*
X136000000Y-77000000D03*
X102000000Y-92000000D03*
X148000000Y-122000000D03*
X167000000Y-92000000D03*
X146400000Y-91696100D03*
X122000000Y-101000000D03*
X132900000Y-101100000D03*
X122000000Y-107000000D03*
X147000000Y-107000000D03*
X102110500Y-102866300D03*
X132000000Y-118000000D03*
X112000000Y-72000000D03*
X111000000Y-77000000D03*
X157000000Y-92000000D03*
X102000000Y-107000000D03*
X147000000Y-101000000D03*
X148000000Y-127000000D03*
X139506800Y-99868200D03*
X127000000Y-122000000D03*
X101000000Y-87000000D03*
X123000000Y-82000000D03*
X117000000Y-72000000D03*
X166350100Y-120321700D03*
X123000000Y-122000000D03*
X114085600Y-118137500D03*
X161000000Y-92000000D03*
X108000000Y-127000000D03*
X129733500Y-109006800D03*
X158025000Y-101656900D03*
X137000000Y-88000000D03*
X158650400Y-94346500D03*
X122000000Y-77000000D03*
X132000000Y-87000000D03*
X157000000Y-112000000D03*
X157000000Y-82000000D03*
X122000000Y-127000000D03*
X107000000Y-122000000D03*
X127000000Y-92000000D03*
X124825000Y-105757700D03*
X148000000Y-112000000D03*
X126000000Y-112000000D03*
X152000000Y-97000000D03*
X167000000Y-111000000D03*
X107000000Y-97000000D03*
X162000000Y-122000000D03*
X113545800Y-85719900D03*
X112000000Y-101000000D03*
X177000000Y-122000000D03*
X118800000Y-122320500D03*
X150860900Y-71317500D03*
X167000000Y-97000000D03*
X159970800Y-86562500D03*
X172000000Y-122000000D03*
X112000000Y-88000000D03*
X137192100Y-71388000D03*
X167000000Y-122000000D03*
X177000000Y-107000000D03*
X172000000Y-107000000D03*
X112000000Y-92000000D03*
X152000000Y-112000000D03*
X137000000Y-127000000D03*
X132000000Y-126430200D03*
X117000000Y-92000000D03*
X126000000Y-126431700D03*
X172000000Y-92000000D03*
X115003600Y-123858600D03*
X172000000Y-77000000D03*
X166136900Y-108888100D03*
X117000000Y-101000000D03*
X166351300Y-79787200D03*
X139698400Y-86512200D03*
X163000000Y-102000000D03*
X142000000Y-101000000D03*
X107000000Y-92000000D03*
X107000000Y-81000000D03*
X101000000Y-82000000D03*
X127000000Y-82000000D03*
X117000000Y-112000000D03*
X162000000Y-72000000D03*
X111000000Y-121000000D03*
X152000000Y-127000000D03*
X111000000Y-116000000D03*
X117000000Y-97000000D03*
X122000000Y-72000000D03*
X124825000Y-99864300D03*
X148000000Y-92000000D03*
X117000000Y-107000000D03*
X122000000Y-87000000D03*
X147000000Y-97000000D03*
X142000000Y-107000000D03*
X131100000Y-101100000D03*
X172000000Y-72000000D03*
X152000000Y-107000000D03*
X165400000Y-91303600D03*
X162000000Y-77000000D03*
X157000000Y-72000000D03*
X139581300Y-105733000D03*
X107000000Y-107000000D03*
X157000000Y-77000000D03*
X137000000Y-118000000D03*
X128000000Y-87000000D03*
X152000000Y-117000000D03*
X126321700Y-108448400D03*
X117000000Y-82000000D03*
X167000000Y-81000000D03*
X163400000Y-85309100D03*
X136000000Y-82000000D03*
X156600000Y-85319000D03*
X167000000Y-86000000D03*
X122000000Y-97000000D03*
X126000000Y-106000000D03*
X157000000Y-127000000D03*
X152000000Y-92000000D03*
X116000000Y-86000000D03*
X107000000Y-101000000D03*
X108000000Y-77000000D03*
X131100000Y-102900000D03*
X167000000Y-102000000D03*
X131637700Y-115089000D03*
X101000000Y-102000000D03*
X117000000Y-127000000D03*
X163000000Y-112000000D03*
X137000000Y-122000000D03*
X141000000Y-122000000D03*
X152600000Y-87676200D03*
X132900000Y-102900000D03*
X132000000Y-91000000D03*
X107000000Y-88000000D03*
X108000000Y-72000000D03*
X132000000Y-72000000D03*
X102000000Y-78000000D03*
X167000000Y-107000000D03*
X111200000Y-122319300D03*
X148295300Y-108599700D03*
X167000000Y-77000000D03*
X112000000Y-127000000D03*
X162000000Y-117000000D03*
X151000000Y-101000000D03*
X137478000Y-93441400D03*
X172000000Y-127000000D03*
X138225000Y-90445100D03*
X163000000Y-97000000D03*
X157000000Y-122000000D03*
X132000000Y-102000000D03*
X134495600Y-96940700D03*
X132000000Y-77000000D03*
X117000000Y-117000000D03*
X113934400Y-109290600D03*
X128700000Y-93115600D03*
X177000000Y-92000000D03*
X136700000Y-83800000D03*
X152600000Y-83800000D03*
D17*
X130347600Y-106043100D02*
X130536300Y-106043100D01*
X131534800Y-106043100D02*
X132012500Y-106520800D01*
X130536300Y-106043100D02*
X130536300Y-97638900D01*
X130055500Y-106335200D02*
X130347600Y-106043100D01*
X130536300Y-106043100D02*
X131534800Y-106043100D01*
X137375700Y-102366500D02*
X137195600Y-102186400D01*
X152304600Y-102366500D02*
X137375700Y-102366500D01*
X115580000Y-74600000D02*
X115580000Y-75701900D01*
X115580000Y-75701900D02*
X133215900Y-93337800D01*
X133215900Y-93337800D02*
X133215900Y-99467500D01*
X118120000Y-74600000D02*
X118120000Y-75701900D01*
X118120000Y-75701900D02*
X133937300Y-91519200D01*
X133937300Y-91519200D02*
X133937300Y-97573800D01*
X143325000Y-89768900D02*
X143325000Y-88303200D01*
X135239200Y-97854700D02*
X143325000Y-89768900D01*
X137001100Y-97104000D02*
X145805800Y-88299300D01*
X145805800Y-88299300D02*
X146006300Y-88299300D01*
X146866400Y-87838100D02*
X146866500Y-87838100D01*
X136262100Y-99069500D02*
X146866400Y-88465200D01*
X146866400Y-88465200D02*
X146866400Y-87838100D01*
X131450200Y-99518700D02*
X131450200Y-97736900D01*
X131450200Y-97736900D02*
X115713300Y-82000000D01*
X115713300Y-82000000D02*
X103200000Y-82000000D01*
X103200000Y-87080000D02*
X116216000Y-87080000D01*
X116216000Y-87080000D02*
X129657300Y-100521300D01*
X142540000Y-126800000D02*
X142540000Y-110916300D01*
X142540000Y-110916300D02*
X136455500Y-104831800D01*
D18*
X152600000Y-83800000D02*
X136700000Y-83800000D01*
G04 #@! TA.AperFunction,Conductor*
G36*
X179658691Y-70319407D02*
G01*
X179694655Y-70368907D01*
X179699500Y-70399500D01*
X179699500Y-129600500D01*
X179680593Y-129658691D01*
X179631093Y-129694655D01*
X179600500Y-129699500D01*
X100399500Y-129699500D01*
X100341309Y-129680593D01*
X100305345Y-129631093D01*
X100300500Y-129600500D01*
X100300500Y-126067765D01*
X102145788Y-126067765D01*
X102175414Y-126337020D01*
X102209971Y-126469202D01*
X102243928Y-126599088D01*
X102349870Y-126848390D01*
X102444278Y-127003083D01*
X102490983Y-127079612D01*
X102590548Y-127199252D01*
X102664255Y-127287820D01*
X102865998Y-127468582D01*
X103088624Y-127615870D01*
X103091913Y-127618046D01*
X103212602Y-127674622D01*
X103337176Y-127733020D01*
X103482628Y-127776780D01*
X103596555Y-127811056D01*
X103596559Y-127811057D01*
X103596569Y-127811060D01*
X103726903Y-127830241D01*
X103864560Y-127850500D01*
X103864561Y-127850500D01*
X104067631Y-127850500D01*
X104270156Y-127835677D01*
X104534553Y-127776780D01*
X104787558Y-127680014D01*
X104797162Y-127674624D01*
X138900000Y-127674624D01*
X138914506Y-127747546D01*
X138914507Y-127747548D01*
X138969758Y-127830237D01*
X138969762Y-127830241D01*
X139052451Y-127885492D01*
X139052453Y-127885493D01*
X139125375Y-127899999D01*
X139125377Y-127900000D01*
X139799999Y-127900000D01*
X139800000Y-127899999D01*
X139800000Y-127258335D01*
X139857685Y-127284680D01*
X139964237Y-127300000D01*
X140035763Y-127300000D01*
X140142315Y-127284680D01*
X140200000Y-127258335D01*
X140200000Y-127899999D01*
X140200001Y-127900000D01*
X140874623Y-127900000D01*
X140874624Y-127899999D01*
X140947546Y-127885493D01*
X140947548Y-127885492D01*
X141030237Y-127830241D01*
X141030241Y-127830237D01*
X141085492Y-127747548D01*
X141085493Y-127747546D01*
X141099999Y-127674624D01*
X141100000Y-127674622D01*
X141100000Y-127000001D01*
X141099999Y-127000000D01*
X140462383Y-127000000D01*
X140500000Y-126871889D01*
X140500000Y-126728111D01*
X140462383Y-126600000D01*
X141099999Y-126600000D01*
X141100000Y-126599999D01*
X141100000Y-125925377D01*
X141099999Y-125925375D01*
X141085493Y-125852453D01*
X141085492Y-125852451D01*
X141030241Y-125769762D01*
X141030237Y-125769758D01*
X140947548Y-125714507D01*
X140947546Y-125714506D01*
X140874624Y-125700000D01*
X140200001Y-125700000D01*
X140200000Y-125700001D01*
X140200000Y-126341664D01*
X140142315Y-126315320D01*
X140035763Y-126300000D01*
X139964237Y-126300000D01*
X139857685Y-126315320D01*
X139800000Y-126341664D01*
X139800000Y-125700001D01*
X139799999Y-125700000D01*
X139125375Y-125700000D01*
X139052453Y-125714506D01*
X139052451Y-125714507D01*
X138969762Y-125769758D01*
X138969758Y-125769762D01*
X138914507Y-125852451D01*
X138914506Y-125852453D01*
X138900000Y-125925375D01*
X138900000Y-126599999D01*
X138900001Y-126600000D01*
X139537617Y-126600000D01*
X139500000Y-126728111D01*
X139500000Y-126871889D01*
X139537617Y-127000000D01*
X138900001Y-127000000D01*
X138900000Y-127000001D01*
X138900000Y-127674624D01*
X104797162Y-127674624D01*
X105023777Y-127547441D01*
X105238177Y-127381888D01*
X105426186Y-127186881D01*
X105583799Y-126966579D01*
X105707656Y-126725675D01*
X105795118Y-126469305D01*
X105844319Y-126202933D01*
X105854212Y-125932235D01*
X105824586Y-125662982D01*
X105756072Y-125400912D01*
X105650130Y-125151610D01*
X105509018Y-124920390D01*
X105335745Y-124712180D01*
X105230754Y-124618108D01*
X105134007Y-124531422D01*
X105134004Y-124531420D01*
X105134002Y-124531418D01*
X104984489Y-124432501D01*
X104908086Y-124381953D01*
X104662822Y-124266979D01*
X104403444Y-124188943D01*
X104403428Y-124188939D01*
X104135440Y-124149500D01*
X104135439Y-124149500D01*
X103932369Y-124149500D01*
X103729848Y-124164322D01*
X103465450Y-124223219D01*
X103212439Y-124319987D01*
X102976219Y-124452561D01*
X102761826Y-124618108D01*
X102573814Y-124813119D01*
X102416199Y-125033422D01*
X102292342Y-125274328D01*
X102204884Y-125530687D01*
X102204881Y-125530698D01*
X102155680Y-125797069D01*
X102145788Y-126067765D01*
X100300500Y-126067765D01*
X100300500Y-118520000D01*
X101323695Y-118520000D01*
X101326615Y-118536563D01*
X101326616Y-118536568D01*
X101396056Y-118697547D01*
X101396061Y-118697556D01*
X101500755Y-118838184D01*
X101500757Y-118838186D01*
X101635059Y-118950880D01*
X101791737Y-119029567D01*
X101962340Y-119070000D01*
X102149999Y-119070000D01*
X102150000Y-119069999D01*
X102150000Y-118620000D01*
X102550000Y-118620000D01*
X102550000Y-119069999D01*
X102550001Y-119070000D01*
X102693681Y-119070000D01*
X102824141Y-119054751D01*
X102824146Y-119054749D01*
X102988889Y-118994787D01*
X102988899Y-118994782D01*
X103135367Y-118898449D01*
X103135372Y-118898444D01*
X103255686Y-118770919D01*
X103255687Y-118770919D01*
X103343349Y-118619082D01*
X103373013Y-118520000D01*
X105253695Y-118520000D01*
X105256615Y-118536563D01*
X105256616Y-118536568D01*
X105326056Y-118697547D01*
X105326061Y-118697556D01*
X105430755Y-118838184D01*
X105430757Y-118838186D01*
X105565059Y-118950880D01*
X105721737Y-119029567D01*
X105892340Y-119070000D01*
X106329999Y-119070000D01*
X106330000Y-119069999D01*
X106330000Y-118620000D01*
X106730000Y-118620000D01*
X106730000Y-119069999D01*
X106730001Y-119070000D01*
X107123681Y-119070000D01*
X107254141Y-119054751D01*
X107254146Y-119054749D01*
X107418889Y-118994787D01*
X107418899Y-118994782D01*
X107565367Y-118898449D01*
X107565372Y-118898444D01*
X107685686Y-118770919D01*
X107685687Y-118770919D01*
X107773349Y-118619082D01*
X107803013Y-118520000D01*
X107304899Y-118520000D01*
X107353201Y-118456038D01*
X107383895Y-118348160D01*
X107373546Y-118236479D01*
X107323552Y-118136078D01*
X107305916Y-118120000D01*
X107806305Y-118120000D01*
X107806305Y-118119999D01*
X107803384Y-118103436D01*
X107803383Y-118103431D01*
X107733943Y-117942452D01*
X107733938Y-117942443D01*
X107629244Y-117801815D01*
X107629242Y-117801813D01*
X107494940Y-117689119D01*
X107338262Y-117610432D01*
X107167660Y-117570000D01*
X106730001Y-117570000D01*
X106730000Y-117570001D01*
X106730000Y-118020000D01*
X106330000Y-118020000D01*
X106330000Y-117570001D01*
X106319981Y-117559982D01*
X106292622Y-117551093D01*
X106256658Y-117501593D01*
X106256658Y-117440407D01*
X106290544Y-117392459D01*
X106410451Y-117300451D01*
X106502698Y-117180233D01*
X106560687Y-117040236D01*
X106580466Y-116890000D01*
X106560687Y-116739764D01*
X106502698Y-116599767D01*
X106410451Y-116479549D01*
X106290233Y-116387302D01*
X106150236Y-116329313D01*
X106150234Y-116329312D01*
X106150232Y-116329312D01*
X106037720Y-116314500D01*
X105962280Y-116314500D01*
X105962279Y-116314500D01*
X105849767Y-116329312D01*
X105849761Y-116329314D01*
X105709768Y-116387301D01*
X105589551Y-116479547D01*
X105589547Y-116479551D01*
X105497301Y-116599768D01*
X105439314Y-116739761D01*
X105439312Y-116739767D01*
X105419534Y-116889999D01*
X105419534Y-116890000D01*
X105439313Y-117040236D01*
X105497302Y-117180233D01*
X105589549Y-117300451D01*
X105709767Y-117392698D01*
X105753445Y-117410790D01*
X105766947Y-117416383D01*
X105813472Y-117456120D01*
X105827756Y-117515615D01*
X105804341Y-117572142D01*
X105762922Y-117600876D01*
X105641110Y-117645212D01*
X105641100Y-117645217D01*
X105494632Y-117741550D01*
X105494627Y-117741555D01*
X105374313Y-117869080D01*
X105374312Y-117869080D01*
X105286650Y-118020917D01*
X105256986Y-118120000D01*
X105755101Y-118120000D01*
X105706799Y-118183962D01*
X105676105Y-118291840D01*
X105686454Y-118403521D01*
X105736448Y-118503922D01*
X105754084Y-118520000D01*
X105253695Y-118520000D01*
X103373013Y-118520000D01*
X102874899Y-118520000D01*
X102923201Y-118456038D01*
X102953895Y-118348160D01*
X102943546Y-118236479D01*
X102893552Y-118136078D01*
X102875916Y-118120000D01*
X103376305Y-118120000D01*
X103376305Y-118119999D01*
X103373384Y-118103436D01*
X103373383Y-118103431D01*
X103303943Y-117942452D01*
X103303938Y-117942443D01*
X103199244Y-117801815D01*
X103199242Y-117801813D01*
X103064940Y-117689119D01*
X102908262Y-117610432D01*
X102737660Y-117570000D01*
X102550001Y-117570000D01*
X102550000Y-117570001D01*
X102550000Y-118020000D01*
X102150000Y-118020000D01*
X102150000Y-117570001D01*
X102149999Y-117570000D01*
X102006319Y-117570000D01*
X101875858Y-117585248D01*
X101875853Y-117585250D01*
X101711110Y-117645212D01*
X101711100Y-117645217D01*
X101564632Y-117741550D01*
X101564627Y-117741555D01*
X101444313Y-117869080D01*
X101444312Y-117869080D01*
X101356650Y-118020917D01*
X101326986Y-118120000D01*
X101825101Y-118120000D01*
X101776799Y-118183962D01*
X101746105Y-118291840D01*
X101756454Y-118403521D01*
X101806448Y-118503922D01*
X101824084Y-118520000D01*
X101323695Y-118520000D01*
X100300500Y-118520000D01*
X100300500Y-109880000D01*
X101323695Y-109880000D01*
X101326615Y-109896563D01*
X101326616Y-109896568D01*
X101396056Y-110057547D01*
X101396061Y-110057556D01*
X101500755Y-110198184D01*
X101500757Y-110198186D01*
X101635059Y-110310880D01*
X101791737Y-110389567D01*
X101962340Y-110430000D01*
X102149999Y-110430000D01*
X102150000Y-110429999D01*
X102150000Y-109980000D01*
X102550000Y-109980000D01*
X102550000Y-110429999D01*
X102550001Y-110430000D01*
X102693681Y-110430000D01*
X102824141Y-110414751D01*
X102824146Y-110414749D01*
X102988889Y-110354787D01*
X102988899Y-110354782D01*
X103135367Y-110258449D01*
X103135372Y-110258444D01*
X103255686Y-110130919D01*
X103255687Y-110130919D01*
X103343349Y-109979082D01*
X103373013Y-109880000D01*
X105253695Y-109880000D01*
X105256615Y-109896563D01*
X105256616Y-109896568D01*
X105326056Y-110057547D01*
X105326061Y-110057556D01*
X105430755Y-110198184D01*
X105430757Y-110198186D01*
X105565059Y-110310880D01*
X105721737Y-110389567D01*
X105721740Y-110389568D01*
X105750518Y-110396388D01*
X105802781Y-110428204D01*
X105826362Y-110484663D01*
X105812253Y-110544199D01*
X105765844Y-110584072D01*
X105765577Y-110584184D01*
X105709767Y-110607301D01*
X105589551Y-110699547D01*
X105589547Y-110699551D01*
X105497301Y-110819768D01*
X105439314Y-110959761D01*
X105439312Y-110959767D01*
X105422487Y-111087571D01*
X105419534Y-111110000D01*
X105439313Y-111260236D01*
X105497302Y-111400233D01*
X105589549Y-111520451D01*
X105709767Y-111612698D01*
X105849764Y-111670687D01*
X105962280Y-111685500D01*
X105962281Y-111685500D01*
X106037719Y-111685500D01*
X106037720Y-111685500D01*
X106150236Y-111670687D01*
X106290233Y-111612698D01*
X106410451Y-111520451D01*
X106502698Y-111400233D01*
X106560687Y-111260236D01*
X106580466Y-111110000D01*
X106577512Y-111087566D01*
X106570261Y-111032486D01*
X106560687Y-110959764D01*
X106502698Y-110819767D01*
X106410451Y-110699549D01*
X106290544Y-110607540D01*
X106255890Y-110557117D01*
X106257492Y-110495953D01*
X106294739Y-110447411D01*
X106320625Y-110439373D01*
X106330000Y-110429999D01*
X106330000Y-109980000D01*
X106730000Y-109980000D01*
X106730000Y-110429999D01*
X106730001Y-110430000D01*
X107123681Y-110430000D01*
X107254141Y-110414751D01*
X107254146Y-110414749D01*
X107418889Y-110354787D01*
X107418899Y-110354782D01*
X107565367Y-110258449D01*
X107565372Y-110258444D01*
X107685686Y-110130919D01*
X107685687Y-110130919D01*
X107773349Y-109979082D01*
X107803013Y-109880000D01*
X107304899Y-109880000D01*
X107353201Y-109816038D01*
X107383895Y-109708160D01*
X107373546Y-109596479D01*
X107323552Y-109496078D01*
X107305916Y-109480000D01*
X107806305Y-109480000D01*
X107806305Y-109479999D01*
X107803384Y-109463436D01*
X107803383Y-109463431D01*
X107733943Y-109302452D01*
X107733938Y-109302443D01*
X107629244Y-109161815D01*
X107629242Y-109161813D01*
X107494940Y-109049119D01*
X107338262Y-108970432D01*
X107167660Y-108930000D01*
X106730001Y-108930000D01*
X106730000Y-108930001D01*
X106730000Y-109380000D01*
X106330000Y-109380000D01*
X106330000Y-108930001D01*
X106329999Y-108930000D01*
X105936319Y-108930000D01*
X105805858Y-108945248D01*
X105805853Y-108945250D01*
X105641110Y-109005212D01*
X105641100Y-109005217D01*
X105494632Y-109101550D01*
X105494627Y-109101555D01*
X105374313Y-109229080D01*
X105374312Y-109229080D01*
X105286650Y-109380917D01*
X105256986Y-109480000D01*
X105755101Y-109480000D01*
X105706799Y-109543962D01*
X105676105Y-109651840D01*
X105686454Y-109763521D01*
X105736448Y-109863922D01*
X105754084Y-109880000D01*
X105253695Y-109880000D01*
X103373013Y-109880000D01*
X102874899Y-109880000D01*
X102923201Y-109816038D01*
X102953895Y-109708160D01*
X102943546Y-109596479D01*
X102893552Y-109496078D01*
X102875916Y-109480000D01*
X103376305Y-109480000D01*
X103376305Y-109479999D01*
X103373384Y-109463436D01*
X103373383Y-109463431D01*
X103303943Y-109302452D01*
X103303938Y-109302443D01*
X103199244Y-109161815D01*
X103199242Y-109161813D01*
X103064940Y-109049119D01*
X102908262Y-108970432D01*
X102737660Y-108930000D01*
X102550001Y-108930000D01*
X102550000Y-108930001D01*
X102550000Y-109380000D01*
X102150000Y-109380000D01*
X102150000Y-108930001D01*
X102149999Y-108930000D01*
X102006319Y-108930000D01*
X101875858Y-108945248D01*
X101875853Y-108945250D01*
X101711110Y-109005212D01*
X101711100Y-109005217D01*
X101564632Y-109101550D01*
X101564627Y-109101555D01*
X101444313Y-109229080D01*
X101444312Y-109229080D01*
X101356650Y-109380917D01*
X101326986Y-109480000D01*
X101825101Y-109480000D01*
X101776799Y-109543962D01*
X101746105Y-109651840D01*
X101756454Y-109763521D01*
X101806448Y-109863922D01*
X101824084Y-109880000D01*
X101323695Y-109880000D01*
X100300500Y-109880000D01*
X100300500Y-87080000D01*
X102094785Y-87080000D01*
X102113603Y-87283083D01*
X102169418Y-87479250D01*
X102260327Y-87661821D01*
X102383236Y-87824579D01*
X102533959Y-87961981D01*
X102707363Y-88069348D01*
X102897544Y-88143024D01*
X103098024Y-88180500D01*
X103301976Y-88180500D01*
X103502456Y-88143024D01*
X103692637Y-88069348D01*
X103866041Y-87961981D01*
X104016764Y-87824579D01*
X104139673Y-87661821D01*
X104227534Y-87485372D01*
X104270397Y-87441709D01*
X104316155Y-87430500D01*
X116029810Y-87430500D01*
X116088001Y-87449407D01*
X116099814Y-87459496D01*
X129074458Y-100434139D01*
X129102235Y-100488656D01*
X129102608Y-100517061D01*
X129102050Y-100521300D01*
X129120969Y-100665008D01*
X129120970Y-100665009D01*
X129172741Y-100789999D01*
X129176439Y-100798925D01*
X129264679Y-100913921D01*
X129379675Y-101002161D01*
X129513591Y-101057630D01*
X129657300Y-101076550D01*
X129801009Y-101057630D01*
X129934925Y-101002161D01*
X130026532Y-100931867D01*
X130084208Y-100911443D01*
X130142874Y-100928820D01*
X130180121Y-100977361D01*
X130185800Y-101010409D01*
X130185800Y-105671038D01*
X130166893Y-105729229D01*
X130144327Y-105751609D01*
X130135144Y-105758165D01*
X130132347Y-105760342D01*
X130129353Y-105761424D01*
X130123235Y-105765987D01*
X130122174Y-105766562D01*
X130121022Y-105764438D01*
X130074810Y-105781154D01*
X130058638Y-105780362D01*
X130055506Y-105779950D01*
X130055500Y-105779950D01*
X129911791Y-105798869D01*
X129911790Y-105798870D01*
X129777878Y-105854337D01*
X129777874Y-105854339D01*
X129662881Y-105942577D01*
X129662877Y-105942581D01*
X129574639Y-106057574D01*
X129574637Y-106057578D01*
X129519170Y-106191490D01*
X129519169Y-106191491D01*
X129500250Y-106335199D01*
X129500250Y-106335200D01*
X129519169Y-106478908D01*
X129519170Y-106478909D01*
X129536521Y-106520800D01*
X129574639Y-106612825D01*
X129662879Y-106727821D01*
X129777875Y-106816061D01*
X129911791Y-106871530D01*
X130055500Y-106890450D01*
X130199209Y-106871530D01*
X130333125Y-106816061D01*
X130448121Y-106727821D01*
X130536361Y-106612825D01*
X130591830Y-106478909D01*
X130591830Y-106478901D01*
X130593510Y-106472639D01*
X130594906Y-106473013D01*
X130618074Y-106424449D01*
X130671846Y-106395257D01*
X130689882Y-106393600D01*
X131348611Y-106393600D01*
X131406802Y-106412507D01*
X131418611Y-106422593D01*
X131429654Y-106433635D01*
X131457434Y-106488151D01*
X131457808Y-106516559D01*
X131457250Y-106520799D01*
X131457250Y-106520800D01*
X131476169Y-106664508D01*
X131476170Y-106664509D01*
X131531639Y-106798425D01*
X131619879Y-106913421D01*
X131734875Y-107001661D01*
X131868791Y-107057130D01*
X132012500Y-107076050D01*
X132156209Y-107057130D01*
X132290125Y-107001661D01*
X132405121Y-106913421D01*
X132493361Y-106798425D01*
X132548830Y-106664509D01*
X132567750Y-106520800D01*
X132551003Y-106393600D01*
X132548830Y-106377091D01*
X132493361Y-106243175D01*
X132405121Y-106128179D01*
X132290125Y-106039939D01*
X132290121Y-106039937D01*
X132156209Y-105984470D01*
X132156208Y-105984469D01*
X132012500Y-105965550D01*
X132012495Y-105965550D01*
X132008263Y-105966107D01*
X131948103Y-105954955D01*
X131925340Y-105937958D01*
X131815601Y-105828219D01*
X131802725Y-105812362D01*
X131796237Y-105802431D01*
X131791662Y-105798870D01*
X131772104Y-105783648D01*
X131762919Y-105775537D01*
X131762107Y-105774725D01*
X131746025Y-105763243D01*
X131742761Y-105760810D01*
X131703926Y-105730583D01*
X131703924Y-105730582D01*
X131697477Y-105727093D01*
X131690870Y-105723863D01*
X131690866Y-105723860D01*
X131643709Y-105709820D01*
X131639815Y-105708572D01*
X131593287Y-105692599D01*
X131586060Y-105691393D01*
X131578755Y-105690483D01*
X131578754Y-105690483D01*
X131578752Y-105690483D01*
X131529624Y-105692515D01*
X131525533Y-105692600D01*
X130985800Y-105692600D01*
X130927609Y-105673693D01*
X130891645Y-105624193D01*
X130886800Y-105593600D01*
X130886800Y-104831800D01*
X135900250Y-104831800D01*
X135919169Y-104975508D01*
X135919170Y-104975509D01*
X135974639Y-105109425D01*
X136062879Y-105224421D01*
X136177875Y-105312661D01*
X136311791Y-105368130D01*
X136455500Y-105387050D01*
X136459727Y-105386493D01*
X136519886Y-105397638D01*
X136542659Y-105414641D01*
X142160504Y-111032486D01*
X142188281Y-111087003D01*
X142189500Y-111102490D01*
X142189500Y-125687771D01*
X142170593Y-125745962D01*
X142126262Y-125780086D01*
X142047363Y-125810652D01*
X141873959Y-125918019D01*
X141723237Y-126055420D01*
X141600328Y-126218177D01*
X141600323Y-126218186D01*
X141522216Y-126375048D01*
X141509418Y-126400750D01*
X141453603Y-126596917D01*
X141434785Y-126800000D01*
X141453603Y-127003083D01*
X141509418Y-127199250D01*
X141600327Y-127381821D01*
X141723236Y-127544579D01*
X141873959Y-127681981D01*
X142047363Y-127789348D01*
X142237544Y-127863024D01*
X142438024Y-127900500D01*
X142641976Y-127900500D01*
X142842456Y-127863024D01*
X143032637Y-127789348D01*
X143206041Y-127681981D01*
X143356764Y-127544579D01*
X143479673Y-127381821D01*
X143570582Y-127199250D01*
X143626397Y-127003083D01*
X143645215Y-126800000D01*
X143974785Y-126800000D01*
X143993603Y-127003083D01*
X144049418Y-127199250D01*
X144140327Y-127381821D01*
X144263236Y-127544579D01*
X144413959Y-127681981D01*
X144587363Y-127789348D01*
X144777544Y-127863024D01*
X144978024Y-127900500D01*
X145181976Y-127900500D01*
X145382456Y-127863024D01*
X145572637Y-127789348D01*
X145746041Y-127681981D01*
X145896764Y-127544579D01*
X146019673Y-127381821D01*
X146110582Y-127199250D01*
X146166397Y-127003083D01*
X146185215Y-126800000D01*
X146166397Y-126596917D01*
X146110582Y-126400750D01*
X146019673Y-126218179D01*
X145906086Y-126067765D01*
X174145788Y-126067765D01*
X174175414Y-126337020D01*
X174209971Y-126469202D01*
X174243928Y-126599088D01*
X174349870Y-126848390D01*
X174444278Y-127003083D01*
X174490983Y-127079612D01*
X174590548Y-127199252D01*
X174664255Y-127287820D01*
X174865998Y-127468582D01*
X175088624Y-127615870D01*
X175091913Y-127618046D01*
X175212602Y-127674622D01*
X175337176Y-127733020D01*
X175482628Y-127776780D01*
X175596555Y-127811056D01*
X175596559Y-127811057D01*
X175596569Y-127811060D01*
X175726903Y-127830241D01*
X175864560Y-127850500D01*
X175864561Y-127850500D01*
X176067631Y-127850500D01*
X176270156Y-127835677D01*
X176534553Y-127776780D01*
X176787558Y-127680014D01*
X177023777Y-127547441D01*
X177238177Y-127381888D01*
X177426186Y-127186881D01*
X177583799Y-126966579D01*
X177707656Y-126725675D01*
X177795118Y-126469305D01*
X177844319Y-126202933D01*
X177854212Y-125932235D01*
X177824586Y-125662982D01*
X177756072Y-125400912D01*
X177650130Y-125151610D01*
X177509018Y-124920390D01*
X177335745Y-124712180D01*
X177230754Y-124618108D01*
X177134007Y-124531422D01*
X177134004Y-124531420D01*
X177134002Y-124531418D01*
X176984489Y-124432501D01*
X176908086Y-124381953D01*
X176662822Y-124266979D01*
X176403444Y-124188943D01*
X176403428Y-124188939D01*
X176135440Y-124149500D01*
X176135439Y-124149500D01*
X175932369Y-124149500D01*
X175729848Y-124164322D01*
X175465450Y-124223219D01*
X175212439Y-124319987D01*
X174976219Y-124452561D01*
X174761826Y-124618108D01*
X174573814Y-124813119D01*
X174416199Y-125033422D01*
X174292342Y-125274328D01*
X174204884Y-125530687D01*
X174204881Y-125530698D01*
X174155680Y-125797069D01*
X174145788Y-126067765D01*
X145906086Y-126067765D01*
X145896764Y-126055421D01*
X145746041Y-125918019D01*
X145572637Y-125810652D01*
X145382456Y-125736976D01*
X145382455Y-125736975D01*
X145382453Y-125736975D01*
X145181976Y-125699500D01*
X144978024Y-125699500D01*
X144777546Y-125736975D01*
X144707632Y-125764059D01*
X144587363Y-125810652D01*
X144413959Y-125918019D01*
X144263237Y-126055420D01*
X144140328Y-126218177D01*
X144140323Y-126218186D01*
X144062216Y-126375048D01*
X144049418Y-126400750D01*
X143993603Y-126596917D01*
X143974785Y-126800000D01*
X143645215Y-126800000D01*
X143626397Y-126596917D01*
X143570582Y-126400750D01*
X143479673Y-126218179D01*
X143356764Y-126055421D01*
X143206041Y-125918019D01*
X143032637Y-125810652D01*
X142953737Y-125780086D01*
X142906306Y-125741434D01*
X142890500Y-125687771D01*
X142890500Y-119064671D01*
X172149500Y-119064671D01*
X172149501Y-119064683D01*
X172164033Y-119137735D01*
X172164035Y-119137741D01*
X172219397Y-119220598D01*
X172219399Y-119220600D01*
X172302260Y-119275965D01*
X172357808Y-119287014D01*
X172375315Y-119290497D01*
X172375320Y-119290497D01*
X172375326Y-119290499D01*
X172375327Y-119290499D01*
X175424673Y-119290499D01*
X175424674Y-119290499D01*
X175497740Y-119275965D01*
X175580601Y-119220600D01*
X175635966Y-119137739D01*
X175650500Y-119064673D01*
X175650500Y-116015325D01*
X175635966Y-115942259D01*
X175580601Y-115859398D01*
X175580599Y-115859396D01*
X175497742Y-115804034D01*
X175497740Y-115804033D01*
X175497737Y-115804032D01*
X175497736Y-115804032D01*
X175424684Y-115789500D01*
X175424674Y-115789499D01*
X172375326Y-115789499D01*
X172375325Y-115789499D01*
X172375315Y-115789500D01*
X172302263Y-115804032D01*
X172302257Y-115804034D01*
X172219400Y-115859396D01*
X172219397Y-115859399D01*
X172164035Y-115942256D01*
X172164033Y-115942262D01*
X172149501Y-116015314D01*
X172149500Y-116015326D01*
X172149500Y-119064671D01*
X142890500Y-119064671D01*
X142890500Y-112460001D01*
X172144592Y-112460001D01*
X172164197Y-112721624D01*
X172164198Y-112721630D01*
X172222580Y-112977418D01*
X172318429Y-113221635D01*
X172318438Y-113221654D01*
X172449610Y-113448850D01*
X172449620Y-113448864D01*
X172613185Y-113653969D01*
X172613196Y-113653981D01*
X172805514Y-113832426D01*
X172805516Y-113832427D01*
X172805521Y-113832432D01*
X173022296Y-113980227D01*
X173129810Y-114032003D01*
X173258674Y-114094061D01*
X173258676Y-114094061D01*
X173258677Y-114094062D01*
X173509385Y-114171395D01*
X173768818Y-114210499D01*
X173768823Y-114210499D01*
X174031177Y-114210499D01*
X174031182Y-114210499D01*
X174290615Y-114171395D01*
X174541323Y-114094062D01*
X174777704Y-113980227D01*
X174994479Y-113832432D01*
X175186805Y-113653980D01*
X175350386Y-113448856D01*
X175481568Y-113221642D01*
X175577420Y-112977415D01*
X175635802Y-112721629D01*
X175655408Y-112459999D01*
X175635802Y-112198369D01*
X175577420Y-111942583D01*
X175577419Y-111942582D01*
X175577419Y-111942579D01*
X175481570Y-111698362D01*
X175481568Y-111698356D01*
X175481563Y-111698347D01*
X175481561Y-111698343D01*
X175350389Y-111471147D01*
X175350388Y-111471146D01*
X175350386Y-111471142D01*
X175293838Y-111400233D01*
X175186814Y-111266028D01*
X175186803Y-111266016D01*
X174994485Y-111087571D01*
X174994482Y-111087569D01*
X174994479Y-111087566D01*
X174777704Y-110939771D01*
X174759460Y-110930985D01*
X174541325Y-110825936D01*
X174290619Y-110748604D01*
X174290616Y-110748603D01*
X174290615Y-110748603D01*
X174290610Y-110748602D01*
X174290609Y-110748602D01*
X174031185Y-110709499D01*
X174031182Y-110709499D01*
X173768818Y-110709499D01*
X173768814Y-110709499D01*
X173509390Y-110748602D01*
X173509380Y-110748604D01*
X173258674Y-110825936D01*
X173022303Y-110939767D01*
X173022299Y-110939769D01*
X173022296Y-110939771D01*
X172806347Y-111087003D01*
X172805514Y-111087571D01*
X172613196Y-111266016D01*
X172613185Y-111266028D01*
X172449620Y-111471133D01*
X172449610Y-111471147D01*
X172318438Y-111698343D01*
X172318429Y-111698362D01*
X172222580Y-111942579D01*
X172164198Y-112198367D01*
X172164197Y-112198373D01*
X172144592Y-112459996D01*
X172144592Y-112460001D01*
X142890500Y-112460001D01*
X142890500Y-110962913D01*
X142892607Y-110942597D01*
X142895042Y-110930985D01*
X142891260Y-110900642D01*
X142890500Y-110888398D01*
X142890500Y-110887259D01*
X142889933Y-110883865D01*
X142887243Y-110867747D01*
X142886658Y-110863729D01*
X142880573Y-110814907D01*
X142880571Y-110814904D01*
X142878477Y-110807869D01*
X142876091Y-110800916D01*
X142852687Y-110757671D01*
X142850813Y-110754030D01*
X142829199Y-110709817D01*
X142824948Y-110703862D01*
X142820419Y-110698043D01*
X142820418Y-110698042D01*
X142784221Y-110664720D01*
X142781294Y-110661912D01*
X137038341Y-104918959D01*
X137010564Y-104864442D01*
X137010193Y-104836029D01*
X137010750Y-104831800D01*
X136991830Y-104688091D01*
X136936361Y-104554175D01*
X136848121Y-104439179D01*
X136733125Y-104350939D01*
X136733121Y-104350937D01*
X136599209Y-104295470D01*
X136599208Y-104295469D01*
X136455500Y-104276550D01*
X136311791Y-104295469D01*
X136311790Y-104295470D01*
X136177878Y-104350937D01*
X136177874Y-104350939D01*
X136062881Y-104439177D01*
X136062877Y-104439181D01*
X135974639Y-104554174D01*
X135974637Y-104554178D01*
X135919170Y-104688090D01*
X135919169Y-104688091D01*
X135900250Y-104831799D01*
X135900250Y-104831800D01*
X130886800Y-104831800D01*
X130886800Y-104064623D01*
X172150000Y-104064623D01*
X172164506Y-104137545D01*
X172164507Y-104137547D01*
X172219758Y-104220236D01*
X172219762Y-104220240D01*
X172302451Y-104275491D01*
X172302453Y-104275492D01*
X172375375Y-104289998D01*
X172375377Y-104289999D01*
X173699999Y-104289999D01*
X173700000Y-104289998D01*
X173700000Y-103273651D01*
X173811169Y-103299999D01*
X173944267Y-103299999D01*
X174076461Y-103284548D01*
X174100000Y-103275980D01*
X174100000Y-104289998D01*
X174100001Y-104289999D01*
X175424623Y-104289999D01*
X175424624Y-104289998D01*
X175497546Y-104275492D01*
X175497548Y-104275491D01*
X175580237Y-104220240D01*
X175580241Y-104220236D01*
X175635492Y-104137547D01*
X175635493Y-104137545D01*
X175649999Y-104064623D01*
X175650000Y-104064621D01*
X175650000Y-102740000D01*
X175649999Y-102739999D01*
X174633452Y-102739999D01*
X174653549Y-102672870D01*
X174663879Y-102495508D01*
X174636459Y-102339999D01*
X175649999Y-102339999D01*
X175650000Y-102339998D01*
X175650000Y-101015376D01*
X175649999Y-101015374D01*
X175635493Y-100942452D01*
X175635492Y-100942450D01*
X175580241Y-100859761D01*
X175580237Y-100859757D01*
X175497548Y-100804506D01*
X175497546Y-100804505D01*
X175424624Y-100789999D01*
X174100001Y-100789999D01*
X174100000Y-100790000D01*
X174100000Y-101806346D01*
X173988831Y-101779999D01*
X173855733Y-101779999D01*
X173723539Y-101795450D01*
X173700000Y-101804017D01*
X173700000Y-100790000D01*
X173699999Y-100789999D01*
X172375375Y-100789999D01*
X172302453Y-100804505D01*
X172302451Y-100804506D01*
X172219762Y-100859757D01*
X172219758Y-100859761D01*
X172164507Y-100942450D01*
X172164506Y-100942452D01*
X172150000Y-101015374D01*
X172150000Y-102339998D01*
X172150001Y-102339999D01*
X173166548Y-102339999D01*
X173146451Y-102407128D01*
X173136121Y-102584490D01*
X173163541Y-102739999D01*
X172150001Y-102739999D01*
X172150000Y-102740000D01*
X172150000Y-104064623D01*
X130886800Y-104064623D01*
X130886800Y-102186400D01*
X136640350Y-102186400D01*
X136659269Y-102330108D01*
X136659270Y-102330109D01*
X136663366Y-102339999D01*
X136714739Y-102464025D01*
X136802979Y-102579021D01*
X136917975Y-102667261D01*
X137051891Y-102722730D01*
X137195600Y-102741650D01*
X137195601Y-102741650D01*
X137243503Y-102735343D01*
X137339309Y-102722730D01*
X137339312Y-102722728D01*
X137345578Y-102721050D01*
X137345936Y-102722386D01*
X137367398Y-102717642D01*
X137380899Y-102717084D01*
X137384988Y-102717000D01*
X151830836Y-102717000D01*
X151889027Y-102735907D01*
X151909377Y-102755731D01*
X151911976Y-102759118D01*
X151911977Y-102759119D01*
X151911979Y-102759121D01*
X152026975Y-102847361D01*
X152160891Y-102902830D01*
X152304600Y-102921750D01*
X152448309Y-102902830D01*
X152582225Y-102847361D01*
X152697221Y-102759121D01*
X152785461Y-102644125D01*
X152840930Y-102510209D01*
X152859850Y-102366500D01*
X152840930Y-102222791D01*
X152785461Y-102088875D01*
X152697221Y-101973879D01*
X152582225Y-101885639D01*
X152582221Y-101885637D01*
X152448309Y-101830170D01*
X152448308Y-101830169D01*
X152304600Y-101811250D01*
X152160891Y-101830169D01*
X152160890Y-101830170D01*
X152026978Y-101885637D01*
X152026974Y-101885639D01*
X151911976Y-101973881D01*
X151909377Y-101977269D01*
X151858951Y-102011924D01*
X151830836Y-102016000D01*
X137787024Y-102016000D01*
X137728833Y-101997093D01*
X137695560Y-101954885D01*
X137676462Y-101908778D01*
X137676461Y-101908775D01*
X137588221Y-101793779D01*
X137473225Y-101705539D01*
X137473221Y-101705537D01*
X137339309Y-101650070D01*
X137339308Y-101650069D01*
X137195600Y-101631150D01*
X137051891Y-101650069D01*
X137051890Y-101650070D01*
X136917978Y-101705537D01*
X136917974Y-101705539D01*
X136802981Y-101793777D01*
X136802977Y-101793781D01*
X136714739Y-101908774D01*
X136714737Y-101908778D01*
X136659270Y-102042690D01*
X136659269Y-102042691D01*
X136640350Y-102186399D01*
X136640350Y-102186400D01*
X130886800Y-102186400D01*
X130886800Y-99979549D01*
X130905707Y-99921358D01*
X130955207Y-99885394D01*
X131016393Y-99885394D01*
X131052375Y-99907444D01*
X131052432Y-99907371D01*
X131053128Y-99907905D01*
X131055804Y-99909545D01*
X131057575Y-99911316D01*
X131057579Y-99911321D01*
X131172575Y-99999561D01*
X131306491Y-100055030D01*
X131450200Y-100073950D01*
X131593909Y-100055030D01*
X131727825Y-99999561D01*
X131842821Y-99911321D01*
X131931061Y-99796325D01*
X131986530Y-99662409D01*
X132005450Y-99518700D01*
X131986530Y-99374991D01*
X131931061Y-99241075D01*
X131842821Y-99126079D01*
X131842819Y-99126077D01*
X131842818Y-99126076D01*
X131839431Y-99123477D01*
X131804776Y-99073051D01*
X131800700Y-99044936D01*
X131800700Y-97783513D01*
X131802807Y-97763197D01*
X131802834Y-97763069D01*
X131805242Y-97751585D01*
X131801460Y-97721242D01*
X131800700Y-97708998D01*
X131800700Y-97707859D01*
X131800133Y-97704465D01*
X131797443Y-97688347D01*
X131796858Y-97684329D01*
X131793732Y-97659250D01*
X131790773Y-97635507D01*
X131790771Y-97635504D01*
X131788677Y-97628469D01*
X131786291Y-97621516D01*
X131762887Y-97578271D01*
X131761013Y-97574630D01*
X131739399Y-97530417D01*
X131735148Y-97524462D01*
X131730619Y-97518643D01*
X131730618Y-97518642D01*
X131694421Y-97485320D01*
X131691494Y-97482512D01*
X115994101Y-81785119D01*
X115981225Y-81769262D01*
X115974737Y-81759331D01*
X115950608Y-81740551D01*
X115941419Y-81732437D01*
X115940607Y-81731625D01*
X115924525Y-81720143D01*
X115921261Y-81717710D01*
X115882426Y-81687483D01*
X115882424Y-81687482D01*
X115875977Y-81683993D01*
X115869370Y-81680763D01*
X115869366Y-81680760D01*
X115822209Y-81666720D01*
X115818315Y-81665472D01*
X115771787Y-81649499D01*
X115764560Y-81648293D01*
X115757255Y-81647383D01*
X115757254Y-81647383D01*
X115757252Y-81647383D01*
X115708124Y-81649415D01*
X115704033Y-81649500D01*
X104399500Y-81649500D01*
X104341309Y-81630593D01*
X104305345Y-81581093D01*
X104300500Y-81550500D01*
X104300500Y-81125327D01*
X104300498Y-81125315D01*
X104292989Y-81087566D01*
X104285966Y-81052260D01*
X104230601Y-80969399D01*
X104230599Y-80969397D01*
X104147742Y-80914035D01*
X104147740Y-80914034D01*
X104147737Y-80914033D01*
X104147736Y-80914033D01*
X104074684Y-80899501D01*
X104074674Y-80899500D01*
X102325326Y-80899500D01*
X102325325Y-80899500D01*
X102325315Y-80899501D01*
X102252263Y-80914033D01*
X102252257Y-80914035D01*
X102169400Y-80969397D01*
X102169397Y-80969400D01*
X102114035Y-81052257D01*
X102114033Y-81052263D01*
X102099501Y-81125315D01*
X102099500Y-81125327D01*
X102099500Y-82874672D01*
X102099501Y-82874684D01*
X102114033Y-82947736D01*
X102114035Y-82947742D01*
X102169397Y-83030599D01*
X102169399Y-83030601D01*
X102252260Y-83085966D01*
X102307808Y-83097015D01*
X102325315Y-83100498D01*
X102325320Y-83100498D01*
X102325326Y-83100500D01*
X102325327Y-83100500D01*
X104074673Y-83100500D01*
X104074674Y-83100500D01*
X104147740Y-83085966D01*
X104230601Y-83030601D01*
X104285966Y-82947740D01*
X104300500Y-82874674D01*
X104300500Y-82449500D01*
X104319407Y-82391309D01*
X104368907Y-82355345D01*
X104399500Y-82350500D01*
X115527110Y-82350500D01*
X115585301Y-82369407D01*
X115597114Y-82379496D01*
X130245042Y-97027424D01*
X130272819Y-97081941D01*
X130263248Y-97142373D01*
X130235306Y-97175969D01*
X130143685Y-97246273D01*
X130143677Y-97246281D01*
X130055439Y-97361274D01*
X130055437Y-97361278D01*
X129999970Y-97495190D01*
X129999969Y-97495191D01*
X129981050Y-97638899D01*
X129981050Y-97638900D01*
X129999969Y-97782608D01*
X129999970Y-97782609D01*
X130029830Y-97854700D01*
X130055439Y-97916525D01*
X130055441Y-97916528D01*
X130055442Y-97916529D01*
X130143675Y-98031517D01*
X130143677Y-98031518D01*
X130143679Y-98031521D01*
X130147063Y-98034117D01*
X130181721Y-98084538D01*
X130185800Y-98112662D01*
X130185800Y-100032190D01*
X130166893Y-100090381D01*
X130117393Y-100126345D01*
X130056207Y-100126345D01*
X130026532Y-100110732D01*
X129934925Y-100040439D01*
X129934921Y-100040437D01*
X129801009Y-99984970D01*
X129801008Y-99984969D01*
X129657300Y-99966050D01*
X129653061Y-99966608D01*
X129592901Y-99955455D01*
X129570139Y-99938458D01*
X116496801Y-86865119D01*
X116483925Y-86849262D01*
X116477437Y-86839331D01*
X116453308Y-86820551D01*
X116444119Y-86812437D01*
X116443307Y-86811625D01*
X116427225Y-86800143D01*
X116423961Y-86797710D01*
X116385126Y-86767483D01*
X116385124Y-86767482D01*
X116378677Y-86763993D01*
X116372070Y-86760763D01*
X116372066Y-86760760D01*
X116324909Y-86746720D01*
X116321015Y-86745472D01*
X116274487Y-86729499D01*
X116267260Y-86728293D01*
X116259955Y-86727383D01*
X116259954Y-86727383D01*
X116259952Y-86727383D01*
X116210824Y-86729415D01*
X116206733Y-86729500D01*
X104316155Y-86729500D01*
X104257964Y-86710593D01*
X104227534Y-86674628D01*
X104139676Y-86498186D01*
X104139673Y-86498179D01*
X104016764Y-86335421D01*
X103866041Y-86198019D01*
X103692637Y-86090652D01*
X103502456Y-86016976D01*
X103502455Y-86016975D01*
X103502453Y-86016975D01*
X103301976Y-85979500D01*
X103098024Y-85979500D01*
X102897546Y-86016975D01*
X102827632Y-86044059D01*
X102707363Y-86090652D01*
X102533959Y-86198019D01*
X102383237Y-86335420D01*
X102260328Y-86498177D01*
X102260323Y-86498186D01*
X102172466Y-86674628D01*
X102169418Y-86680750D01*
X102113603Y-86876917D01*
X102094785Y-87080000D01*
X100300500Y-87080000D01*
X100300500Y-84340000D01*
X102113819Y-84340000D01*
X102737617Y-84340000D01*
X102700000Y-84468111D01*
X102700000Y-84611889D01*
X102737617Y-84740000D01*
X102113820Y-84740000D01*
X102114095Y-84742982D01*
X102114096Y-84742985D01*
X102169887Y-84939070D01*
X102260750Y-85121548D01*
X102260755Y-85121557D01*
X102383608Y-85284240D01*
X102534266Y-85421582D01*
X102707581Y-85528895D01*
X102707586Y-85528898D01*
X102897683Y-85602541D01*
X102999999Y-85621667D01*
X103000000Y-85621667D01*
X103000000Y-84998335D01*
X103057685Y-85024680D01*
X103164237Y-85040000D01*
X103235763Y-85040000D01*
X103342315Y-85024680D01*
X103400000Y-84998335D01*
X103400000Y-85621667D01*
X103502316Y-85602541D01*
X103692413Y-85528898D01*
X103692418Y-85528895D01*
X103865733Y-85421582D01*
X104016391Y-85284240D01*
X104139244Y-85121557D01*
X104139249Y-85121548D01*
X104230112Y-84939070D01*
X104285903Y-84742985D01*
X104285904Y-84742982D01*
X104286180Y-84740000D01*
X103662383Y-84740000D01*
X103700000Y-84611889D01*
X103700000Y-84468111D01*
X103662383Y-84340000D01*
X104286180Y-84340000D01*
X104285904Y-84337017D01*
X104285903Y-84337014D01*
X104230112Y-84140929D01*
X104139249Y-83958451D01*
X104139244Y-83958442D01*
X104016391Y-83795759D01*
X103865733Y-83658417D01*
X103692418Y-83551104D01*
X103692413Y-83551101D01*
X103502317Y-83477458D01*
X103400000Y-83458331D01*
X103400000Y-84081664D01*
X103342315Y-84055320D01*
X103235763Y-84040000D01*
X103164237Y-84040000D01*
X103057685Y-84055320D01*
X103000000Y-84081664D01*
X103000000Y-83458332D01*
X102999999Y-83458331D01*
X102897682Y-83477458D01*
X102707586Y-83551101D01*
X102707581Y-83551104D01*
X102534266Y-83658417D01*
X102383608Y-83795759D01*
X102260755Y-83958442D01*
X102260750Y-83958451D01*
X102169887Y-84140929D01*
X102114096Y-84337014D01*
X102114095Y-84337017D01*
X102113819Y-84340000D01*
X100300500Y-84340000D01*
X100300500Y-74067765D01*
X102145788Y-74067765D01*
X102175414Y-74337020D01*
X102209997Y-74469301D01*
X102243928Y-74599088D01*
X102349870Y-74848390D01*
X102400163Y-74930798D01*
X102490983Y-75079612D01*
X102576042Y-75181821D01*
X102664255Y-75287820D01*
X102865998Y-75468582D01*
X103088624Y-75615870D01*
X103091913Y-75618046D01*
X103193247Y-75665549D01*
X103337176Y-75733020D01*
X103482628Y-75776780D01*
X103596555Y-75811056D01*
X103596559Y-75811057D01*
X103596569Y-75811060D01*
X103763840Y-75835677D01*
X103864560Y-75850500D01*
X103864561Y-75850500D01*
X104067631Y-75850500D01*
X104270156Y-75835677D01*
X104534553Y-75776780D01*
X104787558Y-75680014D01*
X105023777Y-75547441D01*
X105118079Y-75474624D01*
X109400000Y-75474624D01*
X109414506Y-75547546D01*
X109414507Y-75547548D01*
X109469758Y-75630237D01*
X109469762Y-75630241D01*
X109552451Y-75685492D01*
X109552453Y-75685493D01*
X109625375Y-75699999D01*
X109625377Y-75700000D01*
X110299999Y-75700000D01*
X110300000Y-75699999D01*
X110300000Y-75058335D01*
X110357685Y-75084680D01*
X110464237Y-75100000D01*
X110535763Y-75100000D01*
X110642315Y-75084680D01*
X110700000Y-75058335D01*
X110700000Y-75699999D01*
X110700001Y-75700000D01*
X111374623Y-75700000D01*
X111374624Y-75699999D01*
X111447546Y-75685493D01*
X111447548Y-75685492D01*
X111530237Y-75630241D01*
X111530241Y-75630237D01*
X111585492Y-75547548D01*
X111585493Y-75547546D01*
X111599999Y-75474624D01*
X111600000Y-75474622D01*
X111600000Y-74800001D01*
X111599999Y-74800000D01*
X110962383Y-74800000D01*
X111000000Y-74671889D01*
X111000000Y-74600000D01*
X111934785Y-74600000D01*
X111953603Y-74803083D01*
X112009418Y-74999250D01*
X112100327Y-75181821D01*
X112223236Y-75344579D01*
X112373959Y-75481981D01*
X112547363Y-75589348D01*
X112737544Y-75663024D01*
X112938024Y-75700500D01*
X113141976Y-75700500D01*
X113342456Y-75663024D01*
X113532637Y-75589348D01*
X113706041Y-75481981D01*
X113856764Y-75344579D01*
X113979673Y-75181821D01*
X114070582Y-74999250D01*
X114126397Y-74803083D01*
X114145215Y-74600000D01*
X114474785Y-74600000D01*
X114493603Y-74803083D01*
X114549418Y-74999250D01*
X114640327Y-75181821D01*
X114763236Y-75344579D01*
X114913959Y-75481981D01*
X115087363Y-75589348D01*
X115087367Y-75589349D01*
X115087368Y-75589350D01*
X115163959Y-75619021D01*
X115211391Y-75657672D01*
X115226436Y-75699087D01*
X115228739Y-75717558D01*
X115229500Y-75729807D01*
X115229500Y-75730942D01*
X115232751Y-75750428D01*
X115233337Y-75754447D01*
X115236122Y-75776780D01*
X115239427Y-75803293D01*
X115241527Y-75810348D01*
X115243907Y-75817280D01*
X115267322Y-75860546D01*
X115269195Y-75864185D01*
X115290801Y-75908382D01*
X115295078Y-75914372D01*
X115299581Y-75920158D01*
X115335764Y-75953467D01*
X115338717Y-75956299D01*
X132836404Y-93453986D01*
X132864181Y-93508503D01*
X132865400Y-93523990D01*
X132865400Y-98993736D01*
X132846493Y-99051927D01*
X132826669Y-99072277D01*
X132823281Y-99074876D01*
X132735039Y-99189874D01*
X132735037Y-99189878D01*
X132679570Y-99323790D01*
X132679569Y-99323791D01*
X132660650Y-99467499D01*
X132660650Y-99467500D01*
X132679569Y-99611208D01*
X132679570Y-99611209D01*
X132735039Y-99745125D01*
X132823279Y-99860121D01*
X132938275Y-99948361D01*
X133072191Y-100003830D01*
X133215900Y-100022750D01*
X133359609Y-100003830D01*
X133493525Y-99948361D01*
X133608521Y-99860121D01*
X133696761Y-99745125D01*
X133752230Y-99611209D01*
X133771150Y-99467500D01*
X133770441Y-99462118D01*
X133752230Y-99323791D01*
X133696761Y-99189875D01*
X133608521Y-99074879D01*
X133608519Y-99074877D01*
X133608518Y-99074876D01*
X133605131Y-99072277D01*
X133570476Y-99021851D01*
X133566400Y-98993736D01*
X133566400Y-98164188D01*
X133585307Y-98105997D01*
X133634807Y-98070033D01*
X133695993Y-98070033D01*
X133703263Y-98072715D01*
X133793591Y-98110130D01*
X133937300Y-98129050D01*
X134081009Y-98110130D01*
X134214925Y-98054661D01*
X134329921Y-97966421D01*
X134415648Y-97854700D01*
X134683950Y-97854700D01*
X134702869Y-97998408D01*
X134702870Y-97998409D01*
X134749145Y-98110130D01*
X134758339Y-98132325D01*
X134846579Y-98247321D01*
X134961575Y-98335561D01*
X135095491Y-98391030D01*
X135239200Y-98409950D01*
X135382909Y-98391030D01*
X135516825Y-98335561D01*
X135631821Y-98247321D01*
X135720061Y-98132325D01*
X135775530Y-97998409D01*
X135794450Y-97854700D01*
X135793893Y-97850470D01*
X135805039Y-97790310D01*
X135822038Y-97767542D01*
X136324007Y-97265573D01*
X136378522Y-97237798D01*
X136438954Y-97247369D01*
X136482219Y-97290634D01*
X136485473Y-97297693D01*
X136500675Y-97334393D01*
X136520239Y-97381625D01*
X136608479Y-97496621D01*
X136723475Y-97584861D01*
X136857391Y-97640330D01*
X136957206Y-97653471D01*
X137012431Y-97679812D01*
X137041626Y-97733583D01*
X137033640Y-97794245D01*
X137014288Y-97821628D01*
X136349258Y-98486658D01*
X136294741Y-98514435D01*
X136266333Y-98514807D01*
X136262102Y-98514250D01*
X136262100Y-98514250D01*
X136118391Y-98533169D01*
X136118390Y-98533170D01*
X135984478Y-98588637D01*
X135984474Y-98588639D01*
X135869481Y-98676877D01*
X135869477Y-98676881D01*
X135781239Y-98791874D01*
X135781237Y-98791878D01*
X135725770Y-98925790D01*
X135725769Y-98925791D01*
X135706850Y-99069499D01*
X135706850Y-99069500D01*
X135725769Y-99213208D01*
X135725770Y-99213209D01*
X135737313Y-99241078D01*
X135781239Y-99347125D01*
X135869479Y-99462121D01*
X135984475Y-99550361D01*
X136118391Y-99605830D01*
X136262100Y-99624750D01*
X136405809Y-99605830D01*
X136539725Y-99550361D01*
X136654721Y-99462121D01*
X136742961Y-99347125D01*
X136798430Y-99213209D01*
X136817350Y-99069500D01*
X136816793Y-99065270D01*
X136827939Y-99005110D01*
X136844938Y-98982342D01*
X138367279Y-97460001D01*
X172145093Y-97460001D01*
X172164693Y-97721548D01*
X172164695Y-97721558D01*
X172223057Y-97977263D01*
X172318883Y-98221425D01*
X172318889Y-98221437D01*
X172450024Y-98448566D01*
X172450029Y-98448574D01*
X172529245Y-98547908D01*
X173236504Y-97840648D01*
X173237340Y-97842586D01*
X173343433Y-97985093D01*
X173479530Y-98099293D01*
X173522145Y-98120695D01*
X172808788Y-98834053D01*
X173022551Y-98979795D01*
X173258862Y-99093596D01*
X173509491Y-99170905D01*
X173509501Y-99170907D01*
X173768852Y-99209998D01*
X173768861Y-99209999D01*
X174031139Y-99209999D01*
X174031147Y-99209998D01*
X174290498Y-99170907D01*
X174290508Y-99170905D01*
X174541140Y-99093595D01*
X174777451Y-98979794D01*
X174991211Y-98834054D01*
X174278114Y-98120957D01*
X174391844Y-98046156D01*
X174513764Y-97916929D01*
X174559886Y-97837041D01*
X175270753Y-98547908D01*
X175349971Y-98448574D01*
X175481110Y-98221437D01*
X175481116Y-98221425D01*
X175576942Y-97977263D01*
X175635304Y-97721558D01*
X175635306Y-97721548D01*
X175654907Y-97460001D01*
X175654907Y-97459996D01*
X175635306Y-97198449D01*
X175635304Y-97198439D01*
X175576942Y-96942734D01*
X175481116Y-96698572D01*
X175481110Y-96698560D01*
X175349971Y-96471423D01*
X175270753Y-96372088D01*
X174563494Y-97079346D01*
X174562660Y-97077412D01*
X174456567Y-96934905D01*
X174320470Y-96820705D01*
X174277851Y-96799301D01*
X174991210Y-96085943D01*
X174777446Y-95940201D01*
X174541140Y-95826402D01*
X174290508Y-95749092D01*
X174290498Y-95749090D01*
X174031147Y-95709999D01*
X173768852Y-95709999D01*
X173509501Y-95749090D01*
X173509491Y-95749092D01*
X173258862Y-95826401D01*
X173022548Y-95940204D01*
X172808787Y-96085942D01*
X173521885Y-96799040D01*
X173408156Y-96873842D01*
X173286236Y-97003069D01*
X173240113Y-97082956D01*
X172529245Y-96372088D01*
X172450034Y-96471416D01*
X172450024Y-96471431D01*
X172318889Y-96698560D01*
X172318883Y-96698572D01*
X172223057Y-96942734D01*
X172164695Y-97198439D01*
X172164693Y-97198449D01*
X172145093Y-97459996D01*
X172145093Y-97460001D01*
X138367279Y-97460001D01*
X146762608Y-89064671D01*
X172149500Y-89064671D01*
X172149501Y-89064683D01*
X172164033Y-89137735D01*
X172164035Y-89137741D01*
X172219397Y-89220598D01*
X172219399Y-89220600D01*
X172302260Y-89275965D01*
X172357808Y-89287014D01*
X172375315Y-89290497D01*
X172375320Y-89290497D01*
X172375326Y-89290499D01*
X172375327Y-89290499D01*
X175424673Y-89290499D01*
X175424674Y-89290499D01*
X175497740Y-89275965D01*
X175580601Y-89220600D01*
X175635966Y-89137739D01*
X175650500Y-89064673D01*
X175650500Y-86015325D01*
X175635966Y-85942259D01*
X175580601Y-85859398D01*
X175580599Y-85859396D01*
X175497742Y-85804034D01*
X175497740Y-85804033D01*
X175497737Y-85804032D01*
X175497736Y-85804032D01*
X175424684Y-85789500D01*
X175424674Y-85789499D01*
X172375326Y-85789499D01*
X172375325Y-85789499D01*
X172375315Y-85789500D01*
X172302263Y-85804032D01*
X172302257Y-85804034D01*
X172219400Y-85859396D01*
X172219397Y-85859399D01*
X172164035Y-85942256D01*
X172164033Y-85942262D01*
X172149501Y-86015314D01*
X172149500Y-86015323D01*
X172149500Y-89064671D01*
X146762608Y-89064671D01*
X147081281Y-88745998D01*
X147097131Y-88733128D01*
X147107069Y-88726637D01*
X147125854Y-88702499D01*
X147133973Y-88693307D01*
X147134775Y-88692506D01*
X147146284Y-88676384D01*
X147148653Y-88673207D01*
X147178917Y-88634326D01*
X147178918Y-88634322D01*
X147182423Y-88627845D01*
X147185637Y-88621271D01*
X147185637Y-88621269D01*
X147185640Y-88621266D01*
X147199687Y-88574081D01*
X147200912Y-88570254D01*
X147216900Y-88523688D01*
X147216900Y-88523683D01*
X147218107Y-88516454D01*
X147219017Y-88509154D01*
X147216985Y-88460023D01*
X147216900Y-88455932D01*
X147216900Y-88311939D01*
X147235807Y-88253748D01*
X147255631Y-88233398D01*
X147259121Y-88230721D01*
X147347361Y-88115725D01*
X147402830Y-87981809D01*
X147421750Y-87838100D01*
X147402830Y-87694391D01*
X147347361Y-87560475D01*
X147259121Y-87445479D01*
X147144125Y-87357239D01*
X147144121Y-87357237D01*
X147010209Y-87301770D01*
X147010208Y-87301769D01*
X146866500Y-87282850D01*
X146722791Y-87301769D01*
X146722790Y-87301770D01*
X146588878Y-87357237D01*
X146588874Y-87357239D01*
X146473881Y-87445477D01*
X146473877Y-87445481D01*
X146385639Y-87560474D01*
X146385637Y-87560478D01*
X146330170Y-87694390D01*
X146329132Y-87702276D01*
X146302790Y-87757500D01*
X146249019Y-87786695D01*
X146193094Y-87780816D01*
X146150009Y-87762970D01*
X146150008Y-87762969D01*
X146006300Y-87744050D01*
X145862591Y-87762969D01*
X145862590Y-87762970D01*
X145728678Y-87818437D01*
X145728674Y-87818439D01*
X145613681Y-87906677D01*
X145613677Y-87906681D01*
X145525438Y-88021676D01*
X145488920Y-88109838D01*
X145467460Y-88141956D01*
X143844504Y-89764913D01*
X143789987Y-89792690D01*
X143729555Y-89783119D01*
X143686290Y-89739854D01*
X143675500Y-89694909D01*
X143675500Y-88776962D01*
X143694407Y-88718771D01*
X143714234Y-88698419D01*
X143717621Y-88695821D01*
X143805861Y-88580825D01*
X143861330Y-88446909D01*
X143880250Y-88303200D01*
X143861330Y-88159491D01*
X143805861Y-88025575D01*
X143717621Y-87910579D01*
X143602625Y-87822339D01*
X143602621Y-87822337D01*
X143468709Y-87766870D01*
X143468708Y-87766869D01*
X143325000Y-87747950D01*
X143181291Y-87766869D01*
X143181290Y-87766870D01*
X143047378Y-87822337D01*
X143047374Y-87822339D01*
X142932381Y-87910577D01*
X142932377Y-87910581D01*
X142844139Y-88025574D01*
X142844137Y-88025578D01*
X142788670Y-88159490D01*
X142788669Y-88159491D01*
X142769750Y-88303199D01*
X142769750Y-88303200D01*
X142788669Y-88446908D01*
X142788670Y-88446909D01*
X142841366Y-88574132D01*
X142844139Y-88580825D01*
X142844141Y-88580828D01*
X142844142Y-88580829D01*
X142932375Y-88695817D01*
X142932377Y-88695818D01*
X142932379Y-88695821D01*
X142935763Y-88698417D01*
X142970421Y-88748838D01*
X142974500Y-88776962D01*
X142974500Y-89582709D01*
X142955593Y-89640900D01*
X142945504Y-89652713D01*
X135326358Y-97271858D01*
X135271841Y-97299635D01*
X135243433Y-97300007D01*
X135239202Y-97299450D01*
X135239200Y-97299450D01*
X135095491Y-97318369D01*
X135095490Y-97318370D01*
X134961578Y-97373837D01*
X134961574Y-97373839D01*
X134846581Y-97462077D01*
X134846577Y-97462081D01*
X134758339Y-97577074D01*
X134758337Y-97577078D01*
X134702870Y-97710990D01*
X134702869Y-97710991D01*
X134683950Y-97854699D01*
X134683950Y-97854700D01*
X134415648Y-97854700D01*
X134418161Y-97851425D01*
X134473630Y-97717509D01*
X134492550Y-97573800D01*
X134486838Y-97530417D01*
X134473630Y-97430091D01*
X134418161Y-97296175D01*
X134329921Y-97181179D01*
X134329919Y-97181177D01*
X134329918Y-97181176D01*
X134326531Y-97178577D01*
X134291876Y-97128151D01*
X134287800Y-97100036D01*
X134287800Y-91565813D01*
X134289907Y-91545497D01*
X134292342Y-91533885D01*
X134288560Y-91503542D01*
X134287800Y-91491298D01*
X134287800Y-91490159D01*
X134287233Y-91486765D01*
X134284543Y-91470647D01*
X134283958Y-91466629D01*
X134277873Y-91417807D01*
X134277871Y-91417804D01*
X134275777Y-91410769D01*
X134273391Y-91403816D01*
X134249987Y-91360571D01*
X134248113Y-91356930D01*
X134226499Y-91312717D01*
X134222248Y-91306762D01*
X134217719Y-91300943D01*
X134217718Y-91300942D01*
X134181521Y-91267620D01*
X134178594Y-91264812D01*
X126713782Y-83800000D01*
X136144750Y-83800000D01*
X136163669Y-83943708D01*
X136163670Y-83943709D01*
X136169772Y-83958442D01*
X136219139Y-84077625D01*
X136307379Y-84192621D01*
X136422375Y-84280861D01*
X136556291Y-84336330D01*
X136700000Y-84355250D01*
X136843709Y-84336330D01*
X136977625Y-84280861D01*
X136990532Y-84270956D01*
X137048209Y-84250534D01*
X137050799Y-84250500D01*
X152249201Y-84250500D01*
X152307392Y-84269407D01*
X152309465Y-84270955D01*
X152322375Y-84280861D01*
X152456291Y-84336330D01*
X152600000Y-84355250D01*
X152743709Y-84336330D01*
X152877625Y-84280861D01*
X152992621Y-84192621D01*
X153080861Y-84077625D01*
X153136330Y-83943709D01*
X153155250Y-83800000D01*
X153136330Y-83656291D01*
X153080861Y-83522375D01*
X152992621Y-83407379D01*
X152877625Y-83319139D01*
X152877621Y-83319137D01*
X152743709Y-83263670D01*
X152743708Y-83263669D01*
X152600000Y-83244750D01*
X152456291Y-83263669D01*
X152456290Y-83263670D01*
X152322378Y-83319137D01*
X152322374Y-83319139D01*
X152309468Y-83329043D01*
X152251791Y-83349466D01*
X152249201Y-83349500D01*
X137050799Y-83349500D01*
X136992608Y-83330593D01*
X136990532Y-83329043D01*
X136977625Y-83319139D01*
X136977621Y-83319137D01*
X136843709Y-83263670D01*
X136843708Y-83263669D01*
X136700000Y-83244750D01*
X136556291Y-83263669D01*
X136556290Y-83263670D01*
X136422378Y-83319137D01*
X136422374Y-83319139D01*
X136307381Y-83407377D01*
X136307377Y-83407381D01*
X136219139Y-83522374D01*
X136219137Y-83522378D01*
X136163670Y-83656290D01*
X136163669Y-83656291D01*
X136144750Y-83799999D01*
X136144750Y-83800000D01*
X126713782Y-83800000D01*
X125373783Y-82460001D01*
X172144592Y-82460001D01*
X172164197Y-82721624D01*
X172164198Y-82721630D01*
X172222580Y-82977418D01*
X172318429Y-83221635D01*
X172318438Y-83221654D01*
X172449610Y-83448850D01*
X172449620Y-83448864D01*
X172613185Y-83653969D01*
X172613196Y-83653981D01*
X172805514Y-83832426D01*
X172805516Y-83832427D01*
X172805521Y-83832432D01*
X173022296Y-83980227D01*
X173129810Y-84032003D01*
X173258674Y-84094061D01*
X173258676Y-84094061D01*
X173258677Y-84094062D01*
X173509385Y-84171395D01*
X173768818Y-84210499D01*
X173768823Y-84210499D01*
X174031177Y-84210499D01*
X174031182Y-84210499D01*
X174290615Y-84171395D01*
X174541323Y-84094062D01*
X174777704Y-83980227D01*
X174994479Y-83832432D01*
X175186805Y-83653980D01*
X175350386Y-83448856D01*
X175481568Y-83221642D01*
X175577420Y-82977415D01*
X175635802Y-82721629D01*
X175655408Y-82459999D01*
X175635802Y-82198369D01*
X175577420Y-81942583D01*
X175577419Y-81942582D01*
X175577419Y-81942579D01*
X175512771Y-81777861D01*
X175481568Y-81698356D01*
X175481563Y-81698347D01*
X175481561Y-81698343D01*
X175350389Y-81471147D01*
X175350388Y-81471146D01*
X175350386Y-81471142D01*
X175350379Y-81471133D01*
X175186814Y-81266028D01*
X175186803Y-81266016D01*
X174994485Y-81087571D01*
X174994482Y-81087569D01*
X174994479Y-81087566D01*
X174777704Y-80939771D01*
X174724261Y-80914034D01*
X174541325Y-80825936D01*
X174290619Y-80748604D01*
X174290616Y-80748603D01*
X174290615Y-80748603D01*
X174290610Y-80748602D01*
X174290609Y-80748602D01*
X174031185Y-80709499D01*
X174031182Y-80709499D01*
X173768818Y-80709499D01*
X173768814Y-80709499D01*
X173509390Y-80748602D01*
X173509380Y-80748604D01*
X173258674Y-80825936D01*
X173022303Y-80939767D01*
X173022299Y-80939769D01*
X173022296Y-80939771D01*
X172857301Y-81052263D01*
X172805514Y-81087571D01*
X172613196Y-81266016D01*
X172613185Y-81266028D01*
X172449620Y-81471133D01*
X172449610Y-81471147D01*
X172318438Y-81698343D01*
X172318429Y-81698362D01*
X172222580Y-81942579D01*
X172164198Y-82198367D01*
X172164197Y-82198373D01*
X172144592Y-82459996D01*
X172144592Y-82460001D01*
X125373783Y-82460001D01*
X118633384Y-75719602D01*
X118605607Y-75665085D01*
X118615178Y-75604653D01*
X118651269Y-75565428D01*
X118786041Y-75481981D01*
X118936764Y-75344579D01*
X119059673Y-75181821D01*
X119150582Y-74999250D01*
X119206397Y-74803083D01*
X119225215Y-74600000D01*
X119206397Y-74396917D01*
X119150582Y-74200750D01*
X119084364Y-74067765D01*
X174145788Y-74067765D01*
X174175414Y-74337020D01*
X174209997Y-74469301D01*
X174243928Y-74599088D01*
X174349870Y-74848390D01*
X174400163Y-74930798D01*
X174490983Y-75079612D01*
X174576042Y-75181821D01*
X174664255Y-75287820D01*
X174865998Y-75468582D01*
X175088624Y-75615870D01*
X175091913Y-75618046D01*
X175193247Y-75665549D01*
X175337176Y-75733020D01*
X175482628Y-75776780D01*
X175596555Y-75811056D01*
X175596559Y-75811057D01*
X175596569Y-75811060D01*
X175763840Y-75835677D01*
X175864560Y-75850500D01*
X175864561Y-75850500D01*
X176067631Y-75850500D01*
X176270156Y-75835677D01*
X176534553Y-75776780D01*
X176787558Y-75680014D01*
X177023777Y-75547441D01*
X177238177Y-75381888D01*
X177426186Y-75186881D01*
X177583799Y-74966579D01*
X177707656Y-74725675D01*
X177795118Y-74469305D01*
X177844319Y-74202933D01*
X177854212Y-73932235D01*
X177824586Y-73662982D01*
X177756072Y-73400912D01*
X177650130Y-73151610D01*
X177509018Y-72920390D01*
X177335745Y-72712180D01*
X177230754Y-72618108D01*
X177134007Y-72531422D01*
X177134004Y-72531420D01*
X177134002Y-72531418D01*
X176984489Y-72432501D01*
X176908086Y-72381953D01*
X176662822Y-72266979D01*
X176403444Y-72188943D01*
X176403428Y-72188939D01*
X176135440Y-72149500D01*
X176135439Y-72149500D01*
X175932369Y-72149500D01*
X175729848Y-72164322D01*
X175465450Y-72223219D01*
X175212439Y-72319987D01*
X174976219Y-72452561D01*
X174761826Y-72618108D01*
X174573814Y-72813119D01*
X174416199Y-73033422D01*
X174292342Y-73274328D01*
X174204884Y-73530687D01*
X174204881Y-73530698D01*
X174155680Y-73797069D01*
X174145788Y-74067765D01*
X119084364Y-74067765D01*
X119059673Y-74018179D01*
X118936764Y-73855421D01*
X118786041Y-73718019D01*
X118612637Y-73610652D01*
X118422456Y-73536976D01*
X118422455Y-73536975D01*
X118422453Y-73536975D01*
X118221976Y-73499500D01*
X118018024Y-73499500D01*
X117817546Y-73536975D01*
X117747632Y-73564059D01*
X117627363Y-73610652D01*
X117542852Y-73662979D01*
X117453959Y-73718019D01*
X117303237Y-73855420D01*
X117180328Y-74018177D01*
X117180323Y-74018186D01*
X117102216Y-74175048D01*
X117089418Y-74200750D01*
X117033603Y-74396917D01*
X117014785Y-74600000D01*
X117033603Y-74803083D01*
X117089418Y-74999250D01*
X117180327Y-75181821D01*
X117303236Y-75344579D01*
X117453959Y-75481981D01*
X117627363Y-75589348D01*
X117627367Y-75589349D01*
X117627368Y-75589350D01*
X117703959Y-75619021D01*
X117751391Y-75657672D01*
X117766436Y-75699087D01*
X117768739Y-75717558D01*
X117769500Y-75729807D01*
X117769500Y-75730942D01*
X117772751Y-75750428D01*
X117773337Y-75754447D01*
X117776122Y-75776780D01*
X117779427Y-75803293D01*
X117781527Y-75810348D01*
X117783907Y-75817280D01*
X117807322Y-75860546D01*
X117809195Y-75864185D01*
X117830801Y-75908382D01*
X117835078Y-75914372D01*
X117839581Y-75920158D01*
X117875764Y-75953467D01*
X117878717Y-75956299D01*
X133557804Y-91635386D01*
X133585581Y-91689903D01*
X133586800Y-91705390D01*
X133586800Y-92974010D01*
X133567893Y-93032201D01*
X133518393Y-93068165D01*
X133457207Y-93068165D01*
X133417796Y-93044014D01*
X116093384Y-75719602D01*
X116065607Y-75665085D01*
X116075178Y-75604653D01*
X116111269Y-75565428D01*
X116246041Y-75481981D01*
X116396764Y-75344579D01*
X116519673Y-75181821D01*
X116610582Y-74999250D01*
X116666397Y-74803083D01*
X116685215Y-74600000D01*
X116666397Y-74396917D01*
X116610582Y-74200750D01*
X116519673Y-74018179D01*
X116396764Y-73855421D01*
X116246041Y-73718019D01*
X116072637Y-73610652D01*
X115882456Y-73536976D01*
X115882455Y-73536975D01*
X115882453Y-73536975D01*
X115681976Y-73499500D01*
X115478024Y-73499500D01*
X115277546Y-73536975D01*
X115207632Y-73564059D01*
X115087363Y-73610652D01*
X115002852Y-73662979D01*
X114913959Y-73718019D01*
X114763237Y-73855420D01*
X114640328Y-74018177D01*
X114640323Y-74018186D01*
X114562216Y-74175048D01*
X114549418Y-74200750D01*
X114493603Y-74396917D01*
X114474785Y-74600000D01*
X114145215Y-74600000D01*
X114126397Y-74396917D01*
X114070582Y-74200750D01*
X113979673Y-74018179D01*
X113856764Y-73855421D01*
X113706041Y-73718019D01*
X113532637Y-73610652D01*
X113342456Y-73536976D01*
X113342455Y-73536975D01*
X113342453Y-73536975D01*
X113141976Y-73499500D01*
X112938024Y-73499500D01*
X112737546Y-73536975D01*
X112667632Y-73564059D01*
X112547363Y-73610652D01*
X112462852Y-73662979D01*
X112373959Y-73718019D01*
X112223237Y-73855420D01*
X112100328Y-74018177D01*
X112100323Y-74018186D01*
X112022216Y-74175048D01*
X112009418Y-74200750D01*
X111953603Y-74396917D01*
X111934785Y-74600000D01*
X111000000Y-74600000D01*
X111000000Y-74528111D01*
X110962383Y-74400000D01*
X111599999Y-74400000D01*
X111600000Y-74399999D01*
X111600000Y-73725377D01*
X111599999Y-73725375D01*
X111585493Y-73652453D01*
X111585492Y-73652451D01*
X111530241Y-73569762D01*
X111530237Y-73569758D01*
X111447548Y-73514507D01*
X111447546Y-73514506D01*
X111374624Y-73500000D01*
X110700001Y-73500000D01*
X110700000Y-73500001D01*
X110700000Y-74141664D01*
X110642315Y-74115320D01*
X110535763Y-74100000D01*
X110464237Y-74100000D01*
X110357685Y-74115320D01*
X110300000Y-74141664D01*
X110300000Y-73500001D01*
X110299999Y-73500000D01*
X109625375Y-73500000D01*
X109552453Y-73514506D01*
X109552451Y-73514507D01*
X109469762Y-73569758D01*
X109469758Y-73569762D01*
X109414507Y-73652451D01*
X109414506Y-73652453D01*
X109400000Y-73725375D01*
X109400000Y-74399999D01*
X109400001Y-74400000D01*
X110037617Y-74400000D01*
X110000000Y-74528111D01*
X110000000Y-74671889D01*
X110037617Y-74800000D01*
X109400001Y-74800000D01*
X109400000Y-74800001D01*
X109400000Y-75474624D01*
X105118079Y-75474624D01*
X105238177Y-75381888D01*
X105426186Y-75186881D01*
X105583799Y-74966579D01*
X105707656Y-74725675D01*
X105795118Y-74469305D01*
X105844319Y-74202933D01*
X105854212Y-73932235D01*
X105824586Y-73662982D01*
X105756072Y-73400912D01*
X105650130Y-73151610D01*
X105509018Y-72920390D01*
X105335745Y-72712180D01*
X105230754Y-72618108D01*
X105134007Y-72531422D01*
X105134004Y-72531420D01*
X105134002Y-72531418D01*
X104984489Y-72432501D01*
X104908086Y-72381953D01*
X104662822Y-72266979D01*
X104403444Y-72188943D01*
X104403428Y-72188939D01*
X104135440Y-72149500D01*
X104135439Y-72149500D01*
X103932369Y-72149500D01*
X103729848Y-72164322D01*
X103465450Y-72223219D01*
X103212439Y-72319987D01*
X102976219Y-72452561D01*
X102761826Y-72618108D01*
X102573814Y-72813119D01*
X102416199Y-73033422D01*
X102292342Y-73274328D01*
X102204884Y-73530687D01*
X102204881Y-73530698D01*
X102155680Y-73797069D01*
X102145788Y-74067765D01*
X100300500Y-74067765D01*
X100300500Y-70399500D01*
X100319407Y-70341309D01*
X100368907Y-70305345D01*
X100399500Y-70300500D01*
X179600500Y-70300500D01*
X179658691Y-70319407D01*
G37*
G04 #@! TD.AperFunction*
M02*
