G04 #@! TF.GenerationSoftware,KiCad,Pcbnew,7.0.11+dfsg-1build4*
G04 #@! TF.CreationDate,2026-10-04T09:54:02+00:00*
G04 #@! TF.ProjectId,hushlog,68757368-6c6f-4672-9e6b-696361645f70,1.0*
G04 #@! TF.SameCoordinates,Original*
G04 #@! TF.FileFunction,Legend,Top*
G04 #@! TF.FilePolarity,Positive*
%FSLAX46Y46*%
G04 Gerber Fmt 4.6, Leading zero omitted, Abs format (unit mm)*
G04 Created by KiCad (PCBNEW 7.0.11+dfsg-1build4) date 2026-10-04 09:54:02*
%MOMM*%
%LPD*%
G01*
G04 APERTURE LIST*
G04 Aperture macros list*
%AMRoundRect*
0 Rectangle with rounded corners*
0 $1 Rounding radius*
0 $2 $3 $4 $5 $6 $7 $8 $9 X,Y pos of 4 corners*
0 Add a 4 corners polygon primitive as box body*
4,1,4,$2,$3,$4,$5,$6,$7,$8,$9,$2,$3,0*
0 Add four circle primitives for the rounded corners*
1,1,$1+$1,$2,$3*
1,1,$1+$1,$4,$5*
1,1,$1+$1,$6,$7*
1,1,$1+$1,$8,$9*
0 Add four rect primitives between the rounded corners*
20,1,$1+$1,$2,$3,$4,$5,0*
20,1,$1+$1,$4,$5,$6,$7,0*
20,1,$1+$1,$6,$7,$8,$9,0*
20,1,$1+$1,$8,$9,$2,$3,0*%
G04 Aperture macros list end*
%ADD10C,0.130000*%
%ADD11C,0.224999*%
%ADD12C,0.150000*%
%ADD13C,0.120000*%
%ADD14RoundRect,0.200000X-0.200000X-0.275000X0.200000X-0.275000X0.200000X0.275000X-0.200000X0.275000X0*%
%ADD15R,3.000000X3.000000*%
%ADD16C,3.000000*%
%ADD17RoundRect,0.225000X0.250000X-0.225000X0.250000X0.225000X-0.250000X0.225000X-0.250000X-0.225000X0*%
%ADD18RoundRect,0.243750X-0.243750X-0.456250X0.243750X-0.456250X0.243750X0.456250X-0.243750X0.456250X0*%
%ADD19R,0.700000X1.200000*%
%ADD20R,1.000000X0.800000*%
%ADD21R,1.000000X1.200000*%
%ADD22R,1.000000X2.800000*%
%ADD23R,1.300000X1.900000*%
%ADD24RoundRect,0.150000X-0.512500X-0.150000X0.512500X-0.150000X0.512500X0.150000X-0.512500X0.150000X0*%
%ADD25RoundRect,0.200000X0.275000X-0.200000X0.275000X0.200000X-0.275000X0.200000X-0.275000X-0.200000X0*%
%ADD26RoundRect,0.225000X-0.225000X-0.250000X0.225000X-0.250000X0.225000X0.250000X-0.225000X0.250000X0*%
%ADD27RoundRect,0.200000X0.200000X0.275000X-0.200000X0.275000X-0.200000X-0.275000X0.200000X-0.275000X0*%
%ADD28C,3.200000*%
%ADD29R,1.000000X0.750000*%
%ADD30C,0.650000*%
%ADD31R,1.450000X0.600000*%
%ADD32R,1.450000X0.300000*%
%ADD33O,2.100000X1.000000*%
%ADD34O,1.600000X1.000000*%
%ADD35R,1.700000X1.700000*%
%ADD36O,1.700000X1.700000*%
%ADD37RoundRect,0.225000X-0.250000X0.225000X-0.250000X-0.225000X0.250000X-0.225000X0.250000X0.225000X0*%
%ADD38RoundRect,0.150000X-0.650000X-0.150000X0.650000X-0.150000X0.650000X0.150000X-0.650000X0.150000X0*%
%ADD39RoundRect,0.250000X0.475000X-0.250000X0.475000X0.250000X-0.475000X0.250000X-0.475000X-0.250000X0*%
%ADD40RoundRect,0.050000X0.387500X0.050000X-0.387500X0.050000X-0.387500X-0.050000X0.387500X-0.050000X0*%
%ADD41RoundRect,0.050000X0.050000X0.387500X-0.050000X0.387500X-0.050000X-0.387500X0.050000X-0.387500X0*%
%ADD42R,3.200000X3.200000*%
%ADD43RoundRect,0.225000X0.225000X0.250000X-0.225000X0.250000X-0.225000X-0.250000X0.225000X-0.250000X0*%
%ADD44R,1.400000X1.200000*%
%ADD45RoundRect,0.250000X0.250000X0.475000X-0.250000X0.475000X-0.250000X-0.475000X0.250000X-0.475000X0*%
%ADD46RoundRect,0.100000X0.100000X-0.637500X0.100000X0.637500X-0.100000X0.637500X-0.100000X-0.637500X0*%
G04 APERTURE END LIST*
D10*
X111973333Y-71663335D02*
X112240000Y-72463335D01*
X112240000Y-72463335D02*
X112506666Y-71663335D01*
X113230476Y-72387144D02*
X113192380Y-72425240D01*
X113192380Y-72425240D02*
X113078095Y-72463335D01*
X113078095Y-72463335D02*
X113001904Y-72463335D01*
X113001904Y-72463335D02*
X112887618Y-72425240D01*
X112887618Y-72425240D02*
X112811428Y-72349049D01*
X112811428Y-72349049D02*
X112773333Y-72272859D01*
X112773333Y-72272859D02*
X112735237Y-72120478D01*
X112735237Y-72120478D02*
X112735237Y-72006192D01*
X112735237Y-72006192D02*
X112773333Y-71853811D01*
X112773333Y-71853811D02*
X112811428Y-71777620D01*
X112811428Y-71777620D02*
X112887618Y-71701430D01*
X112887618Y-71701430D02*
X113001904Y-71663335D01*
X113001904Y-71663335D02*
X113078095Y-71663335D01*
X113078095Y-71663335D02*
X113192380Y-71701430D01*
X113192380Y-71701430D02*
X113230476Y-71739525D01*
X114030476Y-72387144D02*
X113992380Y-72425240D01*
X113992380Y-72425240D02*
X113878095Y-72463335D01*
X113878095Y-72463335D02*
X113801904Y-72463335D01*
X113801904Y-72463335D02*
X113687618Y-72425240D01*
X113687618Y-72425240D02*
X113611428Y-72349049D01*
X113611428Y-72349049D02*
X113573333Y-72272859D01*
X113573333Y-72272859D02*
X113535237Y-72120478D01*
X113535237Y-72120478D02*
X113535237Y-72006192D01*
X113535237Y-72006192D02*
X113573333Y-71853811D01*
X113573333Y-71853811D02*
X113611428Y-71777620D01*
X113611428Y-71777620D02*
X113687618Y-71701430D01*
X113687618Y-71701430D02*
X113801904Y-71663335D01*
X113801904Y-71663335D02*
X113878095Y-71663335D01*
X113878095Y-71663335D02*
X113992380Y-71701430D01*
X113992380Y-71701430D02*
X114030476Y-71739525D01*
X141930476Y-123863335D02*
X142387619Y-123863335D01*
X142159047Y-124663335D02*
X142159047Y-123863335D01*
X142578095Y-123863335D02*
X143111429Y-124663335D01*
X143111429Y-123863335D02*
X142578095Y-124663335D01*
D11*
X152714285Y-127282228D02*
X152714285Y-125782228D01*
X152714285Y-126496514D02*
X153571428Y-126496514D01*
X153571428Y-127282228D02*
X153571428Y-125782228D01*
X154285714Y-125782228D02*
X154285714Y-126996514D01*
X154285714Y-126996514D02*
X154357143Y-127139371D01*
X154357143Y-127139371D02*
X154428572Y-127210800D01*
X154428572Y-127210800D02*
X154571429Y-127282228D01*
X154571429Y-127282228D02*
X154857143Y-127282228D01*
X154857143Y-127282228D02*
X155000000Y-127210800D01*
X155000000Y-127210800D02*
X155071429Y-127139371D01*
X155071429Y-127139371D02*
X155142857Y-126996514D01*
X155142857Y-126996514D02*
X155142857Y-125782228D01*
X155785715Y-127210800D02*
X156000001Y-127282228D01*
X156000001Y-127282228D02*
X156357143Y-127282228D01*
X156357143Y-127282228D02*
X156500001Y-127210800D01*
X156500001Y-127210800D02*
X156571429Y-127139371D01*
X156571429Y-127139371D02*
X156642858Y-126996514D01*
X156642858Y-126996514D02*
X156642858Y-126853657D01*
X156642858Y-126853657D02*
X156571429Y-126710800D01*
X156571429Y-126710800D02*
X156500001Y-126639371D01*
X156500001Y-126639371D02*
X156357143Y-126567942D01*
X156357143Y-126567942D02*
X156071429Y-126496514D01*
X156071429Y-126496514D02*
X155928572Y-126425085D01*
X155928572Y-126425085D02*
X155857143Y-126353657D01*
X155857143Y-126353657D02*
X155785715Y-126210800D01*
X155785715Y-126210800D02*
X155785715Y-126067942D01*
X155785715Y-126067942D02*
X155857143Y-125925085D01*
X155857143Y-125925085D02*
X155928572Y-125853657D01*
X155928572Y-125853657D02*
X156071429Y-125782228D01*
X156071429Y-125782228D02*
X156428572Y-125782228D01*
X156428572Y-125782228D02*
X156642858Y-125853657D01*
X157285714Y-127282228D02*
X157285714Y-125782228D01*
X157285714Y-126496514D02*
X158142857Y-126496514D01*
X158142857Y-127282228D02*
X158142857Y-125782228D01*
X159571429Y-127282228D02*
X158857143Y-127282228D01*
X158857143Y-127282228D02*
X158857143Y-125782228D01*
X160357144Y-125782228D02*
X160642858Y-125782228D01*
X160642858Y-125782228D02*
X160785715Y-125853657D01*
X160785715Y-125853657D02*
X160928572Y-125996514D01*
X160928572Y-125996514D02*
X161000001Y-126282228D01*
X161000001Y-126282228D02*
X161000001Y-126782228D01*
X161000001Y-126782228D02*
X160928572Y-127067942D01*
X160928572Y-127067942D02*
X160785715Y-127210800D01*
X160785715Y-127210800D02*
X160642858Y-127282228D01*
X160642858Y-127282228D02*
X160357144Y-127282228D01*
X160357144Y-127282228D02*
X160214287Y-127210800D01*
X160214287Y-127210800D02*
X160071429Y-127067942D01*
X160071429Y-127067942D02*
X160000001Y-126782228D01*
X160000001Y-126782228D02*
X160000001Y-126282228D01*
X160000001Y-126282228D02*
X160071429Y-125996514D01*
X160071429Y-125996514D02*
X160214287Y-125853657D01*
X160214287Y-125853657D02*
X160357144Y-125782228D01*
X162428573Y-125853657D02*
X162285716Y-125782228D01*
X162285716Y-125782228D02*
X162071430Y-125782228D01*
X162071430Y-125782228D02*
X161857144Y-125853657D01*
X161857144Y-125853657D02*
X161714287Y-125996514D01*
X161714287Y-125996514D02*
X161642858Y-126139371D01*
X161642858Y-126139371D02*
X161571430Y-126425085D01*
X161571430Y-126425085D02*
X161571430Y-126639371D01*
X161571430Y-126639371D02*
X161642858Y-126925085D01*
X161642858Y-126925085D02*
X161714287Y-127067942D01*
X161714287Y-127067942D02*
X161857144Y-127210800D01*
X161857144Y-127210800D02*
X162071430Y-127282228D01*
X162071430Y-127282228D02*
X162214287Y-127282228D01*
X162214287Y-127282228D02*
X162428573Y-127210800D01*
X162428573Y-127210800D02*
X162500001Y-127139371D01*
X162500001Y-127139371D02*
X162500001Y-126639371D01*
X162500001Y-126639371D02*
X162214287Y-126639371D01*
X164142858Y-126282228D02*
X164500001Y-127282228D01*
X164500001Y-127282228D02*
X164857144Y-126282228D01*
X166214287Y-127282228D02*
X165357144Y-127282228D01*
X165785715Y-127282228D02*
X165785715Y-125782228D01*
X165785715Y-125782228D02*
X165642858Y-125996514D01*
X165642858Y-125996514D02*
X165500001Y-126139371D01*
X165500001Y-126139371D02*
X165357144Y-126210800D01*
X166857143Y-127139371D02*
X166928572Y-127210800D01*
X166928572Y-127210800D02*
X166857143Y-127282228D01*
X166857143Y-127282228D02*
X166785715Y-127210800D01*
X166785715Y-127210800D02*
X166857143Y-127139371D01*
X166857143Y-127139371D02*
X166857143Y-127282228D01*
X167857144Y-125782228D02*
X168000001Y-125782228D01*
X168000001Y-125782228D02*
X168142858Y-125853657D01*
X168142858Y-125853657D02*
X168214287Y-125925085D01*
X168214287Y-125925085D02*
X168285715Y-126067942D01*
X168285715Y-126067942D02*
X168357144Y-126353657D01*
X168357144Y-126353657D02*
X168357144Y-126710800D01*
X168357144Y-126710800D02*
X168285715Y-126996514D01*
X168285715Y-126996514D02*
X168214287Y-127139371D01*
X168214287Y-127139371D02*
X168142858Y-127210800D01*
X168142858Y-127210800D02*
X168000001Y-127282228D01*
X168000001Y-127282228D02*
X167857144Y-127282228D01*
X167857144Y-127282228D02*
X167714287Y-127210800D01*
X167714287Y-127210800D02*
X167642858Y-127139371D01*
X167642858Y-127139371D02*
X167571429Y-126996514D01*
X167571429Y-126996514D02*
X167500001Y-126710800D01*
X167500001Y-126710800D02*
X167500001Y-126353657D01*
X167500001Y-126353657D02*
X167571429Y-126067942D01*
X167571429Y-126067942D02*
X167642858Y-125925085D01*
X167642858Y-125925085D02*
X167714287Y-125853657D01*
X167714287Y-125853657D02*
X167857144Y-125782228D01*
D10*
X144946667Y-124663335D02*
X144680000Y-124282382D01*
X144489524Y-124663335D02*
X144489524Y-123863335D01*
X144489524Y-123863335D02*
X144794286Y-123863335D01*
X144794286Y-123863335D02*
X144870476Y-123901430D01*
X144870476Y-123901430D02*
X144908571Y-123939525D01*
X144908571Y-123939525D02*
X144946667Y-124015716D01*
X144946667Y-124015716D02*
X144946667Y-124130001D01*
X144946667Y-124130001D02*
X144908571Y-124206192D01*
X144908571Y-124206192D02*
X144870476Y-124244287D01*
X144870476Y-124244287D02*
X144794286Y-124282382D01*
X144794286Y-124282382D02*
X144489524Y-124282382D01*
X145213333Y-123863335D02*
X145746667Y-124663335D01*
X145746667Y-123863335D02*
X145213333Y-124663335D01*
X105380953Y-87443335D02*
X105380953Y-86643335D01*
X105380953Y-86643335D02*
X105571429Y-86643335D01*
X105571429Y-86643335D02*
X105685715Y-86681430D01*
X105685715Y-86681430D02*
X105761905Y-86757620D01*
X105761905Y-86757620D02*
X105800000Y-86833811D01*
X105800000Y-86833811D02*
X105838096Y-86986192D01*
X105838096Y-86986192D02*
X105838096Y-87100478D01*
X105838096Y-87100478D02*
X105800000Y-87252859D01*
X105800000Y-87252859D02*
X105761905Y-87329049D01*
X105761905Y-87329049D02*
X105685715Y-87405240D01*
X105685715Y-87405240D02*
X105571429Y-87443335D01*
X105571429Y-87443335D02*
X105380953Y-87443335D01*
X106180953Y-87443335D02*
X106180953Y-86643335D01*
X106714286Y-86643335D02*
X106866667Y-86643335D01*
X106866667Y-86643335D02*
X106942857Y-86681430D01*
X106942857Y-86681430D02*
X107019048Y-86757620D01*
X107019048Y-86757620D02*
X107057143Y-86910001D01*
X107057143Y-86910001D02*
X107057143Y-87176668D01*
X107057143Y-87176668D02*
X107019048Y-87329049D01*
X107019048Y-87329049D02*
X106942857Y-87405240D01*
X106942857Y-87405240D02*
X106866667Y-87443335D01*
X106866667Y-87443335D02*
X106714286Y-87443335D01*
X106714286Y-87443335D02*
X106638095Y-87405240D01*
X106638095Y-87405240D02*
X106561905Y-87329049D01*
X106561905Y-87329049D02*
X106523809Y-87176668D01*
X106523809Y-87176668D02*
X106523809Y-86910001D01*
X106523809Y-86910001D02*
X106561905Y-86757620D01*
X106561905Y-86757620D02*
X106638095Y-86681430D01*
X106638095Y-86681430D02*
X106714286Y-86643335D01*
X127914285Y-121719287D02*
X128028571Y-121757382D01*
X128028571Y-121757382D02*
X128066666Y-121795478D01*
X128066666Y-121795478D02*
X128104762Y-121871668D01*
X128104762Y-121871668D02*
X128104762Y-121985954D01*
X128104762Y-121985954D02*
X128066666Y-122062144D01*
X128066666Y-122062144D02*
X128028571Y-122100240D01*
X128028571Y-122100240D02*
X127952381Y-122138335D01*
X127952381Y-122138335D02*
X127647619Y-122138335D01*
X127647619Y-122138335D02*
X127647619Y-121338335D01*
X127647619Y-121338335D02*
X127914285Y-121338335D01*
X127914285Y-121338335D02*
X127990476Y-121376430D01*
X127990476Y-121376430D02*
X128028571Y-121414525D01*
X128028571Y-121414525D02*
X128066666Y-121490716D01*
X128066666Y-121490716D02*
X128066666Y-121566906D01*
X128066666Y-121566906D02*
X128028571Y-121643097D01*
X128028571Y-121643097D02*
X127990476Y-121681192D01*
X127990476Y-121681192D02*
X127914285Y-121719287D01*
X127914285Y-121719287D02*
X127647619Y-121719287D01*
X128600000Y-121338335D02*
X128752381Y-121338335D01*
X128752381Y-121338335D02*
X128828571Y-121376430D01*
X128828571Y-121376430D02*
X128904762Y-121452620D01*
X128904762Y-121452620D02*
X128942857Y-121605001D01*
X128942857Y-121605001D02*
X128942857Y-121871668D01*
X128942857Y-121871668D02*
X128904762Y-122024049D01*
X128904762Y-122024049D02*
X128828571Y-122100240D01*
X128828571Y-122100240D02*
X128752381Y-122138335D01*
X128752381Y-122138335D02*
X128600000Y-122138335D01*
X128600000Y-122138335D02*
X128523809Y-122100240D01*
X128523809Y-122100240D02*
X128447619Y-122024049D01*
X128447619Y-122024049D02*
X128409523Y-121871668D01*
X128409523Y-121871668D02*
X128409523Y-121605001D01*
X128409523Y-121605001D02*
X128447619Y-121452620D01*
X128447619Y-121452620D02*
X128523809Y-121376430D01*
X128523809Y-121376430D02*
X128600000Y-121338335D01*
X129438095Y-121338335D02*
X129590476Y-121338335D01*
X129590476Y-121338335D02*
X129666666Y-121376430D01*
X129666666Y-121376430D02*
X129742857Y-121452620D01*
X129742857Y-121452620D02*
X129780952Y-121605001D01*
X129780952Y-121605001D02*
X129780952Y-121871668D01*
X129780952Y-121871668D02*
X129742857Y-122024049D01*
X129742857Y-122024049D02*
X129666666Y-122100240D01*
X129666666Y-122100240D02*
X129590476Y-122138335D01*
X129590476Y-122138335D02*
X129438095Y-122138335D01*
X129438095Y-122138335D02*
X129361904Y-122100240D01*
X129361904Y-122100240D02*
X129285714Y-122024049D01*
X129285714Y-122024049D02*
X129247618Y-121871668D01*
X129247618Y-121871668D02*
X129247618Y-121605001D01*
X129247618Y-121605001D02*
X129285714Y-121452620D01*
X129285714Y-121452620D02*
X129361904Y-121376430D01*
X129361904Y-121376430D02*
X129438095Y-121338335D01*
X130009523Y-121338335D02*
X130466666Y-121338335D01*
X130238094Y-122138335D02*
X130238094Y-121338335D01*
X153738093Y-128239525D02*
X153776189Y-128201430D01*
X153776189Y-128201430D02*
X153852379Y-128163335D01*
X153852379Y-128163335D02*
X154042855Y-128163335D01*
X154042855Y-128163335D02*
X154119046Y-128201430D01*
X154119046Y-128201430D02*
X154157141Y-128239525D01*
X154157141Y-128239525D02*
X154195236Y-128315716D01*
X154195236Y-128315716D02*
X154195236Y-128391906D01*
X154195236Y-128391906D02*
X154157141Y-128506192D01*
X154157141Y-128506192D02*
X153699998Y-128963335D01*
X153699998Y-128963335D02*
X154195236Y-128963335D01*
X154880951Y-128430001D02*
X154880951Y-128963335D01*
X154690475Y-128125240D02*
X154499998Y-128696668D01*
X154499998Y-128696668D02*
X154995237Y-128696668D01*
X155299999Y-128658573D02*
X155909523Y-128658573D01*
X156290475Y-128963335D02*
X156290475Y-128163335D01*
X156290475Y-128468097D02*
X156366665Y-128430001D01*
X156366665Y-128430001D02*
X156519046Y-128430001D01*
X156519046Y-128430001D02*
X156595237Y-128468097D01*
X156595237Y-128468097D02*
X156633332Y-128506192D01*
X156633332Y-128506192D02*
X156671427Y-128582382D01*
X156671427Y-128582382D02*
X156671427Y-128810954D01*
X156671427Y-128810954D02*
X156633332Y-128887144D01*
X156633332Y-128887144D02*
X156595237Y-128925240D01*
X156595237Y-128925240D02*
X156519046Y-128963335D01*
X156519046Y-128963335D02*
X156366665Y-128963335D01*
X156366665Y-128963335D02*
X156290475Y-128925240D01*
X157014285Y-128963335D02*
X157014285Y-128430001D01*
X157014285Y-128163335D02*
X156976189Y-128201430D01*
X156976189Y-128201430D02*
X157014285Y-128239525D01*
X157014285Y-128239525D02*
X157052380Y-128201430D01*
X157052380Y-128201430D02*
X157014285Y-128163335D01*
X157014285Y-128163335D02*
X157014285Y-128239525D01*
X157280951Y-128430001D02*
X157585713Y-128430001D01*
X157395237Y-128163335D02*
X157395237Y-128849049D01*
X157395237Y-128849049D02*
X157433332Y-128925240D01*
X157433332Y-128925240D02*
X157509522Y-128963335D01*
X157509522Y-128963335D02*
X157585713Y-128963335D01*
X158804761Y-128430001D02*
X158804761Y-128963335D01*
X158614285Y-128125240D02*
X158423808Y-128696668D01*
X158423808Y-128696668D02*
X158919047Y-128696668D01*
X159223809Y-128658573D02*
X159833333Y-128658573D01*
X160214285Y-128963335D02*
X160214285Y-128430001D01*
X160214285Y-128163335D02*
X160176189Y-128201430D01*
X160176189Y-128201430D02*
X160214285Y-128239525D01*
X160214285Y-128239525D02*
X160252380Y-128201430D01*
X160252380Y-128201430D02*
X160214285Y-128163335D01*
X160214285Y-128163335D02*
X160214285Y-128239525D01*
X160595237Y-128430001D02*
X160595237Y-128963335D01*
X160595237Y-128506192D02*
X160633332Y-128468097D01*
X160633332Y-128468097D02*
X160709522Y-128430001D01*
X160709522Y-128430001D02*
X160823808Y-128430001D01*
X160823808Y-128430001D02*
X160899999Y-128468097D01*
X160899999Y-128468097D02*
X160938094Y-128544287D01*
X160938094Y-128544287D02*
X160938094Y-128963335D01*
X161319047Y-128430001D02*
X161319047Y-129230001D01*
X161319047Y-128468097D02*
X161395237Y-128430001D01*
X161395237Y-128430001D02*
X161547618Y-128430001D01*
X161547618Y-128430001D02*
X161623809Y-128468097D01*
X161623809Y-128468097D02*
X161661904Y-128506192D01*
X161661904Y-128506192D02*
X161699999Y-128582382D01*
X161699999Y-128582382D02*
X161699999Y-128810954D01*
X161699999Y-128810954D02*
X161661904Y-128887144D01*
X161661904Y-128887144D02*
X161623809Y-128925240D01*
X161623809Y-128925240D02*
X161547618Y-128963335D01*
X161547618Y-128963335D02*
X161395237Y-128963335D01*
X161395237Y-128963335D02*
X161319047Y-128925240D01*
X162385714Y-128430001D02*
X162385714Y-128963335D01*
X162042857Y-128430001D02*
X162042857Y-128849049D01*
X162042857Y-128849049D02*
X162080952Y-128925240D01*
X162080952Y-128925240D02*
X162157142Y-128963335D01*
X162157142Y-128963335D02*
X162271428Y-128963335D01*
X162271428Y-128963335D02*
X162347619Y-128925240D01*
X162347619Y-128925240D02*
X162385714Y-128887144D01*
X162652381Y-128430001D02*
X162957143Y-128430001D01*
X162766667Y-128163335D02*
X162766667Y-128849049D01*
X162766667Y-128849049D02*
X162804762Y-128925240D01*
X162804762Y-128925240D02*
X162880952Y-128963335D01*
X162880952Y-128963335D02*
X162957143Y-128963335D01*
X163947619Y-128963335D02*
X163871429Y-128925240D01*
X163871429Y-128925240D02*
X163833334Y-128849049D01*
X163833334Y-128849049D02*
X163833334Y-128163335D01*
X164366667Y-128963335D02*
X164290477Y-128925240D01*
X164290477Y-128925240D02*
X164252382Y-128887144D01*
X164252382Y-128887144D02*
X164214286Y-128810954D01*
X164214286Y-128810954D02*
X164214286Y-128582382D01*
X164214286Y-128582382D02*
X164252382Y-128506192D01*
X164252382Y-128506192D02*
X164290477Y-128468097D01*
X164290477Y-128468097D02*
X164366667Y-128430001D01*
X164366667Y-128430001D02*
X164480953Y-128430001D01*
X164480953Y-128430001D02*
X164557144Y-128468097D01*
X164557144Y-128468097D02*
X164595239Y-128506192D01*
X164595239Y-128506192D02*
X164633334Y-128582382D01*
X164633334Y-128582382D02*
X164633334Y-128810954D01*
X164633334Y-128810954D02*
X164595239Y-128887144D01*
X164595239Y-128887144D02*
X164557144Y-128925240D01*
X164557144Y-128925240D02*
X164480953Y-128963335D01*
X164480953Y-128963335D02*
X164366667Y-128963335D01*
X165319049Y-128430001D02*
X165319049Y-129077620D01*
X165319049Y-129077620D02*
X165280954Y-129153811D01*
X165280954Y-129153811D02*
X165242858Y-129191906D01*
X165242858Y-129191906D02*
X165166668Y-129230001D01*
X165166668Y-129230001D02*
X165052382Y-129230001D01*
X165052382Y-129230001D02*
X164976192Y-129191906D01*
X165319049Y-128925240D02*
X165242858Y-128963335D01*
X165242858Y-128963335D02*
X165090477Y-128963335D01*
X165090477Y-128963335D02*
X165014287Y-128925240D01*
X165014287Y-128925240D02*
X164976192Y-128887144D01*
X164976192Y-128887144D02*
X164938096Y-128810954D01*
X164938096Y-128810954D02*
X164938096Y-128582382D01*
X164938096Y-128582382D02*
X164976192Y-128506192D01*
X164976192Y-128506192D02*
X165014287Y-128468097D01*
X165014287Y-128468097D02*
X165090477Y-128430001D01*
X165090477Y-128430001D02*
X165242858Y-128430001D01*
X165242858Y-128430001D02*
X165319049Y-128468097D01*
X166042859Y-128430001D02*
X166042859Y-129077620D01*
X166042859Y-129077620D02*
X166004764Y-129153811D01*
X166004764Y-129153811D02*
X165966668Y-129191906D01*
X165966668Y-129191906D02*
X165890478Y-129230001D01*
X165890478Y-129230001D02*
X165776192Y-129230001D01*
X165776192Y-129230001D02*
X165700002Y-129191906D01*
X166042859Y-128925240D02*
X165966668Y-128963335D01*
X165966668Y-128963335D02*
X165814287Y-128963335D01*
X165814287Y-128963335D02*
X165738097Y-128925240D01*
X165738097Y-128925240D02*
X165700002Y-128887144D01*
X165700002Y-128887144D02*
X165661906Y-128810954D01*
X165661906Y-128810954D02*
X165661906Y-128582382D01*
X165661906Y-128582382D02*
X165700002Y-128506192D01*
X165700002Y-128506192D02*
X165738097Y-128468097D01*
X165738097Y-128468097D02*
X165814287Y-128430001D01*
X165814287Y-128430001D02*
X165966668Y-128430001D01*
X165966668Y-128430001D02*
X166042859Y-128468097D01*
X166728574Y-128925240D02*
X166652383Y-128963335D01*
X166652383Y-128963335D02*
X166500002Y-128963335D01*
X166500002Y-128963335D02*
X166423812Y-128925240D01*
X166423812Y-128925240D02*
X166385716Y-128849049D01*
X166385716Y-128849049D02*
X166385716Y-128544287D01*
X166385716Y-128544287D02*
X166423812Y-128468097D01*
X166423812Y-128468097D02*
X166500002Y-128430001D01*
X166500002Y-128430001D02*
X166652383Y-128430001D01*
X166652383Y-128430001D02*
X166728574Y-128468097D01*
X166728574Y-128468097D02*
X166766669Y-128544287D01*
X166766669Y-128544287D02*
X166766669Y-128620478D01*
X166766669Y-128620478D02*
X166385716Y-128696668D01*
X167109526Y-128963335D02*
X167109526Y-128430001D01*
X167109526Y-128582382D02*
X167147621Y-128506192D01*
X167147621Y-128506192D02*
X167185716Y-128468097D01*
X167185716Y-128468097D02*
X167261907Y-128430001D01*
X167261907Y-128430001D02*
X167338097Y-128430001D01*
X109890476Y-71701430D02*
X109814286Y-71663335D01*
X109814286Y-71663335D02*
X109700000Y-71663335D01*
X109700000Y-71663335D02*
X109585714Y-71701430D01*
X109585714Y-71701430D02*
X109509524Y-71777620D01*
X109509524Y-71777620D02*
X109471429Y-71853811D01*
X109471429Y-71853811D02*
X109433333Y-72006192D01*
X109433333Y-72006192D02*
X109433333Y-72120478D01*
X109433333Y-72120478D02*
X109471429Y-72272859D01*
X109471429Y-72272859D02*
X109509524Y-72349049D01*
X109509524Y-72349049D02*
X109585714Y-72425240D01*
X109585714Y-72425240D02*
X109700000Y-72463335D01*
X109700000Y-72463335D02*
X109776191Y-72463335D01*
X109776191Y-72463335D02*
X109890476Y-72425240D01*
X109890476Y-72425240D02*
X109928572Y-72387144D01*
X109928572Y-72387144D02*
X109928572Y-72120478D01*
X109928572Y-72120478D02*
X109776191Y-72120478D01*
X110271429Y-72463335D02*
X110271429Y-71663335D01*
X110271429Y-71663335D02*
X110728572Y-72463335D01*
X110728572Y-72463335D02*
X110728572Y-71663335D01*
X111109524Y-72463335D02*
X111109524Y-71663335D01*
X111109524Y-71663335D02*
X111300000Y-71663335D01*
X111300000Y-71663335D02*
X111414286Y-71701430D01*
X111414286Y-71701430D02*
X111490476Y-71777620D01*
X111490476Y-71777620D02*
X111528571Y-71853811D01*
X111528571Y-71853811D02*
X111566667Y-72006192D01*
X111566667Y-72006192D02*
X111566667Y-72120478D01*
X111566667Y-72120478D02*
X111528571Y-72272859D01*
X111528571Y-72272859D02*
X111490476Y-72349049D01*
X111490476Y-72349049D02*
X111414286Y-72425240D01*
X111414286Y-72425240D02*
X111300000Y-72463335D01*
X111300000Y-72463335D02*
X111109524Y-72463335D01*
X114627618Y-72425240D02*
X114741904Y-72463335D01*
X114741904Y-72463335D02*
X114932380Y-72463335D01*
X114932380Y-72463335D02*
X115008571Y-72425240D01*
X115008571Y-72425240D02*
X115046666Y-72387144D01*
X115046666Y-72387144D02*
X115084761Y-72310954D01*
X115084761Y-72310954D02*
X115084761Y-72234763D01*
X115084761Y-72234763D02*
X115046666Y-72158573D01*
X115046666Y-72158573D02*
X115008571Y-72120478D01*
X115008571Y-72120478D02*
X114932380Y-72082382D01*
X114932380Y-72082382D02*
X114779999Y-72044287D01*
X114779999Y-72044287D02*
X114703809Y-72006192D01*
X114703809Y-72006192D02*
X114665714Y-71968097D01*
X114665714Y-71968097D02*
X114627618Y-71891906D01*
X114627618Y-71891906D02*
X114627618Y-71815716D01*
X114627618Y-71815716D02*
X114665714Y-71739525D01*
X114665714Y-71739525D02*
X114703809Y-71701430D01*
X114703809Y-71701430D02*
X114779999Y-71663335D01*
X114779999Y-71663335D02*
X114970476Y-71663335D01*
X114970476Y-71663335D02*
X115084761Y-71701430D01*
X115884762Y-72387144D02*
X115846666Y-72425240D01*
X115846666Y-72425240D02*
X115732381Y-72463335D01*
X115732381Y-72463335D02*
X115656190Y-72463335D01*
X115656190Y-72463335D02*
X115541904Y-72425240D01*
X115541904Y-72425240D02*
X115465714Y-72349049D01*
X115465714Y-72349049D02*
X115427619Y-72272859D01*
X115427619Y-72272859D02*
X115389523Y-72120478D01*
X115389523Y-72120478D02*
X115389523Y-72006192D01*
X115389523Y-72006192D02*
X115427619Y-71853811D01*
X115427619Y-71853811D02*
X115465714Y-71777620D01*
X115465714Y-71777620D02*
X115541904Y-71701430D01*
X115541904Y-71701430D02*
X115656190Y-71663335D01*
X115656190Y-71663335D02*
X115732381Y-71663335D01*
X115732381Y-71663335D02*
X115846666Y-71701430D01*
X115846666Y-71701430D02*
X115884762Y-71739525D01*
X116608571Y-72463335D02*
X116227619Y-72463335D01*
X116227619Y-72463335D02*
X116227619Y-71663335D01*
X105723810Y-82287144D02*
X105685714Y-82325240D01*
X105685714Y-82325240D02*
X105571429Y-82363335D01*
X105571429Y-82363335D02*
X105495238Y-82363335D01*
X105495238Y-82363335D02*
X105380952Y-82325240D01*
X105380952Y-82325240D02*
X105304762Y-82249049D01*
X105304762Y-82249049D02*
X105266667Y-82172859D01*
X105266667Y-82172859D02*
X105228571Y-82020478D01*
X105228571Y-82020478D02*
X105228571Y-81906192D01*
X105228571Y-81906192D02*
X105266667Y-81753811D01*
X105266667Y-81753811D02*
X105304762Y-81677620D01*
X105304762Y-81677620D02*
X105380952Y-81601430D01*
X105380952Y-81601430D02*
X105495238Y-81563335D01*
X105495238Y-81563335D02*
X105571429Y-81563335D01*
X105571429Y-81563335D02*
X105685714Y-81601430D01*
X105685714Y-81601430D02*
X105723810Y-81639525D01*
X106447619Y-82363335D02*
X106066667Y-82363335D01*
X106066667Y-82363335D02*
X106066667Y-81563335D01*
X106714286Y-82363335D02*
X106714286Y-81563335D01*
X107171429Y-82363335D02*
X106828571Y-81906192D01*
X107171429Y-81563335D02*
X106714286Y-82020478D01*
X139390476Y-123901430D02*
X139314286Y-123863335D01*
X139314286Y-123863335D02*
X139200000Y-123863335D01*
X139200000Y-123863335D02*
X139085714Y-123901430D01*
X139085714Y-123901430D02*
X139009524Y-123977620D01*
X139009524Y-123977620D02*
X138971429Y-124053811D01*
X138971429Y-124053811D02*
X138933333Y-124206192D01*
X138933333Y-124206192D02*
X138933333Y-124320478D01*
X138933333Y-124320478D02*
X138971429Y-124472859D01*
X138971429Y-124472859D02*
X139009524Y-124549049D01*
X139009524Y-124549049D02*
X139085714Y-124625240D01*
X139085714Y-124625240D02*
X139200000Y-124663335D01*
X139200000Y-124663335D02*
X139276191Y-124663335D01*
X139276191Y-124663335D02*
X139390476Y-124625240D01*
X139390476Y-124625240D02*
X139428572Y-124587144D01*
X139428572Y-124587144D02*
X139428572Y-124320478D01*
X139428572Y-124320478D02*
X139276191Y-124320478D01*
X139771429Y-124663335D02*
X139771429Y-123863335D01*
X139771429Y-123863335D02*
X140228572Y-124663335D01*
X140228572Y-124663335D02*
X140228572Y-123863335D01*
X140609524Y-124663335D02*
X140609524Y-123863335D01*
X140609524Y-123863335D02*
X140800000Y-123863335D01*
X140800000Y-123863335D02*
X140914286Y-123901430D01*
X140914286Y-123901430D02*
X140990476Y-123977620D01*
X140990476Y-123977620D02*
X141028571Y-124053811D01*
X141028571Y-124053811D02*
X141066667Y-124206192D01*
X141066667Y-124206192D02*
X141066667Y-124320478D01*
X141066667Y-124320478D02*
X141028571Y-124472859D01*
X141028571Y-124472859D02*
X140990476Y-124549049D01*
X140990476Y-124549049D02*
X140914286Y-124625240D01*
X140914286Y-124625240D02*
X140800000Y-124663335D01*
X140800000Y-124663335D02*
X140609524Y-124663335D01*
X178326430Y-100609522D02*
X178288335Y-100685712D01*
X178288335Y-100685712D02*
X178288335Y-100799998D01*
X178288335Y-100799998D02*
X178326430Y-100914284D01*
X178326430Y-100914284D02*
X178402620Y-100990474D01*
X178402620Y-100990474D02*
X178478811Y-101028569D01*
X178478811Y-101028569D02*
X178631192Y-101066665D01*
X178631192Y-101066665D02*
X178745478Y-101066665D01*
X178745478Y-101066665D02*
X178897859Y-101028569D01*
X178897859Y-101028569D02*
X178974049Y-100990474D01*
X178974049Y-100990474D02*
X179050240Y-100914284D01*
X179050240Y-100914284D02*
X179088335Y-100799998D01*
X179088335Y-100799998D02*
X179088335Y-100723807D01*
X179088335Y-100723807D02*
X179050240Y-100609522D01*
X179050240Y-100609522D02*
X179012144Y-100571426D01*
X179012144Y-100571426D02*
X178745478Y-100571426D01*
X178745478Y-100571426D02*
X178745478Y-100723807D01*
X179088335Y-100228569D02*
X178288335Y-100228569D01*
X178288335Y-100228569D02*
X179088335Y-99771426D01*
X179088335Y-99771426D02*
X178288335Y-99771426D01*
X179088335Y-99390474D02*
X178288335Y-99390474D01*
X178288335Y-99390474D02*
X178288335Y-99199998D01*
X178288335Y-99199998D02*
X178326430Y-99085712D01*
X178326430Y-99085712D02*
X178402620Y-99009522D01*
X178402620Y-99009522D02*
X178478811Y-98971427D01*
X178478811Y-98971427D02*
X178631192Y-98933331D01*
X178631192Y-98933331D02*
X178745478Y-98933331D01*
X178745478Y-98933331D02*
X178897859Y-98971427D01*
X178897859Y-98971427D02*
X178974049Y-99009522D01*
X178974049Y-99009522D02*
X179050240Y-99085712D01*
X179050240Y-99085712D02*
X179088335Y-99199998D01*
X179088335Y-99199998D02*
X179088335Y-99390474D01*
X178669287Y-112898094D02*
X178707382Y-112783808D01*
X178707382Y-112783808D02*
X178745478Y-112745713D01*
X178745478Y-112745713D02*
X178821668Y-112707617D01*
X178821668Y-112707617D02*
X178935954Y-112707617D01*
X178935954Y-112707617D02*
X179012144Y-112745713D01*
X179012144Y-112745713D02*
X179050240Y-112783808D01*
X179050240Y-112783808D02*
X179088335Y-112859998D01*
X179088335Y-112859998D02*
X179088335Y-113164760D01*
X179088335Y-113164760D02*
X178288335Y-113164760D01*
X178288335Y-113164760D02*
X178288335Y-112898094D01*
X178288335Y-112898094D02*
X178326430Y-112821903D01*
X178326430Y-112821903D02*
X178364525Y-112783808D01*
X178364525Y-112783808D02*
X178440716Y-112745713D01*
X178440716Y-112745713D02*
X178516906Y-112745713D01*
X178516906Y-112745713D02*
X178593097Y-112783808D01*
X178593097Y-112783808D02*
X178631192Y-112821903D01*
X178631192Y-112821903D02*
X178669287Y-112898094D01*
X178669287Y-112898094D02*
X178669287Y-113164760D01*
X178783573Y-112364760D02*
X178783573Y-111755237D01*
X178669287Y-117978094D02*
X178707382Y-117863808D01*
X178707382Y-117863808D02*
X178745478Y-117825713D01*
X178745478Y-117825713D02*
X178821668Y-117787617D01*
X178821668Y-117787617D02*
X178935954Y-117787617D01*
X178935954Y-117787617D02*
X179012144Y-117825713D01*
X179012144Y-117825713D02*
X179050240Y-117863808D01*
X179050240Y-117863808D02*
X179088335Y-117939998D01*
X179088335Y-117939998D02*
X179088335Y-118244760D01*
X179088335Y-118244760D02*
X178288335Y-118244760D01*
X178288335Y-118244760D02*
X178288335Y-117978094D01*
X178288335Y-117978094D02*
X178326430Y-117901903D01*
X178326430Y-117901903D02*
X178364525Y-117863808D01*
X178364525Y-117863808D02*
X178440716Y-117825713D01*
X178440716Y-117825713D02*
X178516906Y-117825713D01*
X178516906Y-117825713D02*
X178593097Y-117863808D01*
X178593097Y-117863808D02*
X178631192Y-117901903D01*
X178631192Y-117901903D02*
X178669287Y-117978094D01*
X178669287Y-117978094D02*
X178669287Y-118244760D01*
X178783573Y-117444760D02*
X178783573Y-116835237D01*
X179088335Y-117139998D02*
X178478811Y-117139998D01*
X110338095Y-87988335D02*
X110071428Y-87607382D01*
X109880952Y-87988335D02*
X109880952Y-87188335D01*
X109880952Y-87188335D02*
X110185714Y-87188335D01*
X110185714Y-87188335D02*
X110261904Y-87226430D01*
X110261904Y-87226430D02*
X110299999Y-87264525D01*
X110299999Y-87264525D02*
X110338095Y-87340716D01*
X110338095Y-87340716D02*
X110338095Y-87455001D01*
X110338095Y-87455001D02*
X110299999Y-87531192D01*
X110299999Y-87531192D02*
X110261904Y-87569287D01*
X110261904Y-87569287D02*
X110185714Y-87607382D01*
X110185714Y-87607382D02*
X109880952Y-87607382D01*
X110680952Y-87569287D02*
X110947618Y-87569287D01*
X111061904Y-87988335D02*
X110680952Y-87988335D01*
X110680952Y-87988335D02*
X110680952Y-87188335D01*
X110680952Y-87188335D02*
X111061904Y-87188335D01*
X111366666Y-87950240D02*
X111480952Y-87988335D01*
X111480952Y-87988335D02*
X111671428Y-87988335D01*
X111671428Y-87988335D02*
X111747619Y-87950240D01*
X111747619Y-87950240D02*
X111785714Y-87912144D01*
X111785714Y-87912144D02*
X111823809Y-87835954D01*
X111823809Y-87835954D02*
X111823809Y-87759763D01*
X111823809Y-87759763D02*
X111785714Y-87683573D01*
X111785714Y-87683573D02*
X111747619Y-87645478D01*
X111747619Y-87645478D02*
X111671428Y-87607382D01*
X111671428Y-87607382D02*
X111519047Y-87569287D01*
X111519047Y-87569287D02*
X111442857Y-87531192D01*
X111442857Y-87531192D02*
X111404762Y-87493097D01*
X111404762Y-87493097D02*
X111366666Y-87416906D01*
X111366666Y-87416906D02*
X111366666Y-87340716D01*
X111366666Y-87340716D02*
X111404762Y-87264525D01*
X111404762Y-87264525D02*
X111442857Y-87226430D01*
X111442857Y-87226430D02*
X111519047Y-87188335D01*
X111519047Y-87188335D02*
X111709524Y-87188335D01*
X111709524Y-87188335D02*
X111823809Y-87226430D01*
X112166667Y-87569287D02*
X112433333Y-87569287D01*
X112547619Y-87988335D02*
X112166667Y-87988335D01*
X112166667Y-87988335D02*
X112166667Y-87188335D01*
X112166667Y-87188335D02*
X112547619Y-87188335D01*
X112776191Y-87188335D02*
X113233334Y-87188335D01*
X113004762Y-87988335D02*
X113004762Y-87188335D01*
D12*
X155380952Y-107669104D02*
X155857142Y-107669104D01*
X155285714Y-107954819D02*
X155619047Y-106954819D01*
X155619047Y-106954819D02*
X155952380Y-107954819D01*
X156285714Y-107954819D02*
X156285714Y-106954819D01*
X156285714Y-106954819D02*
X156857142Y-107954819D01*
X156857142Y-107954819D02*
X156857142Y-106954819D01*
X157285714Y-107669104D02*
X157761904Y-107669104D01*
X157190476Y-107954819D02*
X157523809Y-106954819D01*
X157523809Y-106954819D02*
X157857142Y-107954819D01*
X158666666Y-107954819D02*
X158190476Y-107954819D01*
X158190476Y-107954819D02*
X158190476Y-106954819D01*
X159190476Y-106954819D02*
X159380952Y-106954819D01*
X159380952Y-106954819D02*
X159476190Y-107002438D01*
X159476190Y-107002438D02*
X159571428Y-107097676D01*
X159571428Y-107097676D02*
X159619047Y-107288152D01*
X159619047Y-107288152D02*
X159619047Y-107621485D01*
X159619047Y-107621485D02*
X159571428Y-107811961D01*
X159571428Y-107811961D02*
X159476190Y-107907200D01*
X159476190Y-107907200D02*
X159380952Y-107954819D01*
X159380952Y-107954819D02*
X159190476Y-107954819D01*
X159190476Y-107954819D02*
X159095238Y-107907200D01*
X159095238Y-107907200D02*
X159000000Y-107811961D01*
X159000000Y-107811961D02*
X158952381Y-107621485D01*
X158952381Y-107621485D02*
X158952381Y-107288152D01*
X158952381Y-107288152D02*
X159000000Y-107097676D01*
X159000000Y-107097676D02*
X159095238Y-107002438D01*
X159095238Y-107002438D02*
X159190476Y-106954819D01*
X160571428Y-107002438D02*
X160476190Y-106954819D01*
X160476190Y-106954819D02*
X160333333Y-106954819D01*
X160333333Y-106954819D02*
X160190476Y-107002438D01*
X160190476Y-107002438D02*
X160095238Y-107097676D01*
X160095238Y-107097676D02*
X160047619Y-107192914D01*
X160047619Y-107192914D02*
X160000000Y-107383390D01*
X160000000Y-107383390D02*
X160000000Y-107526247D01*
X160000000Y-107526247D02*
X160047619Y-107716723D01*
X160047619Y-107716723D02*
X160095238Y-107811961D01*
X160095238Y-107811961D02*
X160190476Y-107907200D01*
X160190476Y-107907200D02*
X160333333Y-107954819D01*
X160333333Y-107954819D02*
X160428571Y-107954819D01*
X160428571Y-107954819D02*
X160571428Y-107907200D01*
X160571428Y-107907200D02*
X160619047Y-107859580D01*
X160619047Y-107859580D02*
X160619047Y-107526247D01*
X160619047Y-107526247D02*
X160428571Y-107526247D01*
D10*
X178859763Y-88225713D02*
X178859763Y-87844760D01*
X179088335Y-88301903D02*
X178288335Y-88035236D01*
X178288335Y-88035236D02*
X179088335Y-87768570D01*
X178783573Y-87501903D02*
X178783573Y-86892380D01*
X179088335Y-87197141D02*
X178478811Y-87197141D01*
X117148571Y-72425240D02*
X117262857Y-72463335D01*
X117262857Y-72463335D02*
X117453333Y-72463335D01*
X117453333Y-72463335D02*
X117529524Y-72425240D01*
X117529524Y-72425240D02*
X117567619Y-72387144D01*
X117567619Y-72387144D02*
X117605714Y-72310954D01*
X117605714Y-72310954D02*
X117605714Y-72234763D01*
X117605714Y-72234763D02*
X117567619Y-72158573D01*
X117567619Y-72158573D02*
X117529524Y-72120478D01*
X117529524Y-72120478D02*
X117453333Y-72082382D01*
X117453333Y-72082382D02*
X117300952Y-72044287D01*
X117300952Y-72044287D02*
X117224762Y-72006192D01*
X117224762Y-72006192D02*
X117186667Y-71968097D01*
X117186667Y-71968097D02*
X117148571Y-71891906D01*
X117148571Y-71891906D02*
X117148571Y-71815716D01*
X117148571Y-71815716D02*
X117186667Y-71739525D01*
X117186667Y-71739525D02*
X117224762Y-71701430D01*
X117224762Y-71701430D02*
X117300952Y-71663335D01*
X117300952Y-71663335D02*
X117491429Y-71663335D01*
X117491429Y-71663335D02*
X117605714Y-71701430D01*
X117948572Y-72463335D02*
X117948572Y-71663335D01*
X117948572Y-71663335D02*
X118139048Y-71663335D01*
X118139048Y-71663335D02*
X118253334Y-71701430D01*
X118253334Y-71701430D02*
X118329524Y-71777620D01*
X118329524Y-71777620D02*
X118367619Y-71853811D01*
X118367619Y-71853811D02*
X118405715Y-72006192D01*
X118405715Y-72006192D02*
X118405715Y-72120478D01*
X118405715Y-72120478D02*
X118367619Y-72272859D01*
X118367619Y-72272859D02*
X118329524Y-72349049D01*
X118329524Y-72349049D02*
X118253334Y-72425240D01*
X118253334Y-72425240D02*
X118139048Y-72463335D01*
X118139048Y-72463335D02*
X117948572Y-72463335D01*
X118710476Y-72234763D02*
X119091429Y-72234763D01*
X118634286Y-72463335D02*
X118900953Y-71663335D01*
X118900953Y-71663335D02*
X119167619Y-72463335D01*
X105590476Y-84141430D02*
X105514286Y-84103335D01*
X105514286Y-84103335D02*
X105400000Y-84103335D01*
X105400000Y-84103335D02*
X105285714Y-84141430D01*
X105285714Y-84141430D02*
X105209524Y-84217620D01*
X105209524Y-84217620D02*
X105171429Y-84293811D01*
X105171429Y-84293811D02*
X105133333Y-84446192D01*
X105133333Y-84446192D02*
X105133333Y-84560478D01*
X105133333Y-84560478D02*
X105171429Y-84712859D01*
X105171429Y-84712859D02*
X105209524Y-84789049D01*
X105209524Y-84789049D02*
X105285714Y-84865240D01*
X105285714Y-84865240D02*
X105400000Y-84903335D01*
X105400000Y-84903335D02*
X105476191Y-84903335D01*
X105476191Y-84903335D02*
X105590476Y-84865240D01*
X105590476Y-84865240D02*
X105628572Y-84827144D01*
X105628572Y-84827144D02*
X105628572Y-84560478D01*
X105628572Y-84560478D02*
X105476191Y-84560478D01*
X105971429Y-84903335D02*
X105971429Y-84103335D01*
X105971429Y-84103335D02*
X106428572Y-84903335D01*
X106428572Y-84903335D02*
X106428572Y-84103335D01*
X106809524Y-84903335D02*
X106809524Y-84103335D01*
X106809524Y-84103335D02*
X107000000Y-84103335D01*
X107000000Y-84103335D02*
X107114286Y-84141430D01*
X107114286Y-84141430D02*
X107190476Y-84217620D01*
X107190476Y-84217620D02*
X107228571Y-84293811D01*
X107228571Y-84293811D02*
X107266667Y-84446192D01*
X107266667Y-84446192D02*
X107266667Y-84560478D01*
X107266667Y-84560478D02*
X107228571Y-84712859D01*
X107228571Y-84712859D02*
X107190476Y-84789049D01*
X107190476Y-84789049D02*
X107114286Y-84865240D01*
X107114286Y-84865240D02*
X107000000Y-84903335D01*
X107000000Y-84903335D02*
X106809524Y-84903335D01*
X178859763Y-83145713D02*
X178859763Y-82764760D01*
X179088335Y-83221903D02*
X178288335Y-82955236D01*
X178288335Y-82955236D02*
X179088335Y-82688570D01*
X178783573Y-82421903D02*
X178783573Y-81812380D01*
D13*
X112266667Y-108908855D02*
X112000000Y-108527902D01*
X111809524Y-108908855D02*
X111809524Y-108108855D01*
X111809524Y-108108855D02*
X112114286Y-108108855D01*
X112114286Y-108108855D02*
X112190476Y-108146950D01*
X112190476Y-108146950D02*
X112228571Y-108185045D01*
X112228571Y-108185045D02*
X112266667Y-108261236D01*
X112266667Y-108261236D02*
X112266667Y-108375521D01*
X112266667Y-108375521D02*
X112228571Y-108451712D01*
X112228571Y-108451712D02*
X112190476Y-108489807D01*
X112190476Y-108489807D02*
X112114286Y-108527902D01*
X112114286Y-108527902D02*
X111809524Y-108527902D01*
X113028571Y-108908855D02*
X112571428Y-108908855D01*
X112800000Y-108908855D02*
X112800000Y-108108855D01*
X112800000Y-108108855D02*
X112723809Y-108223140D01*
X112723809Y-108223140D02*
X112647619Y-108299331D01*
X112647619Y-108299331D02*
X112571428Y-108337426D01*
X173633333Y-108588854D02*
X173633333Y-109160282D01*
X173633333Y-109160282D02*
X173595238Y-109274568D01*
X173595238Y-109274568D02*
X173519047Y-109350759D01*
X173519047Y-109350759D02*
X173404762Y-109388854D01*
X173404762Y-109388854D02*
X173328571Y-109388854D01*
X174357143Y-108855520D02*
X174357143Y-109388854D01*
X174166667Y-108550759D02*
X173976190Y-109122187D01*
X173976190Y-109122187D02*
X174471429Y-109122187D01*
X164885714Y-78482664D02*
X164847618Y-78520760D01*
X164847618Y-78520760D02*
X164733333Y-78558855D01*
X164733333Y-78558855D02*
X164657142Y-78558855D01*
X164657142Y-78558855D02*
X164542856Y-78520760D01*
X164542856Y-78520760D02*
X164466666Y-78444569D01*
X164466666Y-78444569D02*
X164428571Y-78368379D01*
X164428571Y-78368379D02*
X164390475Y-78215998D01*
X164390475Y-78215998D02*
X164390475Y-78101712D01*
X164390475Y-78101712D02*
X164428571Y-77949331D01*
X164428571Y-77949331D02*
X164466666Y-77873140D01*
X164466666Y-77873140D02*
X164542856Y-77796950D01*
X164542856Y-77796950D02*
X164657142Y-77758855D01*
X164657142Y-77758855D02*
X164733333Y-77758855D01*
X164733333Y-77758855D02*
X164847618Y-77796950D01*
X164847618Y-77796950D02*
X164885714Y-77835045D01*
X165190475Y-77835045D02*
X165228571Y-77796950D01*
X165228571Y-77796950D02*
X165304761Y-77758855D01*
X165304761Y-77758855D02*
X165495237Y-77758855D01*
X165495237Y-77758855D02*
X165571428Y-77796950D01*
X165571428Y-77796950D02*
X165609523Y-77835045D01*
X165609523Y-77835045D02*
X165647618Y-77911236D01*
X165647618Y-77911236D02*
X165647618Y-77987426D01*
X165647618Y-77987426D02*
X165609523Y-78101712D01*
X165609523Y-78101712D02*
X165152380Y-78558855D01*
X165152380Y-78558855D02*
X165647618Y-78558855D01*
X166409523Y-78558855D02*
X165952380Y-78558855D01*
X166180952Y-78558855D02*
X166180952Y-77758855D01*
X166180952Y-77758855D02*
X166104761Y-77873140D01*
X166104761Y-77873140D02*
X166028571Y-77949331D01*
X166028571Y-77949331D02*
X165952380Y-77987426D01*
X103389523Y-101643855D02*
X103389523Y-100843855D01*
X103389523Y-100843855D02*
X103579999Y-100843855D01*
X103579999Y-100843855D02*
X103694285Y-100881950D01*
X103694285Y-100881950D02*
X103770475Y-100958140D01*
X103770475Y-100958140D02*
X103808570Y-101034331D01*
X103808570Y-101034331D02*
X103846666Y-101186712D01*
X103846666Y-101186712D02*
X103846666Y-101300998D01*
X103846666Y-101300998D02*
X103808570Y-101453379D01*
X103808570Y-101453379D02*
X103770475Y-101529569D01*
X103770475Y-101529569D02*
X103694285Y-101605760D01*
X103694285Y-101605760D02*
X103579999Y-101643855D01*
X103579999Y-101643855D02*
X103389523Y-101643855D01*
X104608570Y-101643855D02*
X104151427Y-101643855D01*
X104379999Y-101643855D02*
X104379999Y-100843855D01*
X104379999Y-100843855D02*
X104303808Y-100958140D01*
X104303808Y-100958140D02*
X104227618Y-101034331D01*
X104227618Y-101034331D02*
X104151427Y-101072426D01*
X153429333Y-78333855D02*
X153429333Y-78905283D01*
X153429333Y-78905283D02*
X153391238Y-79019569D01*
X153391238Y-79019569D02*
X153315047Y-79095760D01*
X153315047Y-79095760D02*
X153200762Y-79133855D01*
X153200762Y-79133855D02*
X153124571Y-79133855D01*
X154153143Y-78333855D02*
X154000762Y-78333855D01*
X154000762Y-78333855D02*
X153924571Y-78371950D01*
X153924571Y-78371950D02*
X153886476Y-78410045D01*
X153886476Y-78410045D02*
X153810286Y-78524331D01*
X153810286Y-78524331D02*
X153772190Y-78676712D01*
X153772190Y-78676712D02*
X153772190Y-78981474D01*
X153772190Y-78981474D02*
X153810286Y-79057664D01*
X153810286Y-79057664D02*
X153848381Y-79095760D01*
X153848381Y-79095760D02*
X153924571Y-79133855D01*
X153924571Y-79133855D02*
X154076952Y-79133855D01*
X154076952Y-79133855D02*
X154153143Y-79095760D01*
X154153143Y-79095760D02*
X154191238Y-79057664D01*
X154191238Y-79057664D02*
X154229333Y-78981474D01*
X154229333Y-78981474D02*
X154229333Y-78790998D01*
X154229333Y-78790998D02*
X154191238Y-78714807D01*
X154191238Y-78714807D02*
X154153143Y-78676712D01*
X154153143Y-78676712D02*
X154076952Y-78638617D01*
X154076952Y-78638617D02*
X153924571Y-78638617D01*
X153924571Y-78638617D02*
X153848381Y-78676712D01*
X153848381Y-78676712D02*
X153810286Y-78714807D01*
X153810286Y-78714807D02*
X153772190Y-78790998D01*
X134466667Y-120618855D02*
X134200000Y-120237902D01*
X134009524Y-120618855D02*
X134009524Y-119818855D01*
X134009524Y-119818855D02*
X134314286Y-119818855D01*
X134314286Y-119818855D02*
X134390476Y-119856950D01*
X134390476Y-119856950D02*
X134428571Y-119895045D01*
X134428571Y-119895045D02*
X134466667Y-119971236D01*
X134466667Y-119971236D02*
X134466667Y-120085521D01*
X134466667Y-120085521D02*
X134428571Y-120161712D01*
X134428571Y-120161712D02*
X134390476Y-120199807D01*
X134390476Y-120199807D02*
X134314286Y-120237902D01*
X134314286Y-120237902D02*
X134009524Y-120237902D01*
X135152381Y-120085521D02*
X135152381Y-120618855D01*
X134961905Y-119780760D02*
X134771428Y-120352188D01*
X134771428Y-120352188D02*
X135266667Y-120352188D01*
X114390476Y-120963855D02*
X114390476Y-121611474D01*
X114390476Y-121611474D02*
X114428571Y-121687664D01*
X114428571Y-121687664D02*
X114466666Y-121725760D01*
X114466666Y-121725760D02*
X114542857Y-121763855D01*
X114542857Y-121763855D02*
X114695238Y-121763855D01*
X114695238Y-121763855D02*
X114771428Y-121725760D01*
X114771428Y-121725760D02*
X114809523Y-121687664D01*
X114809523Y-121687664D02*
X114847619Y-121611474D01*
X114847619Y-121611474D02*
X114847619Y-120963855D01*
X115152380Y-120963855D02*
X115647618Y-120963855D01*
X115647618Y-120963855D02*
X115380952Y-121268617D01*
X115380952Y-121268617D02*
X115495237Y-121268617D01*
X115495237Y-121268617D02*
X115571428Y-121306712D01*
X115571428Y-121306712D02*
X115609523Y-121344807D01*
X115609523Y-121344807D02*
X115647618Y-121420998D01*
X115647618Y-121420998D02*
X115647618Y-121611474D01*
X115647618Y-121611474D02*
X115609523Y-121687664D01*
X115609523Y-121687664D02*
X115571428Y-121725760D01*
X115571428Y-121725760D02*
X115495237Y-121763855D01*
X115495237Y-121763855D02*
X115266666Y-121763855D01*
X115266666Y-121763855D02*
X115190475Y-121725760D01*
X115190475Y-121725760D02*
X115152380Y-121687664D01*
X164885714Y-87682664D02*
X164847618Y-87720760D01*
X164847618Y-87720760D02*
X164733333Y-87758855D01*
X164733333Y-87758855D02*
X164657142Y-87758855D01*
X164657142Y-87758855D02*
X164542856Y-87720760D01*
X164542856Y-87720760D02*
X164466666Y-87644569D01*
X164466666Y-87644569D02*
X164428571Y-87568379D01*
X164428571Y-87568379D02*
X164390475Y-87415998D01*
X164390475Y-87415998D02*
X164390475Y-87301712D01*
X164390475Y-87301712D02*
X164428571Y-87149331D01*
X164428571Y-87149331D02*
X164466666Y-87073140D01*
X164466666Y-87073140D02*
X164542856Y-86996950D01*
X164542856Y-86996950D02*
X164657142Y-86958855D01*
X164657142Y-86958855D02*
X164733333Y-86958855D01*
X164733333Y-86958855D02*
X164847618Y-86996950D01*
X164847618Y-86996950D02*
X164885714Y-87035045D01*
X165190475Y-87035045D02*
X165228571Y-86996950D01*
X165228571Y-86996950D02*
X165304761Y-86958855D01*
X165304761Y-86958855D02*
X165495237Y-86958855D01*
X165495237Y-86958855D02*
X165571428Y-86996950D01*
X165571428Y-86996950D02*
X165609523Y-87035045D01*
X165609523Y-87035045D02*
X165647618Y-87111236D01*
X165647618Y-87111236D02*
X165647618Y-87187426D01*
X165647618Y-87187426D02*
X165609523Y-87301712D01*
X165609523Y-87301712D02*
X165152380Y-87758855D01*
X165152380Y-87758855D02*
X165647618Y-87758855D01*
X166142857Y-86958855D02*
X166219047Y-86958855D01*
X166219047Y-86958855D02*
X166295238Y-86996950D01*
X166295238Y-86996950D02*
X166333333Y-87035045D01*
X166333333Y-87035045D02*
X166371428Y-87111236D01*
X166371428Y-87111236D02*
X166409523Y-87263617D01*
X166409523Y-87263617D02*
X166409523Y-87454093D01*
X166409523Y-87454093D02*
X166371428Y-87606474D01*
X166371428Y-87606474D02*
X166333333Y-87682664D01*
X166333333Y-87682664D02*
X166295238Y-87720760D01*
X166295238Y-87720760D02*
X166219047Y-87758855D01*
X166219047Y-87758855D02*
X166142857Y-87758855D01*
X166142857Y-87758855D02*
X166066666Y-87720760D01*
X166066666Y-87720760D02*
X166028571Y-87682664D01*
X166028571Y-87682664D02*
X165990476Y-87606474D01*
X165990476Y-87606474D02*
X165952380Y-87454093D01*
X165952380Y-87454093D02*
X165952380Y-87263617D01*
X165952380Y-87263617D02*
X165990476Y-87111236D01*
X165990476Y-87111236D02*
X166028571Y-87035045D01*
X166028571Y-87035045D02*
X166066666Y-86996950D01*
X166066666Y-86996950D02*
X166142857Y-86958855D01*
X144285714Y-92568854D02*
X144019047Y-92187901D01*
X143828571Y-92568854D02*
X143828571Y-91768854D01*
X143828571Y-91768854D02*
X144133333Y-91768854D01*
X144133333Y-91768854D02*
X144209523Y-91806949D01*
X144209523Y-91806949D02*
X144247618Y-91845044D01*
X144247618Y-91845044D02*
X144285714Y-91921235D01*
X144285714Y-91921235D02*
X144285714Y-92035520D01*
X144285714Y-92035520D02*
X144247618Y-92111711D01*
X144247618Y-92111711D02*
X144209523Y-92149806D01*
X144209523Y-92149806D02*
X144133333Y-92187901D01*
X144133333Y-92187901D02*
X143828571Y-92187901D01*
X145047618Y-92568854D02*
X144590475Y-92568854D01*
X144819047Y-92568854D02*
X144819047Y-91768854D01*
X144819047Y-91768854D02*
X144742856Y-91883139D01*
X144742856Y-91883139D02*
X144666666Y-91959330D01*
X144666666Y-91959330D02*
X144590475Y-91997425D01*
X145733333Y-92035520D02*
X145733333Y-92568854D01*
X145542857Y-91730759D02*
X145352380Y-92302187D01*
X145352380Y-92302187D02*
X145847619Y-92302187D01*
X137866667Y-99432664D02*
X137828571Y-99470760D01*
X137828571Y-99470760D02*
X137714286Y-99508855D01*
X137714286Y-99508855D02*
X137638095Y-99508855D01*
X137638095Y-99508855D02*
X137523809Y-99470760D01*
X137523809Y-99470760D02*
X137447619Y-99394569D01*
X137447619Y-99394569D02*
X137409524Y-99318379D01*
X137409524Y-99318379D02*
X137371428Y-99165998D01*
X137371428Y-99165998D02*
X137371428Y-99051712D01*
X137371428Y-99051712D02*
X137409524Y-98899331D01*
X137409524Y-98899331D02*
X137447619Y-98823140D01*
X137447619Y-98823140D02*
X137523809Y-98746950D01*
X137523809Y-98746950D02*
X137638095Y-98708855D01*
X137638095Y-98708855D02*
X137714286Y-98708855D01*
X137714286Y-98708855D02*
X137828571Y-98746950D01*
X137828571Y-98746950D02*
X137866667Y-98785045D01*
X138133333Y-98708855D02*
X138628571Y-98708855D01*
X138628571Y-98708855D02*
X138361905Y-99013617D01*
X138361905Y-99013617D02*
X138476190Y-99013617D01*
X138476190Y-99013617D02*
X138552381Y-99051712D01*
X138552381Y-99051712D02*
X138590476Y-99089807D01*
X138590476Y-99089807D02*
X138628571Y-99165998D01*
X138628571Y-99165998D02*
X138628571Y-99356474D01*
X138628571Y-99356474D02*
X138590476Y-99432664D01*
X138590476Y-99432664D02*
X138552381Y-99470760D01*
X138552381Y-99470760D02*
X138476190Y-99508855D01*
X138476190Y-99508855D02*
X138247619Y-99508855D01*
X138247619Y-99508855D02*
X138171428Y-99470760D01*
X138171428Y-99470760D02*
X138133333Y-99432664D01*
X117466667Y-82158855D02*
X117200000Y-81777902D01*
X117009524Y-82158855D02*
X117009524Y-81358855D01*
X117009524Y-81358855D02*
X117314286Y-81358855D01*
X117314286Y-81358855D02*
X117390476Y-81396950D01*
X117390476Y-81396950D02*
X117428571Y-81435045D01*
X117428571Y-81435045D02*
X117466667Y-81511236D01*
X117466667Y-81511236D02*
X117466667Y-81625521D01*
X117466667Y-81625521D02*
X117428571Y-81701712D01*
X117428571Y-81701712D02*
X117390476Y-81739807D01*
X117390476Y-81739807D02*
X117314286Y-81777902D01*
X117314286Y-81777902D02*
X117009524Y-81777902D01*
X118152381Y-81358855D02*
X118000000Y-81358855D01*
X118000000Y-81358855D02*
X117923809Y-81396950D01*
X117923809Y-81396950D02*
X117885714Y-81435045D01*
X117885714Y-81435045D02*
X117809524Y-81549331D01*
X117809524Y-81549331D02*
X117771428Y-81701712D01*
X117771428Y-81701712D02*
X117771428Y-82006474D01*
X117771428Y-82006474D02*
X117809524Y-82082664D01*
X117809524Y-82082664D02*
X117847619Y-82120760D01*
X117847619Y-82120760D02*
X117923809Y-82158855D01*
X117923809Y-82158855D02*
X118076190Y-82158855D01*
X118076190Y-82158855D02*
X118152381Y-82120760D01*
X118152381Y-82120760D02*
X118190476Y-82082664D01*
X118190476Y-82082664D02*
X118228571Y-82006474D01*
X118228571Y-82006474D02*
X118228571Y-81815998D01*
X118228571Y-81815998D02*
X118190476Y-81739807D01*
X118190476Y-81739807D02*
X118152381Y-81701712D01*
X118152381Y-81701712D02*
X118076190Y-81663617D01*
X118076190Y-81663617D02*
X117923809Y-81663617D01*
X117923809Y-81663617D02*
X117847619Y-81701712D01*
X117847619Y-81701712D02*
X117809524Y-81739807D01*
X117809524Y-81739807D02*
X117771428Y-81815998D01*
X167485714Y-116448854D02*
X167219047Y-116067901D01*
X167028571Y-116448854D02*
X167028571Y-115648854D01*
X167028571Y-115648854D02*
X167333333Y-115648854D01*
X167333333Y-115648854D02*
X167409523Y-115686949D01*
X167409523Y-115686949D02*
X167447618Y-115725044D01*
X167447618Y-115725044D02*
X167485714Y-115801235D01*
X167485714Y-115801235D02*
X167485714Y-115915520D01*
X167485714Y-115915520D02*
X167447618Y-115991711D01*
X167447618Y-115991711D02*
X167409523Y-116029806D01*
X167409523Y-116029806D02*
X167333333Y-116067901D01*
X167333333Y-116067901D02*
X167028571Y-116067901D01*
X168247618Y-116448854D02*
X167790475Y-116448854D01*
X168019047Y-116448854D02*
X168019047Y-115648854D01*
X168019047Y-115648854D02*
X167942856Y-115763139D01*
X167942856Y-115763139D02*
X167866666Y-115839330D01*
X167866666Y-115839330D02*
X167790475Y-115877425D01*
X169009523Y-116448854D02*
X168552380Y-116448854D01*
X168780952Y-116448854D02*
X168780952Y-115648854D01*
X168780952Y-115648854D02*
X168704761Y-115763139D01*
X168704761Y-115763139D02*
X168628571Y-115839330D01*
X168628571Y-115839330D02*
X168552380Y-115877425D01*
X164885714Y-108482664D02*
X164847618Y-108520760D01*
X164847618Y-108520760D02*
X164733333Y-108558855D01*
X164733333Y-108558855D02*
X164657142Y-108558855D01*
X164657142Y-108558855D02*
X164542856Y-108520760D01*
X164542856Y-108520760D02*
X164466666Y-108444569D01*
X164466666Y-108444569D02*
X164428571Y-108368379D01*
X164428571Y-108368379D02*
X164390475Y-108215998D01*
X164390475Y-108215998D02*
X164390475Y-108101712D01*
X164390475Y-108101712D02*
X164428571Y-107949331D01*
X164428571Y-107949331D02*
X164466666Y-107873140D01*
X164466666Y-107873140D02*
X164542856Y-107796950D01*
X164542856Y-107796950D02*
X164657142Y-107758855D01*
X164657142Y-107758855D02*
X164733333Y-107758855D01*
X164733333Y-107758855D02*
X164847618Y-107796950D01*
X164847618Y-107796950D02*
X164885714Y-107835045D01*
X165190475Y-107835045D02*
X165228571Y-107796950D01*
X165228571Y-107796950D02*
X165304761Y-107758855D01*
X165304761Y-107758855D02*
X165495237Y-107758855D01*
X165495237Y-107758855D02*
X165571428Y-107796950D01*
X165571428Y-107796950D02*
X165609523Y-107835045D01*
X165609523Y-107835045D02*
X165647618Y-107911236D01*
X165647618Y-107911236D02*
X165647618Y-107987426D01*
X165647618Y-107987426D02*
X165609523Y-108101712D01*
X165609523Y-108101712D02*
X165152380Y-108558855D01*
X165152380Y-108558855D02*
X165647618Y-108558855D01*
X166333333Y-108025521D02*
X166333333Y-108558855D01*
X166142857Y-107720760D02*
X165952380Y-108292188D01*
X165952380Y-108292188D02*
X166447619Y-108292188D01*
X157385714Y-92482664D02*
X157347618Y-92520760D01*
X157347618Y-92520760D02*
X157233333Y-92558855D01*
X157233333Y-92558855D02*
X157157142Y-92558855D01*
X157157142Y-92558855D02*
X157042856Y-92520760D01*
X157042856Y-92520760D02*
X156966666Y-92444569D01*
X156966666Y-92444569D02*
X156928571Y-92368379D01*
X156928571Y-92368379D02*
X156890475Y-92215998D01*
X156890475Y-92215998D02*
X156890475Y-92101712D01*
X156890475Y-92101712D02*
X156928571Y-91949331D01*
X156928571Y-91949331D02*
X156966666Y-91873140D01*
X156966666Y-91873140D02*
X157042856Y-91796950D01*
X157042856Y-91796950D02*
X157157142Y-91758855D01*
X157157142Y-91758855D02*
X157233333Y-91758855D01*
X157233333Y-91758855D02*
X157347618Y-91796950D01*
X157347618Y-91796950D02*
X157385714Y-91835045D01*
X157690475Y-91835045D02*
X157728571Y-91796950D01*
X157728571Y-91796950D02*
X157804761Y-91758855D01*
X157804761Y-91758855D02*
X157995237Y-91758855D01*
X157995237Y-91758855D02*
X158071428Y-91796950D01*
X158071428Y-91796950D02*
X158109523Y-91835045D01*
X158109523Y-91835045D02*
X158147618Y-91911236D01*
X158147618Y-91911236D02*
X158147618Y-91987426D01*
X158147618Y-91987426D02*
X158109523Y-92101712D01*
X158109523Y-92101712D02*
X157652380Y-92558855D01*
X157652380Y-92558855D02*
X158147618Y-92558855D01*
X158871428Y-91758855D02*
X158490476Y-91758855D01*
X158490476Y-91758855D02*
X158452380Y-92139807D01*
X158452380Y-92139807D02*
X158490476Y-92101712D01*
X158490476Y-92101712D02*
X158566666Y-92063617D01*
X158566666Y-92063617D02*
X158757142Y-92063617D01*
X158757142Y-92063617D02*
X158833333Y-92101712D01*
X158833333Y-92101712D02*
X158871428Y-92139807D01*
X158871428Y-92139807D02*
X158909523Y-92215998D01*
X158909523Y-92215998D02*
X158909523Y-92406474D01*
X158909523Y-92406474D02*
X158871428Y-92482664D01*
X158871428Y-92482664D02*
X158833333Y-92520760D01*
X158833333Y-92520760D02*
X158757142Y-92558855D01*
X158757142Y-92558855D02*
X158566666Y-92558855D01*
X158566666Y-92558855D02*
X158490476Y-92520760D01*
X158490476Y-92520760D02*
X158452380Y-92482664D01*
X127933332Y-129250759D02*
X128047618Y-129288854D01*
X128047618Y-129288854D02*
X128238094Y-129288854D01*
X128238094Y-129288854D02*
X128314285Y-129250759D01*
X128314285Y-129250759D02*
X128352380Y-129212663D01*
X128352380Y-129212663D02*
X128390475Y-129136473D01*
X128390475Y-129136473D02*
X128390475Y-129060282D01*
X128390475Y-129060282D02*
X128352380Y-128984092D01*
X128352380Y-128984092D02*
X128314285Y-128945997D01*
X128314285Y-128945997D02*
X128238094Y-128907901D01*
X128238094Y-128907901D02*
X128085713Y-128869806D01*
X128085713Y-128869806D02*
X128009523Y-128831711D01*
X128009523Y-128831711D02*
X127971428Y-128793616D01*
X127971428Y-128793616D02*
X127933332Y-128717425D01*
X127933332Y-128717425D02*
X127933332Y-128641235D01*
X127933332Y-128641235D02*
X127971428Y-128565044D01*
X127971428Y-128565044D02*
X128009523Y-128526949D01*
X128009523Y-128526949D02*
X128085713Y-128488854D01*
X128085713Y-128488854D02*
X128276190Y-128488854D01*
X128276190Y-128488854D02*
X128390475Y-128526949D01*
X128657142Y-128488854D02*
X128847618Y-129288854D01*
X128847618Y-129288854D02*
X128999999Y-128717425D01*
X128999999Y-128717425D02*
X129152380Y-129288854D01*
X129152380Y-129288854D02*
X129342857Y-128488854D01*
X130066666Y-129288854D02*
X129609523Y-129288854D01*
X129838095Y-129288854D02*
X129838095Y-128488854D01*
X129838095Y-128488854D02*
X129761904Y-128603139D01*
X129761904Y-128603139D02*
X129685714Y-128679330D01*
X129685714Y-128679330D02*
X129609523Y-128717425D01*
X118379713Y-78963855D02*
X118113046Y-78582902D01*
X117922570Y-78963855D02*
X117922570Y-78163855D01*
X117922570Y-78163855D02*
X118227332Y-78163855D01*
X118227332Y-78163855D02*
X118303522Y-78201950D01*
X118303522Y-78201950D02*
X118341617Y-78240045D01*
X118341617Y-78240045D02*
X118379713Y-78316236D01*
X118379713Y-78316236D02*
X118379713Y-78430521D01*
X118379713Y-78430521D02*
X118341617Y-78506712D01*
X118341617Y-78506712D02*
X118303522Y-78544807D01*
X118303522Y-78544807D02*
X118227332Y-78582902D01*
X118227332Y-78582902D02*
X117922570Y-78582902D01*
X119141617Y-78963855D02*
X118684474Y-78963855D01*
X118913046Y-78963855D02*
X118913046Y-78163855D01*
X118913046Y-78163855D02*
X118836855Y-78278140D01*
X118836855Y-78278140D02*
X118760665Y-78354331D01*
X118760665Y-78354331D02*
X118684474Y-78392426D01*
X119522570Y-78963855D02*
X119674951Y-78963855D01*
X119674951Y-78963855D02*
X119751141Y-78925760D01*
X119751141Y-78925760D02*
X119789237Y-78887664D01*
X119789237Y-78887664D02*
X119865427Y-78773379D01*
X119865427Y-78773379D02*
X119903522Y-78620998D01*
X119903522Y-78620998D02*
X119903522Y-78316236D01*
X119903522Y-78316236D02*
X119865427Y-78240045D01*
X119865427Y-78240045D02*
X119827332Y-78201950D01*
X119827332Y-78201950D02*
X119751141Y-78163855D01*
X119751141Y-78163855D02*
X119598760Y-78163855D01*
X119598760Y-78163855D02*
X119522570Y-78201950D01*
X119522570Y-78201950D02*
X119484475Y-78240045D01*
X119484475Y-78240045D02*
X119446379Y-78316236D01*
X119446379Y-78316236D02*
X119446379Y-78506712D01*
X119446379Y-78506712D02*
X119484475Y-78582902D01*
X119484475Y-78582902D02*
X119522570Y-78620998D01*
X119522570Y-78620998D02*
X119598760Y-78659093D01*
X119598760Y-78659093D02*
X119751141Y-78659093D01*
X119751141Y-78659093D02*
X119827332Y-78620998D01*
X119827332Y-78620998D02*
X119865427Y-78582902D01*
X119865427Y-78582902D02*
X119903522Y-78506712D01*
X103693333Y-107518855D02*
X103693333Y-108090283D01*
X103693333Y-108090283D02*
X103655238Y-108204569D01*
X103655238Y-108204569D02*
X103579047Y-108280760D01*
X103579047Y-108280760D02*
X103464762Y-108318855D01*
X103464762Y-108318855D02*
X103388571Y-108318855D01*
X104493333Y-108318855D02*
X104036190Y-108318855D01*
X104264762Y-108318855D02*
X104264762Y-107518855D01*
X104264762Y-107518855D02*
X104188571Y-107633140D01*
X104188571Y-107633140D02*
X104112381Y-107709331D01*
X104112381Y-107709331D02*
X104036190Y-107747426D01*
X147459333Y-126363855D02*
X147459333Y-126935283D01*
X147459333Y-126935283D02*
X147421238Y-127049569D01*
X147421238Y-127049569D02*
X147345047Y-127125760D01*
X147345047Y-127125760D02*
X147230762Y-127163855D01*
X147230762Y-127163855D02*
X147154571Y-127163855D01*
X147954571Y-126706712D02*
X147878381Y-126668617D01*
X147878381Y-126668617D02*
X147840286Y-126630521D01*
X147840286Y-126630521D02*
X147802190Y-126554331D01*
X147802190Y-126554331D02*
X147802190Y-126516236D01*
X147802190Y-126516236D02*
X147840286Y-126440045D01*
X147840286Y-126440045D02*
X147878381Y-126401950D01*
X147878381Y-126401950D02*
X147954571Y-126363855D01*
X147954571Y-126363855D02*
X148106952Y-126363855D01*
X148106952Y-126363855D02*
X148183143Y-126401950D01*
X148183143Y-126401950D02*
X148221238Y-126440045D01*
X148221238Y-126440045D02*
X148259333Y-126516236D01*
X148259333Y-126516236D02*
X148259333Y-126554331D01*
X148259333Y-126554331D02*
X148221238Y-126630521D01*
X148221238Y-126630521D02*
X148183143Y-126668617D01*
X148183143Y-126668617D02*
X148106952Y-126706712D01*
X148106952Y-126706712D02*
X147954571Y-126706712D01*
X147954571Y-126706712D02*
X147878381Y-126744807D01*
X147878381Y-126744807D02*
X147840286Y-126782902D01*
X147840286Y-126782902D02*
X147802190Y-126859093D01*
X147802190Y-126859093D02*
X147802190Y-127011474D01*
X147802190Y-127011474D02*
X147840286Y-127087664D01*
X147840286Y-127087664D02*
X147878381Y-127125760D01*
X147878381Y-127125760D02*
X147954571Y-127163855D01*
X147954571Y-127163855D02*
X148106952Y-127163855D01*
X148106952Y-127163855D02*
X148183143Y-127125760D01*
X148183143Y-127125760D02*
X148221238Y-127087664D01*
X148221238Y-127087664D02*
X148259333Y-127011474D01*
X148259333Y-127011474D02*
X148259333Y-126859093D01*
X148259333Y-126859093D02*
X148221238Y-126782902D01*
X148221238Y-126782902D02*
X148183143Y-126744807D01*
X148183143Y-126744807D02*
X148106952Y-126706712D01*
X107685713Y-101908855D02*
X107419046Y-101527902D01*
X107228570Y-101908855D02*
X107228570Y-101108855D01*
X107228570Y-101108855D02*
X107533332Y-101108855D01*
X107533332Y-101108855D02*
X107609522Y-101146950D01*
X107609522Y-101146950D02*
X107647617Y-101185045D01*
X107647617Y-101185045D02*
X107685713Y-101261236D01*
X107685713Y-101261236D02*
X107685713Y-101375521D01*
X107685713Y-101375521D02*
X107647617Y-101451712D01*
X107647617Y-101451712D02*
X107609522Y-101489807D01*
X107609522Y-101489807D02*
X107533332Y-101527902D01*
X107533332Y-101527902D02*
X107228570Y-101527902D01*
X107990474Y-101185045D02*
X108028570Y-101146950D01*
X108028570Y-101146950D02*
X108104760Y-101108855D01*
X108104760Y-101108855D02*
X108295236Y-101108855D01*
X108295236Y-101108855D02*
X108371427Y-101146950D01*
X108371427Y-101146950D02*
X108409522Y-101185045D01*
X108409522Y-101185045D02*
X108447617Y-101261236D01*
X108447617Y-101261236D02*
X108447617Y-101337426D01*
X108447617Y-101337426D02*
X108409522Y-101451712D01*
X108409522Y-101451712D02*
X107952379Y-101908855D01*
X107952379Y-101908855D02*
X108447617Y-101908855D01*
X108942856Y-101108855D02*
X109019046Y-101108855D01*
X109019046Y-101108855D02*
X109095237Y-101146950D01*
X109095237Y-101146950D02*
X109133332Y-101185045D01*
X109133332Y-101185045D02*
X109171427Y-101261236D01*
X109171427Y-101261236D02*
X109209522Y-101413617D01*
X109209522Y-101413617D02*
X109209522Y-101604093D01*
X109209522Y-101604093D02*
X109171427Y-101756474D01*
X109171427Y-101756474D02*
X109133332Y-101832664D01*
X109133332Y-101832664D02*
X109095237Y-101870760D01*
X109095237Y-101870760D02*
X109019046Y-101908855D01*
X109019046Y-101908855D02*
X108942856Y-101908855D01*
X108942856Y-101908855D02*
X108866665Y-101870760D01*
X108866665Y-101870760D02*
X108828570Y-101832664D01*
X108828570Y-101832664D02*
X108790475Y-101756474D01*
X108790475Y-101756474D02*
X108752379Y-101604093D01*
X108752379Y-101604093D02*
X108752379Y-101413617D01*
X108752379Y-101413617D02*
X108790475Y-101261236D01*
X108790475Y-101261236D02*
X108828570Y-101185045D01*
X108828570Y-101185045D02*
X108866665Y-101146950D01*
X108866665Y-101146950D02*
X108942856Y-101108855D01*
X112266667Y-116908855D02*
X112000000Y-116527902D01*
X111809524Y-116908855D02*
X111809524Y-116108855D01*
X111809524Y-116108855D02*
X112114286Y-116108855D01*
X112114286Y-116108855D02*
X112190476Y-116146950D01*
X112190476Y-116146950D02*
X112228571Y-116185045D01*
X112228571Y-116185045D02*
X112266667Y-116261236D01*
X112266667Y-116261236D02*
X112266667Y-116375521D01*
X112266667Y-116375521D02*
X112228571Y-116451712D01*
X112228571Y-116451712D02*
X112190476Y-116489807D01*
X112190476Y-116489807D02*
X112114286Y-116527902D01*
X112114286Y-116527902D02*
X111809524Y-116527902D01*
X112571428Y-116185045D02*
X112609524Y-116146950D01*
X112609524Y-116146950D02*
X112685714Y-116108855D01*
X112685714Y-116108855D02*
X112876190Y-116108855D01*
X112876190Y-116108855D02*
X112952381Y-116146950D01*
X112952381Y-116146950D02*
X112990476Y-116185045D01*
X112990476Y-116185045D02*
X113028571Y-116261236D01*
X113028571Y-116261236D02*
X113028571Y-116337426D01*
X113028571Y-116337426D02*
X112990476Y-116451712D01*
X112990476Y-116451712D02*
X112533333Y-116908855D01*
X112533333Y-116908855D02*
X113028571Y-116908855D01*
X162885714Y-85082664D02*
X162847618Y-85120760D01*
X162847618Y-85120760D02*
X162733333Y-85158855D01*
X162733333Y-85158855D02*
X162657142Y-85158855D01*
X162657142Y-85158855D02*
X162542856Y-85120760D01*
X162542856Y-85120760D02*
X162466666Y-85044569D01*
X162466666Y-85044569D02*
X162428571Y-84968379D01*
X162428571Y-84968379D02*
X162390475Y-84815998D01*
X162390475Y-84815998D02*
X162390475Y-84701712D01*
X162390475Y-84701712D02*
X162428571Y-84549331D01*
X162428571Y-84549331D02*
X162466666Y-84473140D01*
X162466666Y-84473140D02*
X162542856Y-84396950D01*
X162542856Y-84396950D02*
X162657142Y-84358855D01*
X162657142Y-84358855D02*
X162733333Y-84358855D01*
X162733333Y-84358855D02*
X162847618Y-84396950D01*
X162847618Y-84396950D02*
X162885714Y-84435045D01*
X163190475Y-84435045D02*
X163228571Y-84396950D01*
X163228571Y-84396950D02*
X163304761Y-84358855D01*
X163304761Y-84358855D02*
X163495237Y-84358855D01*
X163495237Y-84358855D02*
X163571428Y-84396950D01*
X163571428Y-84396950D02*
X163609523Y-84435045D01*
X163609523Y-84435045D02*
X163647618Y-84511236D01*
X163647618Y-84511236D02*
X163647618Y-84587426D01*
X163647618Y-84587426D02*
X163609523Y-84701712D01*
X163609523Y-84701712D02*
X163152380Y-85158855D01*
X163152380Y-85158855D02*
X163647618Y-85158855D01*
X164104761Y-84701712D02*
X164028571Y-84663617D01*
X164028571Y-84663617D02*
X163990476Y-84625521D01*
X163990476Y-84625521D02*
X163952380Y-84549331D01*
X163952380Y-84549331D02*
X163952380Y-84511236D01*
X163952380Y-84511236D02*
X163990476Y-84435045D01*
X163990476Y-84435045D02*
X164028571Y-84396950D01*
X164028571Y-84396950D02*
X164104761Y-84358855D01*
X164104761Y-84358855D02*
X164257142Y-84358855D01*
X164257142Y-84358855D02*
X164333333Y-84396950D01*
X164333333Y-84396950D02*
X164371428Y-84435045D01*
X164371428Y-84435045D02*
X164409523Y-84511236D01*
X164409523Y-84511236D02*
X164409523Y-84549331D01*
X164409523Y-84549331D02*
X164371428Y-84625521D01*
X164371428Y-84625521D02*
X164333333Y-84663617D01*
X164333333Y-84663617D02*
X164257142Y-84701712D01*
X164257142Y-84701712D02*
X164104761Y-84701712D01*
X164104761Y-84701712D02*
X164028571Y-84739807D01*
X164028571Y-84739807D02*
X163990476Y-84777902D01*
X163990476Y-84777902D02*
X163952380Y-84854093D01*
X163952380Y-84854093D02*
X163952380Y-85006474D01*
X163952380Y-85006474D02*
X163990476Y-85082664D01*
X163990476Y-85082664D02*
X164028571Y-85120760D01*
X164028571Y-85120760D02*
X164104761Y-85158855D01*
X164104761Y-85158855D02*
X164257142Y-85158855D01*
X164257142Y-85158855D02*
X164333333Y-85120760D01*
X164333333Y-85120760D02*
X164371428Y-85082664D01*
X164371428Y-85082664D02*
X164409523Y-85006474D01*
X164409523Y-85006474D02*
X164409523Y-84854093D01*
X164409523Y-84854093D02*
X164371428Y-84777902D01*
X164371428Y-84777902D02*
X164333333Y-84739807D01*
X164333333Y-84739807D02*
X164257142Y-84701712D01*
X159390476Y-83963854D02*
X159390476Y-84611473D01*
X159390476Y-84611473D02*
X159428571Y-84687663D01*
X159428571Y-84687663D02*
X159466666Y-84725759D01*
X159466666Y-84725759D02*
X159542857Y-84763854D01*
X159542857Y-84763854D02*
X159695238Y-84763854D01*
X159695238Y-84763854D02*
X159771428Y-84725759D01*
X159771428Y-84725759D02*
X159809523Y-84687663D01*
X159809523Y-84687663D02*
X159847619Y-84611473D01*
X159847619Y-84611473D02*
X159847619Y-83963854D01*
X160609523Y-83963854D02*
X160228571Y-83963854D01*
X160228571Y-83963854D02*
X160190475Y-84344806D01*
X160190475Y-84344806D02*
X160228571Y-84306711D01*
X160228571Y-84306711D02*
X160304761Y-84268616D01*
X160304761Y-84268616D02*
X160495237Y-84268616D01*
X160495237Y-84268616D02*
X160571428Y-84306711D01*
X160571428Y-84306711D02*
X160609523Y-84344806D01*
X160609523Y-84344806D02*
X160647618Y-84420997D01*
X160647618Y-84420997D02*
X160647618Y-84611473D01*
X160647618Y-84611473D02*
X160609523Y-84687663D01*
X160609523Y-84687663D02*
X160571428Y-84725759D01*
X160571428Y-84725759D02*
X160495237Y-84763854D01*
X160495237Y-84763854D02*
X160304761Y-84763854D01*
X160304761Y-84763854D02*
X160228571Y-84725759D01*
X160228571Y-84725759D02*
X160190475Y-84687663D01*
X173633333Y-93588854D02*
X173633333Y-94160282D01*
X173633333Y-94160282D02*
X173595238Y-94274568D01*
X173595238Y-94274568D02*
X173519047Y-94350759D01*
X173519047Y-94350759D02*
X173404762Y-94388854D01*
X173404762Y-94388854D02*
X173328571Y-94388854D01*
X174395238Y-93588854D02*
X174014286Y-93588854D01*
X174014286Y-93588854D02*
X173976190Y-93969806D01*
X173976190Y-93969806D02*
X174014286Y-93931711D01*
X174014286Y-93931711D02*
X174090476Y-93893616D01*
X174090476Y-93893616D02*
X174280952Y-93893616D01*
X174280952Y-93893616D02*
X174357143Y-93931711D01*
X174357143Y-93931711D02*
X174395238Y-93969806D01*
X174395238Y-93969806D02*
X174433333Y-94045997D01*
X174433333Y-94045997D02*
X174433333Y-94236473D01*
X174433333Y-94236473D02*
X174395238Y-94312663D01*
X174395238Y-94312663D02*
X174357143Y-94350759D01*
X174357143Y-94350759D02*
X174280952Y-94388854D01*
X174280952Y-94388854D02*
X174090476Y-94388854D01*
X174090476Y-94388854D02*
X174014286Y-94350759D01*
X174014286Y-94350759D02*
X173976190Y-94312663D01*
X164885714Y-117682664D02*
X164847618Y-117720760D01*
X164847618Y-117720760D02*
X164733333Y-117758855D01*
X164733333Y-117758855D02*
X164657142Y-117758855D01*
X164657142Y-117758855D02*
X164542856Y-117720760D01*
X164542856Y-117720760D02*
X164466666Y-117644569D01*
X164466666Y-117644569D02*
X164428571Y-117568379D01*
X164428571Y-117568379D02*
X164390475Y-117415998D01*
X164390475Y-117415998D02*
X164390475Y-117301712D01*
X164390475Y-117301712D02*
X164428571Y-117149331D01*
X164428571Y-117149331D02*
X164466666Y-117073140D01*
X164466666Y-117073140D02*
X164542856Y-116996950D01*
X164542856Y-116996950D02*
X164657142Y-116958855D01*
X164657142Y-116958855D02*
X164733333Y-116958855D01*
X164733333Y-116958855D02*
X164847618Y-116996950D01*
X164847618Y-116996950D02*
X164885714Y-117035045D01*
X165190475Y-117035045D02*
X165228571Y-116996950D01*
X165228571Y-116996950D02*
X165304761Y-116958855D01*
X165304761Y-116958855D02*
X165495237Y-116958855D01*
X165495237Y-116958855D02*
X165571428Y-116996950D01*
X165571428Y-116996950D02*
X165609523Y-117035045D01*
X165609523Y-117035045D02*
X165647618Y-117111236D01*
X165647618Y-117111236D02*
X165647618Y-117187426D01*
X165647618Y-117187426D02*
X165609523Y-117301712D01*
X165609523Y-117301712D02*
X165152380Y-117758855D01*
X165152380Y-117758855D02*
X165647618Y-117758855D01*
X165914285Y-116958855D02*
X166409523Y-116958855D01*
X166409523Y-116958855D02*
X166142857Y-117263617D01*
X166142857Y-117263617D02*
X166257142Y-117263617D01*
X166257142Y-117263617D02*
X166333333Y-117301712D01*
X166333333Y-117301712D02*
X166371428Y-117339807D01*
X166371428Y-117339807D02*
X166409523Y-117415998D01*
X166409523Y-117415998D02*
X166409523Y-117606474D01*
X166409523Y-117606474D02*
X166371428Y-117682664D01*
X166371428Y-117682664D02*
X166333333Y-117720760D01*
X166333333Y-117720760D02*
X166257142Y-117758855D01*
X166257142Y-117758855D02*
X166028571Y-117758855D01*
X166028571Y-117758855D02*
X165952380Y-117720760D01*
X165952380Y-117720760D02*
X165914285Y-117682664D01*
X110433332Y-80800760D02*
X110547618Y-80838855D01*
X110547618Y-80838855D02*
X110738094Y-80838855D01*
X110738094Y-80838855D02*
X110814285Y-80800760D01*
X110814285Y-80800760D02*
X110852380Y-80762664D01*
X110852380Y-80762664D02*
X110890475Y-80686474D01*
X110890475Y-80686474D02*
X110890475Y-80610283D01*
X110890475Y-80610283D02*
X110852380Y-80534093D01*
X110852380Y-80534093D02*
X110814285Y-80495998D01*
X110814285Y-80495998D02*
X110738094Y-80457902D01*
X110738094Y-80457902D02*
X110585713Y-80419807D01*
X110585713Y-80419807D02*
X110509523Y-80381712D01*
X110509523Y-80381712D02*
X110471428Y-80343617D01*
X110471428Y-80343617D02*
X110433332Y-80267426D01*
X110433332Y-80267426D02*
X110433332Y-80191236D01*
X110433332Y-80191236D02*
X110471428Y-80115045D01*
X110471428Y-80115045D02*
X110509523Y-80076950D01*
X110509523Y-80076950D02*
X110585713Y-80038855D01*
X110585713Y-80038855D02*
X110776190Y-80038855D01*
X110776190Y-80038855D02*
X110890475Y-80076950D01*
X111157142Y-80038855D02*
X111347618Y-80838855D01*
X111347618Y-80838855D02*
X111499999Y-80267426D01*
X111499999Y-80267426D02*
X111652380Y-80838855D01*
X111652380Y-80838855D02*
X111842857Y-80038855D01*
X112109523Y-80115045D02*
X112147619Y-80076950D01*
X112147619Y-80076950D02*
X112223809Y-80038855D01*
X112223809Y-80038855D02*
X112414285Y-80038855D01*
X112414285Y-80038855D02*
X112490476Y-80076950D01*
X112490476Y-80076950D02*
X112528571Y-80115045D01*
X112528571Y-80115045D02*
X112566666Y-80191236D01*
X112566666Y-80191236D02*
X112566666Y-80267426D01*
X112566666Y-80267426D02*
X112528571Y-80381712D01*
X112528571Y-80381712D02*
X112071428Y-80838855D01*
X112071428Y-80838855D02*
X112566666Y-80838855D01*
X156085714Y-85082664D02*
X156047618Y-85120760D01*
X156047618Y-85120760D02*
X155933333Y-85158855D01*
X155933333Y-85158855D02*
X155857142Y-85158855D01*
X155857142Y-85158855D02*
X155742856Y-85120760D01*
X155742856Y-85120760D02*
X155666666Y-85044569D01*
X155666666Y-85044569D02*
X155628571Y-84968379D01*
X155628571Y-84968379D02*
X155590475Y-84815998D01*
X155590475Y-84815998D02*
X155590475Y-84701712D01*
X155590475Y-84701712D02*
X155628571Y-84549331D01*
X155628571Y-84549331D02*
X155666666Y-84473140D01*
X155666666Y-84473140D02*
X155742856Y-84396950D01*
X155742856Y-84396950D02*
X155857142Y-84358855D01*
X155857142Y-84358855D02*
X155933333Y-84358855D01*
X155933333Y-84358855D02*
X156047618Y-84396950D01*
X156047618Y-84396950D02*
X156085714Y-84435045D01*
X156390475Y-84435045D02*
X156428571Y-84396950D01*
X156428571Y-84396950D02*
X156504761Y-84358855D01*
X156504761Y-84358855D02*
X156695237Y-84358855D01*
X156695237Y-84358855D02*
X156771428Y-84396950D01*
X156771428Y-84396950D02*
X156809523Y-84435045D01*
X156809523Y-84435045D02*
X156847618Y-84511236D01*
X156847618Y-84511236D02*
X156847618Y-84587426D01*
X156847618Y-84587426D02*
X156809523Y-84701712D01*
X156809523Y-84701712D02*
X156352380Y-85158855D01*
X156352380Y-85158855D02*
X156847618Y-85158855D01*
X157114285Y-84358855D02*
X157647619Y-84358855D01*
X157647619Y-84358855D02*
X157304761Y-85158855D01*
X146085714Y-107632664D02*
X146047618Y-107670760D01*
X146047618Y-107670760D02*
X145933333Y-107708855D01*
X145933333Y-107708855D02*
X145857142Y-107708855D01*
X145857142Y-107708855D02*
X145742856Y-107670760D01*
X145742856Y-107670760D02*
X145666666Y-107594569D01*
X145666666Y-107594569D02*
X145628571Y-107518379D01*
X145628571Y-107518379D02*
X145590475Y-107365998D01*
X145590475Y-107365998D02*
X145590475Y-107251712D01*
X145590475Y-107251712D02*
X145628571Y-107099331D01*
X145628571Y-107099331D02*
X145666666Y-107023140D01*
X145666666Y-107023140D02*
X145742856Y-106946950D01*
X145742856Y-106946950D02*
X145857142Y-106908855D01*
X145857142Y-106908855D02*
X145933333Y-106908855D01*
X145933333Y-106908855D02*
X146047618Y-106946950D01*
X146047618Y-106946950D02*
X146085714Y-106985045D01*
X146847618Y-107708855D02*
X146390475Y-107708855D01*
X146619047Y-107708855D02*
X146619047Y-106908855D01*
X146619047Y-106908855D02*
X146542856Y-107023140D01*
X146542856Y-107023140D02*
X146466666Y-107099331D01*
X146466666Y-107099331D02*
X146390475Y-107137426D01*
X147533333Y-107175521D02*
X147533333Y-107708855D01*
X147342857Y-106870760D02*
X147152380Y-107442188D01*
X147152380Y-107442188D02*
X147647619Y-107442188D01*
X128185712Y-92882664D02*
X128147616Y-92920760D01*
X128147616Y-92920760D02*
X128033331Y-92958855D01*
X128033331Y-92958855D02*
X127957140Y-92958855D01*
X127957140Y-92958855D02*
X127842854Y-92920760D01*
X127842854Y-92920760D02*
X127766664Y-92844569D01*
X127766664Y-92844569D02*
X127728569Y-92768379D01*
X127728569Y-92768379D02*
X127690473Y-92615998D01*
X127690473Y-92615998D02*
X127690473Y-92501712D01*
X127690473Y-92501712D02*
X127728569Y-92349331D01*
X127728569Y-92349331D02*
X127766664Y-92273140D01*
X127766664Y-92273140D02*
X127842854Y-92196950D01*
X127842854Y-92196950D02*
X127957140Y-92158855D01*
X127957140Y-92158855D02*
X128033331Y-92158855D01*
X128033331Y-92158855D02*
X128147616Y-92196950D01*
X128147616Y-92196950D02*
X128185712Y-92235045D01*
X128947616Y-92958855D02*
X128490473Y-92958855D01*
X128719045Y-92958855D02*
X128719045Y-92158855D01*
X128719045Y-92158855D02*
X128642854Y-92273140D01*
X128642854Y-92273140D02*
X128566664Y-92349331D01*
X128566664Y-92349331D02*
X128490473Y-92387426D01*
X129252378Y-92235045D02*
X129290474Y-92196950D01*
X129290474Y-92196950D02*
X129366664Y-92158855D01*
X129366664Y-92158855D02*
X129557140Y-92158855D01*
X129557140Y-92158855D02*
X129633331Y-92196950D01*
X129633331Y-92196950D02*
X129671426Y-92235045D01*
X129671426Y-92235045D02*
X129709521Y-92311236D01*
X129709521Y-92311236D02*
X129709521Y-92387426D01*
X129709521Y-92387426D02*
X129671426Y-92501712D01*
X129671426Y-92501712D02*
X129214283Y-92958855D01*
X129214283Y-92958855D02*
X129709521Y-92958855D01*
X164885714Y-113082664D02*
X164847618Y-113120760D01*
X164847618Y-113120760D02*
X164733333Y-113158855D01*
X164733333Y-113158855D02*
X164657142Y-113158855D01*
X164657142Y-113158855D02*
X164542856Y-113120760D01*
X164542856Y-113120760D02*
X164466666Y-113044569D01*
X164466666Y-113044569D02*
X164428571Y-112968379D01*
X164428571Y-112968379D02*
X164390475Y-112815998D01*
X164390475Y-112815998D02*
X164390475Y-112701712D01*
X164390475Y-112701712D02*
X164428571Y-112549331D01*
X164428571Y-112549331D02*
X164466666Y-112473140D01*
X164466666Y-112473140D02*
X164542856Y-112396950D01*
X164542856Y-112396950D02*
X164657142Y-112358855D01*
X164657142Y-112358855D02*
X164733333Y-112358855D01*
X164733333Y-112358855D02*
X164847618Y-112396950D01*
X164847618Y-112396950D02*
X164885714Y-112435045D01*
X165190475Y-112435045D02*
X165228571Y-112396950D01*
X165228571Y-112396950D02*
X165304761Y-112358855D01*
X165304761Y-112358855D02*
X165495237Y-112358855D01*
X165495237Y-112358855D02*
X165571428Y-112396950D01*
X165571428Y-112396950D02*
X165609523Y-112435045D01*
X165609523Y-112435045D02*
X165647618Y-112511236D01*
X165647618Y-112511236D02*
X165647618Y-112587426D01*
X165647618Y-112587426D02*
X165609523Y-112701712D01*
X165609523Y-112701712D02*
X165152380Y-113158855D01*
X165152380Y-113158855D02*
X165647618Y-113158855D01*
X165952380Y-112435045D02*
X165990476Y-112396950D01*
X165990476Y-112396950D02*
X166066666Y-112358855D01*
X166066666Y-112358855D02*
X166257142Y-112358855D01*
X166257142Y-112358855D02*
X166333333Y-112396950D01*
X166333333Y-112396950D02*
X166371428Y-112435045D01*
X166371428Y-112435045D02*
X166409523Y-112511236D01*
X166409523Y-112511236D02*
X166409523Y-112587426D01*
X166409523Y-112587426D02*
X166371428Y-112701712D01*
X166371428Y-112701712D02*
X165914285Y-113158855D01*
X165914285Y-113158855D02*
X166409523Y-113158855D01*
X140890476Y-108978854D02*
X140890476Y-109626473D01*
X140890476Y-109626473D02*
X140928571Y-109702663D01*
X140928571Y-109702663D02*
X140966666Y-109740759D01*
X140966666Y-109740759D02*
X141042857Y-109778854D01*
X141042857Y-109778854D02*
X141195238Y-109778854D01*
X141195238Y-109778854D02*
X141271428Y-109740759D01*
X141271428Y-109740759D02*
X141309523Y-109702663D01*
X141309523Y-109702663D02*
X141347619Y-109626473D01*
X141347619Y-109626473D02*
X141347619Y-108978854D01*
X141690475Y-109055044D02*
X141728571Y-109016949D01*
X141728571Y-109016949D02*
X141804761Y-108978854D01*
X141804761Y-108978854D02*
X141995237Y-108978854D01*
X141995237Y-108978854D02*
X142071428Y-109016949D01*
X142071428Y-109016949D02*
X142109523Y-109055044D01*
X142109523Y-109055044D02*
X142147618Y-109131235D01*
X142147618Y-109131235D02*
X142147618Y-109207425D01*
X142147618Y-109207425D02*
X142109523Y-109321711D01*
X142109523Y-109321711D02*
X141652380Y-109778854D01*
X141652380Y-109778854D02*
X142147618Y-109778854D01*
X160879714Y-94687664D02*
X160841618Y-94725760D01*
X160841618Y-94725760D02*
X160727333Y-94763855D01*
X160727333Y-94763855D02*
X160651142Y-94763855D01*
X160651142Y-94763855D02*
X160536856Y-94725760D01*
X160536856Y-94725760D02*
X160460666Y-94649569D01*
X160460666Y-94649569D02*
X160422571Y-94573379D01*
X160422571Y-94573379D02*
X160384475Y-94420998D01*
X160384475Y-94420998D02*
X160384475Y-94306712D01*
X160384475Y-94306712D02*
X160422571Y-94154331D01*
X160422571Y-94154331D02*
X160460666Y-94078140D01*
X160460666Y-94078140D02*
X160536856Y-94001950D01*
X160536856Y-94001950D02*
X160651142Y-93963855D01*
X160651142Y-93963855D02*
X160727333Y-93963855D01*
X160727333Y-93963855D02*
X160841618Y-94001950D01*
X160841618Y-94001950D02*
X160879714Y-94040045D01*
X161184475Y-94040045D02*
X161222571Y-94001950D01*
X161222571Y-94001950D02*
X161298761Y-93963855D01*
X161298761Y-93963855D02*
X161489237Y-93963855D01*
X161489237Y-93963855D02*
X161565428Y-94001950D01*
X161565428Y-94001950D02*
X161603523Y-94040045D01*
X161603523Y-94040045D02*
X161641618Y-94116236D01*
X161641618Y-94116236D02*
X161641618Y-94192426D01*
X161641618Y-94192426D02*
X161603523Y-94306712D01*
X161603523Y-94306712D02*
X161146380Y-94763855D01*
X161146380Y-94763855D02*
X161641618Y-94763855D01*
X162327333Y-93963855D02*
X162174952Y-93963855D01*
X162174952Y-93963855D02*
X162098761Y-94001950D01*
X162098761Y-94001950D02*
X162060666Y-94040045D01*
X162060666Y-94040045D02*
X161984476Y-94154331D01*
X161984476Y-94154331D02*
X161946380Y-94306712D01*
X161946380Y-94306712D02*
X161946380Y-94611474D01*
X161946380Y-94611474D02*
X161984476Y-94687664D01*
X161984476Y-94687664D02*
X162022571Y-94725760D01*
X162022571Y-94725760D02*
X162098761Y-94763855D01*
X162098761Y-94763855D02*
X162251142Y-94763855D01*
X162251142Y-94763855D02*
X162327333Y-94725760D01*
X162327333Y-94725760D02*
X162365428Y-94687664D01*
X162365428Y-94687664D02*
X162403523Y-94611474D01*
X162403523Y-94611474D02*
X162403523Y-94420998D01*
X162403523Y-94420998D02*
X162365428Y-94344807D01*
X162365428Y-94344807D02*
X162327333Y-94306712D01*
X162327333Y-94306712D02*
X162251142Y-94268617D01*
X162251142Y-94268617D02*
X162098761Y-94268617D01*
X162098761Y-94268617D02*
X162022571Y-94306712D01*
X162022571Y-94306712D02*
X161984476Y-94344807D01*
X161984476Y-94344807D02*
X161946380Y-94420998D01*
X136822667Y-117363855D02*
X136556000Y-116982902D01*
X136365524Y-117363855D02*
X136365524Y-116563855D01*
X136365524Y-116563855D02*
X136670286Y-116563855D01*
X136670286Y-116563855D02*
X136746476Y-116601950D01*
X136746476Y-116601950D02*
X136784571Y-116640045D01*
X136784571Y-116640045D02*
X136822667Y-116716236D01*
X136822667Y-116716236D02*
X136822667Y-116830521D01*
X136822667Y-116830521D02*
X136784571Y-116906712D01*
X136784571Y-116906712D02*
X136746476Y-116944807D01*
X136746476Y-116944807D02*
X136670286Y-116982902D01*
X136670286Y-116982902D02*
X136365524Y-116982902D01*
X137089333Y-116563855D02*
X137584571Y-116563855D01*
X137584571Y-116563855D02*
X137317905Y-116868617D01*
X137317905Y-116868617D02*
X137432190Y-116868617D01*
X137432190Y-116868617D02*
X137508381Y-116906712D01*
X137508381Y-116906712D02*
X137546476Y-116944807D01*
X137546476Y-116944807D02*
X137584571Y-117020998D01*
X137584571Y-117020998D02*
X137584571Y-117211474D01*
X137584571Y-117211474D02*
X137546476Y-117287664D01*
X137546476Y-117287664D02*
X137508381Y-117325760D01*
X137508381Y-117325760D02*
X137432190Y-117363855D01*
X137432190Y-117363855D02*
X137203619Y-117363855D01*
X137203619Y-117363855D02*
X137127428Y-117325760D01*
X137127428Y-117325760D02*
X137089333Y-117287664D01*
X111991714Y-78963855D02*
X111725047Y-78582902D01*
X111534571Y-78963855D02*
X111534571Y-78163855D01*
X111534571Y-78163855D02*
X111839333Y-78163855D01*
X111839333Y-78163855D02*
X111915523Y-78201950D01*
X111915523Y-78201950D02*
X111953618Y-78240045D01*
X111953618Y-78240045D02*
X111991714Y-78316236D01*
X111991714Y-78316236D02*
X111991714Y-78430521D01*
X111991714Y-78430521D02*
X111953618Y-78506712D01*
X111953618Y-78506712D02*
X111915523Y-78544807D01*
X111915523Y-78544807D02*
X111839333Y-78582902D01*
X111839333Y-78582902D02*
X111534571Y-78582902D01*
X112753618Y-78963855D02*
X112296475Y-78963855D01*
X112525047Y-78963855D02*
X112525047Y-78163855D01*
X112525047Y-78163855D02*
X112448856Y-78278140D01*
X112448856Y-78278140D02*
X112372666Y-78354331D01*
X112372666Y-78354331D02*
X112296475Y-78392426D01*
X113210761Y-78506712D02*
X113134571Y-78468617D01*
X113134571Y-78468617D02*
X113096476Y-78430521D01*
X113096476Y-78430521D02*
X113058380Y-78354331D01*
X113058380Y-78354331D02*
X113058380Y-78316236D01*
X113058380Y-78316236D02*
X113096476Y-78240045D01*
X113096476Y-78240045D02*
X113134571Y-78201950D01*
X113134571Y-78201950D02*
X113210761Y-78163855D01*
X113210761Y-78163855D02*
X113363142Y-78163855D01*
X113363142Y-78163855D02*
X113439333Y-78201950D01*
X113439333Y-78201950D02*
X113477428Y-78240045D01*
X113477428Y-78240045D02*
X113515523Y-78316236D01*
X113515523Y-78316236D02*
X113515523Y-78354331D01*
X113515523Y-78354331D02*
X113477428Y-78430521D01*
X113477428Y-78430521D02*
X113439333Y-78468617D01*
X113439333Y-78468617D02*
X113363142Y-78506712D01*
X113363142Y-78506712D02*
X113210761Y-78506712D01*
X113210761Y-78506712D02*
X113134571Y-78544807D01*
X113134571Y-78544807D02*
X113096476Y-78582902D01*
X113096476Y-78582902D02*
X113058380Y-78659093D01*
X113058380Y-78659093D02*
X113058380Y-78811474D01*
X113058380Y-78811474D02*
X113096476Y-78887664D01*
X113096476Y-78887664D02*
X113134571Y-78925760D01*
X113134571Y-78925760D02*
X113210761Y-78963855D01*
X113210761Y-78963855D02*
X113363142Y-78963855D01*
X113363142Y-78963855D02*
X113439333Y-78925760D01*
X113439333Y-78925760D02*
X113477428Y-78887664D01*
X113477428Y-78887664D02*
X113515523Y-78811474D01*
X113515523Y-78811474D02*
X113515523Y-78659093D01*
X113515523Y-78659093D02*
X113477428Y-78582902D01*
X113477428Y-78582902D02*
X113439333Y-78544807D01*
X113439333Y-78544807D02*
X113363142Y-78506712D01*
X152085714Y-92312664D02*
X152047618Y-92350760D01*
X152047618Y-92350760D02*
X151933333Y-92388855D01*
X151933333Y-92388855D02*
X151857142Y-92388855D01*
X151857142Y-92388855D02*
X151742856Y-92350760D01*
X151742856Y-92350760D02*
X151666666Y-92274569D01*
X151666666Y-92274569D02*
X151628571Y-92198379D01*
X151628571Y-92198379D02*
X151590475Y-92045998D01*
X151590475Y-92045998D02*
X151590475Y-91931712D01*
X151590475Y-91931712D02*
X151628571Y-91779331D01*
X151628571Y-91779331D02*
X151666666Y-91703140D01*
X151666666Y-91703140D02*
X151742856Y-91626950D01*
X151742856Y-91626950D02*
X151857142Y-91588855D01*
X151857142Y-91588855D02*
X151933333Y-91588855D01*
X151933333Y-91588855D02*
X152047618Y-91626950D01*
X152047618Y-91626950D02*
X152085714Y-91665045D01*
X152352380Y-91588855D02*
X152847618Y-91588855D01*
X152847618Y-91588855D02*
X152580952Y-91893617D01*
X152580952Y-91893617D02*
X152695237Y-91893617D01*
X152695237Y-91893617D02*
X152771428Y-91931712D01*
X152771428Y-91931712D02*
X152809523Y-91969807D01*
X152809523Y-91969807D02*
X152847618Y-92045998D01*
X152847618Y-92045998D02*
X152847618Y-92236474D01*
X152847618Y-92236474D02*
X152809523Y-92312664D01*
X152809523Y-92312664D02*
X152771428Y-92350760D01*
X152771428Y-92350760D02*
X152695237Y-92388855D01*
X152695237Y-92388855D02*
X152466666Y-92388855D01*
X152466666Y-92388855D02*
X152390475Y-92350760D01*
X152390475Y-92350760D02*
X152352380Y-92312664D01*
X153342857Y-91588855D02*
X153419047Y-91588855D01*
X153419047Y-91588855D02*
X153495238Y-91626950D01*
X153495238Y-91626950D02*
X153533333Y-91665045D01*
X153533333Y-91665045D02*
X153571428Y-91741236D01*
X153571428Y-91741236D02*
X153609523Y-91893617D01*
X153609523Y-91893617D02*
X153609523Y-92084093D01*
X153609523Y-92084093D02*
X153571428Y-92236474D01*
X153571428Y-92236474D02*
X153533333Y-92312664D01*
X153533333Y-92312664D02*
X153495238Y-92350760D01*
X153495238Y-92350760D02*
X153419047Y-92388855D01*
X153419047Y-92388855D02*
X153342857Y-92388855D01*
X153342857Y-92388855D02*
X153266666Y-92350760D01*
X153266666Y-92350760D02*
X153228571Y-92312664D01*
X153228571Y-92312664D02*
X153190476Y-92236474D01*
X153190476Y-92236474D02*
X153152380Y-92084093D01*
X153152380Y-92084093D02*
X153152380Y-91893617D01*
X153152380Y-91893617D02*
X153190476Y-91741236D01*
X153190476Y-91741236D02*
X153228571Y-91665045D01*
X153228571Y-91665045D02*
X153266666Y-91626950D01*
X153266666Y-91626950D02*
X153342857Y-91588855D01*
X167866667Y-86448854D02*
X167600000Y-86067901D01*
X167409524Y-86448854D02*
X167409524Y-85648854D01*
X167409524Y-85648854D02*
X167714286Y-85648854D01*
X167714286Y-85648854D02*
X167790476Y-85686949D01*
X167790476Y-85686949D02*
X167828571Y-85725044D01*
X167828571Y-85725044D02*
X167866667Y-85801235D01*
X167866667Y-85801235D02*
X167866667Y-85915520D01*
X167866667Y-85915520D02*
X167828571Y-85991711D01*
X167828571Y-85991711D02*
X167790476Y-86029806D01*
X167790476Y-86029806D02*
X167714286Y-86067901D01*
X167714286Y-86067901D02*
X167409524Y-86067901D01*
X168247619Y-86448854D02*
X168400000Y-86448854D01*
X168400000Y-86448854D02*
X168476190Y-86410759D01*
X168476190Y-86410759D02*
X168514286Y-86372663D01*
X168514286Y-86372663D02*
X168590476Y-86258378D01*
X168590476Y-86258378D02*
X168628571Y-86105997D01*
X168628571Y-86105997D02*
X168628571Y-85801235D01*
X168628571Y-85801235D02*
X168590476Y-85725044D01*
X168590476Y-85725044D02*
X168552381Y-85686949D01*
X168552381Y-85686949D02*
X168476190Y-85648854D01*
X168476190Y-85648854D02*
X168323809Y-85648854D01*
X168323809Y-85648854D02*
X168247619Y-85686949D01*
X168247619Y-85686949D02*
X168209524Y-85725044D01*
X168209524Y-85725044D02*
X168171428Y-85801235D01*
X168171428Y-85801235D02*
X168171428Y-85991711D01*
X168171428Y-85991711D02*
X168209524Y-86067901D01*
X168209524Y-86067901D02*
X168247619Y-86105997D01*
X168247619Y-86105997D02*
X168323809Y-86144092D01*
X168323809Y-86144092D02*
X168476190Y-86144092D01*
X168476190Y-86144092D02*
X168552381Y-86105997D01*
X168552381Y-86105997D02*
X168590476Y-86067901D01*
X168590476Y-86067901D02*
X168628571Y-85991711D01*
X131390476Y-106418854D02*
X131390476Y-107066473D01*
X131390476Y-107066473D02*
X131428571Y-107142663D01*
X131428571Y-107142663D02*
X131466666Y-107180759D01*
X131466666Y-107180759D02*
X131542857Y-107218854D01*
X131542857Y-107218854D02*
X131695238Y-107218854D01*
X131695238Y-107218854D02*
X131771428Y-107180759D01*
X131771428Y-107180759D02*
X131809523Y-107142663D01*
X131809523Y-107142663D02*
X131847619Y-107066473D01*
X131847619Y-107066473D02*
X131847619Y-106418854D01*
X132647618Y-107218854D02*
X132190475Y-107218854D01*
X132419047Y-107218854D02*
X132419047Y-106418854D01*
X132419047Y-106418854D02*
X132342856Y-106533139D01*
X132342856Y-106533139D02*
X132266666Y-106609330D01*
X132266666Y-106609330D02*
X132190475Y-106647425D01*
X131666667Y-111482664D02*
X131628571Y-111520760D01*
X131628571Y-111520760D02*
X131514286Y-111558855D01*
X131514286Y-111558855D02*
X131438095Y-111558855D01*
X131438095Y-111558855D02*
X131323809Y-111520760D01*
X131323809Y-111520760D02*
X131247619Y-111444569D01*
X131247619Y-111444569D02*
X131209524Y-111368379D01*
X131209524Y-111368379D02*
X131171428Y-111215998D01*
X131171428Y-111215998D02*
X131171428Y-111101712D01*
X131171428Y-111101712D02*
X131209524Y-110949331D01*
X131209524Y-110949331D02*
X131247619Y-110873140D01*
X131247619Y-110873140D02*
X131323809Y-110796950D01*
X131323809Y-110796950D02*
X131438095Y-110758855D01*
X131438095Y-110758855D02*
X131514286Y-110758855D01*
X131514286Y-110758855D02*
X131628571Y-110796950D01*
X131628571Y-110796950D02*
X131666667Y-110835045D01*
X131933333Y-110758855D02*
X132466667Y-110758855D01*
X132466667Y-110758855D02*
X132123809Y-111558855D01*
X137766667Y-104832664D02*
X137728571Y-104870760D01*
X137728571Y-104870760D02*
X137614286Y-104908855D01*
X137614286Y-104908855D02*
X137538095Y-104908855D01*
X137538095Y-104908855D02*
X137423809Y-104870760D01*
X137423809Y-104870760D02*
X137347619Y-104794569D01*
X137347619Y-104794569D02*
X137309524Y-104718379D01*
X137309524Y-104718379D02*
X137271428Y-104565998D01*
X137271428Y-104565998D02*
X137271428Y-104451712D01*
X137271428Y-104451712D02*
X137309524Y-104299331D01*
X137309524Y-104299331D02*
X137347619Y-104223140D01*
X137347619Y-104223140D02*
X137423809Y-104146950D01*
X137423809Y-104146950D02*
X137538095Y-104108855D01*
X137538095Y-104108855D02*
X137614286Y-104108855D01*
X137614286Y-104108855D02*
X137728571Y-104146950D01*
X137728571Y-104146950D02*
X137766667Y-104185045D01*
X138071428Y-104185045D02*
X138109524Y-104146950D01*
X138109524Y-104146950D02*
X138185714Y-104108855D01*
X138185714Y-104108855D02*
X138376190Y-104108855D01*
X138376190Y-104108855D02*
X138452381Y-104146950D01*
X138452381Y-104146950D02*
X138490476Y-104185045D01*
X138490476Y-104185045D02*
X138528571Y-104261236D01*
X138528571Y-104261236D02*
X138528571Y-104337426D01*
X138528571Y-104337426D02*
X138490476Y-104451712D01*
X138490476Y-104451712D02*
X138033333Y-104908855D01*
X138033333Y-104908855D02*
X138528571Y-104908855D01*
X125466667Y-103632664D02*
X125428571Y-103670760D01*
X125428571Y-103670760D02*
X125314286Y-103708855D01*
X125314286Y-103708855D02*
X125238095Y-103708855D01*
X125238095Y-103708855D02*
X125123809Y-103670760D01*
X125123809Y-103670760D02*
X125047619Y-103594569D01*
X125047619Y-103594569D02*
X125009524Y-103518379D01*
X125009524Y-103518379D02*
X124971428Y-103365998D01*
X124971428Y-103365998D02*
X124971428Y-103251712D01*
X124971428Y-103251712D02*
X125009524Y-103099331D01*
X125009524Y-103099331D02*
X125047619Y-103023140D01*
X125047619Y-103023140D02*
X125123809Y-102946950D01*
X125123809Y-102946950D02*
X125238095Y-102908855D01*
X125238095Y-102908855D02*
X125314286Y-102908855D01*
X125314286Y-102908855D02*
X125428571Y-102946950D01*
X125428571Y-102946950D02*
X125466667Y-102985045D01*
X126152381Y-102908855D02*
X126000000Y-102908855D01*
X126000000Y-102908855D02*
X125923809Y-102946950D01*
X125923809Y-102946950D02*
X125885714Y-102985045D01*
X125885714Y-102985045D02*
X125809524Y-103099331D01*
X125809524Y-103099331D02*
X125771428Y-103251712D01*
X125771428Y-103251712D02*
X125771428Y-103556474D01*
X125771428Y-103556474D02*
X125809524Y-103632664D01*
X125809524Y-103632664D02*
X125847619Y-103670760D01*
X125847619Y-103670760D02*
X125923809Y-103708855D01*
X125923809Y-103708855D02*
X126076190Y-103708855D01*
X126076190Y-103708855D02*
X126152381Y-103670760D01*
X126152381Y-103670760D02*
X126190476Y-103632664D01*
X126190476Y-103632664D02*
X126228571Y-103556474D01*
X126228571Y-103556474D02*
X126228571Y-103365998D01*
X126228571Y-103365998D02*
X126190476Y-103289807D01*
X126190476Y-103289807D02*
X126152381Y-103251712D01*
X126152381Y-103251712D02*
X126076190Y-103213617D01*
X126076190Y-103213617D02*
X125923809Y-103213617D01*
X125923809Y-103213617D02*
X125847619Y-103251712D01*
X125847619Y-103251712D02*
X125809524Y-103289807D01*
X125809524Y-103289807D02*
X125771428Y-103365998D01*
X148285714Y-92568854D02*
X148019047Y-92187901D01*
X147828571Y-92568854D02*
X147828571Y-91768854D01*
X147828571Y-91768854D02*
X148133333Y-91768854D01*
X148133333Y-91768854D02*
X148209523Y-91806949D01*
X148209523Y-91806949D02*
X148247618Y-91845044D01*
X148247618Y-91845044D02*
X148285714Y-91921235D01*
X148285714Y-91921235D02*
X148285714Y-92035520D01*
X148285714Y-92035520D02*
X148247618Y-92111711D01*
X148247618Y-92111711D02*
X148209523Y-92149806D01*
X148209523Y-92149806D02*
X148133333Y-92187901D01*
X148133333Y-92187901D02*
X147828571Y-92187901D01*
X149047618Y-92568854D02*
X148590475Y-92568854D01*
X148819047Y-92568854D02*
X148819047Y-91768854D01*
X148819047Y-91768854D02*
X148742856Y-91883139D01*
X148742856Y-91883139D02*
X148666666Y-91959330D01*
X148666666Y-91959330D02*
X148590475Y-91997425D01*
X149771428Y-91768854D02*
X149390476Y-91768854D01*
X149390476Y-91768854D02*
X149352380Y-92149806D01*
X149352380Y-92149806D02*
X149390476Y-92111711D01*
X149390476Y-92111711D02*
X149466666Y-92073616D01*
X149466666Y-92073616D02*
X149657142Y-92073616D01*
X149657142Y-92073616D02*
X149733333Y-92111711D01*
X149733333Y-92111711D02*
X149771428Y-92149806D01*
X149771428Y-92149806D02*
X149809523Y-92225997D01*
X149809523Y-92225997D02*
X149809523Y-92416473D01*
X149809523Y-92416473D02*
X149771428Y-92492663D01*
X149771428Y-92492663D02*
X149733333Y-92530759D01*
X149733333Y-92530759D02*
X149657142Y-92568854D01*
X149657142Y-92568854D02*
X149466666Y-92568854D01*
X149466666Y-92568854D02*
X149390476Y-92530759D01*
X149390476Y-92530759D02*
X149352380Y-92492663D01*
X173633333Y-78588854D02*
X173633333Y-79160282D01*
X173633333Y-79160282D02*
X173595238Y-79274568D01*
X173595238Y-79274568D02*
X173519047Y-79350759D01*
X173519047Y-79350759D02*
X173404762Y-79388854D01*
X173404762Y-79388854D02*
X173328571Y-79388854D01*
X173938095Y-78588854D02*
X174433333Y-78588854D01*
X174433333Y-78588854D02*
X174166667Y-78893616D01*
X174166667Y-78893616D02*
X174280952Y-78893616D01*
X174280952Y-78893616D02*
X174357143Y-78931711D01*
X174357143Y-78931711D02*
X174395238Y-78969806D01*
X174395238Y-78969806D02*
X174433333Y-79045997D01*
X174433333Y-79045997D02*
X174433333Y-79236473D01*
X174433333Y-79236473D02*
X174395238Y-79312663D01*
X174395238Y-79312663D02*
X174357143Y-79350759D01*
X174357143Y-79350759D02*
X174280952Y-79388854D01*
X174280952Y-79388854D02*
X174052381Y-79388854D01*
X174052381Y-79388854D02*
X173976190Y-79350759D01*
X173976190Y-79350759D02*
X173938095Y-79312663D01*
X120509333Y-74163855D02*
X120509333Y-74735283D01*
X120509333Y-74735283D02*
X120471238Y-74849569D01*
X120471238Y-74849569D02*
X120395047Y-74925760D01*
X120395047Y-74925760D02*
X120280762Y-74963855D01*
X120280762Y-74963855D02*
X120204571Y-74963855D01*
X120814095Y-74163855D02*
X121347429Y-74163855D01*
X121347429Y-74163855D02*
X121004571Y-74963855D01*
X132885714Y-115892663D02*
X132847618Y-115930759D01*
X132847618Y-115930759D02*
X132733333Y-115968854D01*
X132733333Y-115968854D02*
X132657142Y-115968854D01*
X132657142Y-115968854D02*
X132542856Y-115930759D01*
X132542856Y-115930759D02*
X132466666Y-115854568D01*
X132466666Y-115854568D02*
X132428571Y-115778378D01*
X132428571Y-115778378D02*
X132390475Y-115625997D01*
X132390475Y-115625997D02*
X132390475Y-115511711D01*
X132390475Y-115511711D02*
X132428571Y-115359330D01*
X132428571Y-115359330D02*
X132466666Y-115283139D01*
X132466666Y-115283139D02*
X132542856Y-115206949D01*
X132542856Y-115206949D02*
X132657142Y-115168854D01*
X132657142Y-115168854D02*
X132733333Y-115168854D01*
X132733333Y-115168854D02*
X132847618Y-115206949D01*
X132847618Y-115206949D02*
X132885714Y-115245044D01*
X133647618Y-115968854D02*
X133190475Y-115968854D01*
X133419047Y-115968854D02*
X133419047Y-115168854D01*
X133419047Y-115168854D02*
X133342856Y-115283139D01*
X133342856Y-115283139D02*
X133266666Y-115359330D01*
X133266666Y-115359330D02*
X133190475Y-115397425D01*
X133914285Y-115168854D02*
X134409523Y-115168854D01*
X134409523Y-115168854D02*
X134142857Y-115473616D01*
X134142857Y-115473616D02*
X134257142Y-115473616D01*
X134257142Y-115473616D02*
X134333333Y-115511711D01*
X134333333Y-115511711D02*
X134371428Y-115549806D01*
X134371428Y-115549806D02*
X134409523Y-115625997D01*
X134409523Y-115625997D02*
X134409523Y-115816473D01*
X134409523Y-115816473D02*
X134371428Y-115892663D01*
X134371428Y-115892663D02*
X134333333Y-115930759D01*
X134333333Y-115930759D02*
X134257142Y-115968854D01*
X134257142Y-115968854D02*
X134028571Y-115968854D01*
X134028571Y-115968854D02*
X133952380Y-115930759D01*
X133952380Y-115930759D02*
X133914285Y-115892663D01*
X118285714Y-122082664D02*
X118247618Y-122120760D01*
X118247618Y-122120760D02*
X118133333Y-122158855D01*
X118133333Y-122158855D02*
X118057142Y-122158855D01*
X118057142Y-122158855D02*
X117942856Y-122120760D01*
X117942856Y-122120760D02*
X117866666Y-122044569D01*
X117866666Y-122044569D02*
X117828571Y-121968379D01*
X117828571Y-121968379D02*
X117790475Y-121815998D01*
X117790475Y-121815998D02*
X117790475Y-121701712D01*
X117790475Y-121701712D02*
X117828571Y-121549331D01*
X117828571Y-121549331D02*
X117866666Y-121473140D01*
X117866666Y-121473140D02*
X117942856Y-121396950D01*
X117942856Y-121396950D02*
X118057142Y-121358855D01*
X118057142Y-121358855D02*
X118133333Y-121358855D01*
X118133333Y-121358855D02*
X118247618Y-121396950D01*
X118247618Y-121396950D02*
X118285714Y-121435045D01*
X119047618Y-122158855D02*
X118590475Y-122158855D01*
X118819047Y-122158855D02*
X118819047Y-121358855D01*
X118819047Y-121358855D02*
X118742856Y-121473140D01*
X118742856Y-121473140D02*
X118666666Y-121549331D01*
X118666666Y-121549331D02*
X118590475Y-121587426D01*
X119504761Y-121701712D02*
X119428571Y-121663617D01*
X119428571Y-121663617D02*
X119390476Y-121625521D01*
X119390476Y-121625521D02*
X119352380Y-121549331D01*
X119352380Y-121549331D02*
X119352380Y-121511236D01*
X119352380Y-121511236D02*
X119390476Y-121435045D01*
X119390476Y-121435045D02*
X119428571Y-121396950D01*
X119428571Y-121396950D02*
X119504761Y-121358855D01*
X119504761Y-121358855D02*
X119657142Y-121358855D01*
X119657142Y-121358855D02*
X119733333Y-121396950D01*
X119733333Y-121396950D02*
X119771428Y-121435045D01*
X119771428Y-121435045D02*
X119809523Y-121511236D01*
X119809523Y-121511236D02*
X119809523Y-121549331D01*
X119809523Y-121549331D02*
X119771428Y-121625521D01*
X119771428Y-121625521D02*
X119733333Y-121663617D01*
X119733333Y-121663617D02*
X119657142Y-121701712D01*
X119657142Y-121701712D02*
X119504761Y-121701712D01*
X119504761Y-121701712D02*
X119428571Y-121739807D01*
X119428571Y-121739807D02*
X119390476Y-121777902D01*
X119390476Y-121777902D02*
X119352380Y-121854093D01*
X119352380Y-121854093D02*
X119352380Y-122006474D01*
X119352380Y-122006474D02*
X119390476Y-122082664D01*
X119390476Y-122082664D02*
X119428571Y-122120760D01*
X119428571Y-122120760D02*
X119504761Y-122158855D01*
X119504761Y-122158855D02*
X119657142Y-122158855D01*
X119657142Y-122158855D02*
X119733333Y-122120760D01*
X119733333Y-122120760D02*
X119771428Y-122082664D01*
X119771428Y-122082664D02*
X119809523Y-122006474D01*
X119809523Y-122006474D02*
X119809523Y-121854093D01*
X119809523Y-121854093D02*
X119771428Y-121777902D01*
X119771428Y-121777902D02*
X119733333Y-121739807D01*
X119733333Y-121739807D02*
X119657142Y-121701712D01*
X130066665Y-115892663D02*
X130028569Y-115930759D01*
X130028569Y-115930759D02*
X129914284Y-115968854D01*
X129914284Y-115968854D02*
X129838093Y-115968854D01*
X129838093Y-115968854D02*
X129723807Y-115930759D01*
X129723807Y-115930759D02*
X129647617Y-115854568D01*
X129647617Y-115854568D02*
X129609522Y-115778378D01*
X129609522Y-115778378D02*
X129571426Y-115625997D01*
X129571426Y-115625997D02*
X129571426Y-115511711D01*
X129571426Y-115511711D02*
X129609522Y-115359330D01*
X129609522Y-115359330D02*
X129647617Y-115283139D01*
X129647617Y-115283139D02*
X129723807Y-115206949D01*
X129723807Y-115206949D02*
X129838093Y-115168854D01*
X129838093Y-115168854D02*
X129914284Y-115168854D01*
X129914284Y-115168854D02*
X130028569Y-115206949D01*
X130028569Y-115206949D02*
X130066665Y-115245044D01*
X130523807Y-115511711D02*
X130447617Y-115473616D01*
X130447617Y-115473616D02*
X130409522Y-115435520D01*
X130409522Y-115435520D02*
X130371426Y-115359330D01*
X130371426Y-115359330D02*
X130371426Y-115321235D01*
X130371426Y-115321235D02*
X130409522Y-115245044D01*
X130409522Y-115245044D02*
X130447617Y-115206949D01*
X130447617Y-115206949D02*
X130523807Y-115168854D01*
X130523807Y-115168854D02*
X130676188Y-115168854D01*
X130676188Y-115168854D02*
X130752379Y-115206949D01*
X130752379Y-115206949D02*
X130790474Y-115245044D01*
X130790474Y-115245044D02*
X130828569Y-115321235D01*
X130828569Y-115321235D02*
X130828569Y-115359330D01*
X130828569Y-115359330D02*
X130790474Y-115435520D01*
X130790474Y-115435520D02*
X130752379Y-115473616D01*
X130752379Y-115473616D02*
X130676188Y-115511711D01*
X130676188Y-115511711D02*
X130523807Y-115511711D01*
X130523807Y-115511711D02*
X130447617Y-115549806D01*
X130447617Y-115549806D02*
X130409522Y-115587901D01*
X130409522Y-115587901D02*
X130371426Y-115664092D01*
X130371426Y-115664092D02*
X130371426Y-115816473D01*
X130371426Y-115816473D02*
X130409522Y-115892663D01*
X130409522Y-115892663D02*
X130447617Y-115930759D01*
X130447617Y-115930759D02*
X130523807Y-115968854D01*
X130523807Y-115968854D02*
X130676188Y-115968854D01*
X130676188Y-115968854D02*
X130752379Y-115930759D01*
X130752379Y-115930759D02*
X130790474Y-115892663D01*
X130790474Y-115892663D02*
X130828569Y-115816473D01*
X130828569Y-115816473D02*
X130828569Y-115664092D01*
X130828569Y-115664092D02*
X130790474Y-115587901D01*
X130790474Y-115587901D02*
X130752379Y-115549806D01*
X130752379Y-115549806D02*
X130676188Y-115511711D01*
X131666667Y-93358855D02*
X131400000Y-92977902D01*
X131209524Y-93358855D02*
X131209524Y-92558855D01*
X131209524Y-92558855D02*
X131514286Y-92558855D01*
X131514286Y-92558855D02*
X131590476Y-92596950D01*
X131590476Y-92596950D02*
X131628571Y-92635045D01*
X131628571Y-92635045D02*
X131666667Y-92711236D01*
X131666667Y-92711236D02*
X131666667Y-92825521D01*
X131666667Y-92825521D02*
X131628571Y-92901712D01*
X131628571Y-92901712D02*
X131590476Y-92939807D01*
X131590476Y-92939807D02*
X131514286Y-92977902D01*
X131514286Y-92977902D02*
X131209524Y-92977902D01*
X132390476Y-92558855D02*
X132009524Y-92558855D01*
X132009524Y-92558855D02*
X131971428Y-92939807D01*
X131971428Y-92939807D02*
X132009524Y-92901712D01*
X132009524Y-92901712D02*
X132085714Y-92863617D01*
X132085714Y-92863617D02*
X132276190Y-92863617D01*
X132276190Y-92863617D02*
X132352381Y-92901712D01*
X132352381Y-92901712D02*
X132390476Y-92939807D01*
X132390476Y-92939807D02*
X132428571Y-93015998D01*
X132428571Y-93015998D02*
X132428571Y-93206474D01*
X132428571Y-93206474D02*
X132390476Y-93282664D01*
X132390476Y-93282664D02*
X132352381Y-93320760D01*
X132352381Y-93320760D02*
X132276190Y-93358855D01*
X132276190Y-93358855D02*
X132085714Y-93358855D01*
X132085714Y-93358855D02*
X132009524Y-93320760D01*
X132009524Y-93320760D02*
X131971428Y-93282664D01*
X136329713Y-96287664D02*
X136291617Y-96325760D01*
X136291617Y-96325760D02*
X136177332Y-96363855D01*
X136177332Y-96363855D02*
X136101141Y-96363855D01*
X136101141Y-96363855D02*
X135986855Y-96325760D01*
X135986855Y-96325760D02*
X135910665Y-96249569D01*
X135910665Y-96249569D02*
X135872570Y-96173379D01*
X135872570Y-96173379D02*
X135834474Y-96020998D01*
X135834474Y-96020998D02*
X135834474Y-95906712D01*
X135834474Y-95906712D02*
X135872570Y-95754331D01*
X135872570Y-95754331D02*
X135910665Y-95678140D01*
X135910665Y-95678140D02*
X135986855Y-95601950D01*
X135986855Y-95601950D02*
X136101141Y-95563855D01*
X136101141Y-95563855D02*
X136177332Y-95563855D01*
X136177332Y-95563855D02*
X136291617Y-95601950D01*
X136291617Y-95601950D02*
X136329713Y-95640045D01*
X137091617Y-96363855D02*
X136634474Y-96363855D01*
X136863046Y-96363855D02*
X136863046Y-95563855D01*
X136863046Y-95563855D02*
X136786855Y-95678140D01*
X136786855Y-95678140D02*
X136710665Y-95754331D01*
X136710665Y-95754331D02*
X136634474Y-95792426D01*
X137815427Y-95563855D02*
X137434475Y-95563855D01*
X137434475Y-95563855D02*
X137396379Y-95944807D01*
X137396379Y-95944807D02*
X137434475Y-95906712D01*
X137434475Y-95906712D02*
X137510665Y-95868617D01*
X137510665Y-95868617D02*
X137701141Y-95868617D01*
X137701141Y-95868617D02*
X137777332Y-95906712D01*
X137777332Y-95906712D02*
X137815427Y-95944807D01*
X137815427Y-95944807D02*
X137853522Y-96020998D01*
X137853522Y-96020998D02*
X137853522Y-96211474D01*
X137853522Y-96211474D02*
X137815427Y-96287664D01*
X137815427Y-96287664D02*
X137777332Y-96325760D01*
X137777332Y-96325760D02*
X137701141Y-96363855D01*
X137701141Y-96363855D02*
X137510665Y-96363855D01*
X137510665Y-96363855D02*
X137434475Y-96325760D01*
X137434475Y-96325760D02*
X137396379Y-96287664D01*
X141085714Y-92568854D02*
X140819047Y-92187901D01*
X140628571Y-92568854D02*
X140628571Y-91768854D01*
X140628571Y-91768854D02*
X140933333Y-91768854D01*
X140933333Y-91768854D02*
X141009523Y-91806949D01*
X141009523Y-91806949D02*
X141047618Y-91845044D01*
X141047618Y-91845044D02*
X141085714Y-91921235D01*
X141085714Y-91921235D02*
X141085714Y-92035520D01*
X141085714Y-92035520D02*
X141047618Y-92111711D01*
X141047618Y-92111711D02*
X141009523Y-92149806D01*
X141009523Y-92149806D02*
X140933333Y-92187901D01*
X140933333Y-92187901D02*
X140628571Y-92187901D01*
X141847618Y-92568854D02*
X141390475Y-92568854D01*
X141619047Y-92568854D02*
X141619047Y-91768854D01*
X141619047Y-91768854D02*
X141542856Y-91883139D01*
X141542856Y-91883139D02*
X141466666Y-91959330D01*
X141466666Y-91959330D02*
X141390475Y-91997425D01*
X142114285Y-91768854D02*
X142647619Y-91768854D01*
X142647619Y-91768854D02*
X142304761Y-92568854D01*
X167485714Y-111368855D02*
X167219047Y-110987902D01*
X167028571Y-111368855D02*
X167028571Y-110568855D01*
X167028571Y-110568855D02*
X167333333Y-110568855D01*
X167333333Y-110568855D02*
X167409523Y-110606950D01*
X167409523Y-110606950D02*
X167447618Y-110645045D01*
X167447618Y-110645045D02*
X167485714Y-110721236D01*
X167485714Y-110721236D02*
X167485714Y-110835521D01*
X167485714Y-110835521D02*
X167447618Y-110911712D01*
X167447618Y-110911712D02*
X167409523Y-110949807D01*
X167409523Y-110949807D02*
X167333333Y-110987902D01*
X167333333Y-110987902D02*
X167028571Y-110987902D01*
X168247618Y-111368855D02*
X167790475Y-111368855D01*
X168019047Y-111368855D02*
X168019047Y-110568855D01*
X168019047Y-110568855D02*
X167942856Y-110683140D01*
X167942856Y-110683140D02*
X167866666Y-110759331D01*
X167866666Y-110759331D02*
X167790475Y-110797426D01*
X168552380Y-110645045D02*
X168590476Y-110606950D01*
X168590476Y-110606950D02*
X168666666Y-110568855D01*
X168666666Y-110568855D02*
X168857142Y-110568855D01*
X168857142Y-110568855D02*
X168933333Y-110606950D01*
X168933333Y-110606950D02*
X168971428Y-110645045D01*
X168971428Y-110645045D02*
X169009523Y-110721236D01*
X169009523Y-110721236D02*
X169009523Y-110797426D01*
X169009523Y-110797426D02*
X168971428Y-110911712D01*
X168971428Y-110911712D02*
X168514285Y-111368855D01*
X168514285Y-111368855D02*
X169009523Y-111368855D01*
X167485714Y-81368855D02*
X167219047Y-80987902D01*
X167028571Y-81368855D02*
X167028571Y-80568855D01*
X167028571Y-80568855D02*
X167333333Y-80568855D01*
X167333333Y-80568855D02*
X167409523Y-80606950D01*
X167409523Y-80606950D02*
X167447618Y-80645045D01*
X167447618Y-80645045D02*
X167485714Y-80721236D01*
X167485714Y-80721236D02*
X167485714Y-80835521D01*
X167485714Y-80835521D02*
X167447618Y-80911712D01*
X167447618Y-80911712D02*
X167409523Y-80949807D01*
X167409523Y-80949807D02*
X167333333Y-80987902D01*
X167333333Y-80987902D02*
X167028571Y-80987902D01*
X168247618Y-81368855D02*
X167790475Y-81368855D01*
X168019047Y-81368855D02*
X168019047Y-80568855D01*
X168019047Y-80568855D02*
X167942856Y-80683140D01*
X167942856Y-80683140D02*
X167866666Y-80759331D01*
X167866666Y-80759331D02*
X167790475Y-80797426D01*
X168742857Y-80568855D02*
X168819047Y-80568855D01*
X168819047Y-80568855D02*
X168895238Y-80606950D01*
X168895238Y-80606950D02*
X168933333Y-80645045D01*
X168933333Y-80645045D02*
X168971428Y-80721236D01*
X168971428Y-80721236D02*
X169009523Y-80873617D01*
X169009523Y-80873617D02*
X169009523Y-81064093D01*
X169009523Y-81064093D02*
X168971428Y-81216474D01*
X168971428Y-81216474D02*
X168933333Y-81292664D01*
X168933333Y-81292664D02*
X168895238Y-81330760D01*
X168895238Y-81330760D02*
X168819047Y-81368855D01*
X168819047Y-81368855D02*
X168742857Y-81368855D01*
X168742857Y-81368855D02*
X168666666Y-81330760D01*
X168666666Y-81330760D02*
X168628571Y-81292664D01*
X168628571Y-81292664D02*
X168590476Y-81216474D01*
X168590476Y-81216474D02*
X168552380Y-81064093D01*
X168552380Y-81064093D02*
X168552380Y-80873617D01*
X168552380Y-80873617D02*
X168590476Y-80721236D01*
X168590476Y-80721236D02*
X168628571Y-80645045D01*
X168628571Y-80645045D02*
X168666666Y-80606950D01*
X168666666Y-80606950D02*
X168742857Y-80568855D01*
X164885714Y-83082664D02*
X164847618Y-83120760D01*
X164847618Y-83120760D02*
X164733333Y-83158855D01*
X164733333Y-83158855D02*
X164657142Y-83158855D01*
X164657142Y-83158855D02*
X164542856Y-83120760D01*
X164542856Y-83120760D02*
X164466666Y-83044569D01*
X164466666Y-83044569D02*
X164428571Y-82968379D01*
X164428571Y-82968379D02*
X164390475Y-82815998D01*
X164390475Y-82815998D02*
X164390475Y-82701712D01*
X164390475Y-82701712D02*
X164428571Y-82549331D01*
X164428571Y-82549331D02*
X164466666Y-82473140D01*
X164466666Y-82473140D02*
X164542856Y-82396950D01*
X164542856Y-82396950D02*
X164657142Y-82358855D01*
X164657142Y-82358855D02*
X164733333Y-82358855D01*
X164733333Y-82358855D02*
X164847618Y-82396950D01*
X164847618Y-82396950D02*
X164885714Y-82435045D01*
X165647618Y-83158855D02*
X165190475Y-83158855D01*
X165419047Y-83158855D02*
X165419047Y-82358855D01*
X165419047Y-82358855D02*
X165342856Y-82473140D01*
X165342856Y-82473140D02*
X165266666Y-82549331D01*
X165266666Y-82549331D02*
X165190475Y-82587426D01*
X166028571Y-83158855D02*
X166180952Y-83158855D01*
X166180952Y-83158855D02*
X166257142Y-83120760D01*
X166257142Y-83120760D02*
X166295238Y-83082664D01*
X166295238Y-83082664D02*
X166371428Y-82968379D01*
X166371428Y-82968379D02*
X166409523Y-82815998D01*
X166409523Y-82815998D02*
X166409523Y-82511236D01*
X166409523Y-82511236D02*
X166371428Y-82435045D01*
X166371428Y-82435045D02*
X166333333Y-82396950D01*
X166333333Y-82396950D02*
X166257142Y-82358855D01*
X166257142Y-82358855D02*
X166104761Y-82358855D01*
X166104761Y-82358855D02*
X166028571Y-82396950D01*
X166028571Y-82396950D02*
X165990476Y-82435045D01*
X165990476Y-82435045D02*
X165952380Y-82511236D01*
X165952380Y-82511236D02*
X165952380Y-82701712D01*
X165952380Y-82701712D02*
X165990476Y-82777902D01*
X165990476Y-82777902D02*
X166028571Y-82815998D01*
X166028571Y-82815998D02*
X166104761Y-82854093D01*
X166104761Y-82854093D02*
X166257142Y-82854093D01*
X166257142Y-82854093D02*
X166333333Y-82815998D01*
X166333333Y-82815998D02*
X166371428Y-82777902D01*
X166371428Y-82777902D02*
X166409523Y-82701712D01*
X102933333Y-79038855D02*
X102933333Y-79610283D01*
X102933333Y-79610283D02*
X102895238Y-79724569D01*
X102895238Y-79724569D02*
X102819047Y-79800760D01*
X102819047Y-79800760D02*
X102704762Y-79838855D01*
X102704762Y-79838855D02*
X102628571Y-79838855D01*
X103276190Y-79115045D02*
X103314286Y-79076950D01*
X103314286Y-79076950D02*
X103390476Y-79038855D01*
X103390476Y-79038855D02*
X103580952Y-79038855D01*
X103580952Y-79038855D02*
X103657143Y-79076950D01*
X103657143Y-79076950D02*
X103695238Y-79115045D01*
X103695238Y-79115045D02*
X103733333Y-79191236D01*
X103733333Y-79191236D02*
X103733333Y-79267426D01*
X103733333Y-79267426D02*
X103695238Y-79381712D01*
X103695238Y-79381712D02*
X103238095Y-79838855D01*
X103238095Y-79838855D02*
X103733333Y-79838855D01*
X125466667Y-106482664D02*
X125428571Y-106520760D01*
X125428571Y-106520760D02*
X125314286Y-106558855D01*
X125314286Y-106558855D02*
X125238095Y-106558855D01*
X125238095Y-106558855D02*
X125123809Y-106520760D01*
X125123809Y-106520760D02*
X125047619Y-106444569D01*
X125047619Y-106444569D02*
X125009524Y-106368379D01*
X125009524Y-106368379D02*
X124971428Y-106215998D01*
X124971428Y-106215998D02*
X124971428Y-106101712D01*
X124971428Y-106101712D02*
X125009524Y-105949331D01*
X125009524Y-105949331D02*
X125047619Y-105873140D01*
X125047619Y-105873140D02*
X125123809Y-105796950D01*
X125123809Y-105796950D02*
X125238095Y-105758855D01*
X125238095Y-105758855D02*
X125314286Y-105758855D01*
X125314286Y-105758855D02*
X125428571Y-105796950D01*
X125428571Y-105796950D02*
X125466667Y-105835045D01*
X125847619Y-106558855D02*
X126000000Y-106558855D01*
X126000000Y-106558855D02*
X126076190Y-106520760D01*
X126076190Y-106520760D02*
X126114286Y-106482664D01*
X126114286Y-106482664D02*
X126190476Y-106368379D01*
X126190476Y-106368379D02*
X126228571Y-106215998D01*
X126228571Y-106215998D02*
X126228571Y-105911236D01*
X126228571Y-105911236D02*
X126190476Y-105835045D01*
X126190476Y-105835045D02*
X126152381Y-105796950D01*
X126152381Y-105796950D02*
X126076190Y-105758855D01*
X126076190Y-105758855D02*
X125923809Y-105758855D01*
X125923809Y-105758855D02*
X125847619Y-105796950D01*
X125847619Y-105796950D02*
X125809524Y-105835045D01*
X125809524Y-105835045D02*
X125771428Y-105911236D01*
X125771428Y-105911236D02*
X125771428Y-106101712D01*
X125771428Y-106101712D02*
X125809524Y-106177902D01*
X125809524Y-106177902D02*
X125847619Y-106215998D01*
X125847619Y-106215998D02*
X125923809Y-106254093D01*
X125923809Y-106254093D02*
X126076190Y-106254093D01*
X126076190Y-106254093D02*
X126152381Y-106215998D01*
X126152381Y-106215998D02*
X126190476Y-106177902D01*
X126190476Y-106177902D02*
X126228571Y-106101712D01*
X121866667Y-110108855D02*
X121600000Y-109727902D01*
X121409524Y-110108855D02*
X121409524Y-109308855D01*
X121409524Y-109308855D02*
X121714286Y-109308855D01*
X121714286Y-109308855D02*
X121790476Y-109346950D01*
X121790476Y-109346950D02*
X121828571Y-109385045D01*
X121828571Y-109385045D02*
X121866667Y-109461236D01*
X121866667Y-109461236D02*
X121866667Y-109575521D01*
X121866667Y-109575521D02*
X121828571Y-109651712D01*
X121828571Y-109651712D02*
X121790476Y-109689807D01*
X121790476Y-109689807D02*
X121714286Y-109727902D01*
X121714286Y-109727902D02*
X121409524Y-109727902D01*
X122133333Y-109308855D02*
X122666667Y-109308855D01*
X122666667Y-109308855D02*
X122323809Y-110108855D01*
X121866667Y-114718854D02*
X121600000Y-114337901D01*
X121409524Y-114718854D02*
X121409524Y-113918854D01*
X121409524Y-113918854D02*
X121714286Y-113918854D01*
X121714286Y-113918854D02*
X121790476Y-113956949D01*
X121790476Y-113956949D02*
X121828571Y-113995044D01*
X121828571Y-113995044D02*
X121866667Y-114071235D01*
X121866667Y-114071235D02*
X121866667Y-114185520D01*
X121866667Y-114185520D02*
X121828571Y-114261711D01*
X121828571Y-114261711D02*
X121790476Y-114299806D01*
X121790476Y-114299806D02*
X121714286Y-114337901D01*
X121714286Y-114337901D02*
X121409524Y-114337901D01*
X122323809Y-114261711D02*
X122247619Y-114223616D01*
X122247619Y-114223616D02*
X122209524Y-114185520D01*
X122209524Y-114185520D02*
X122171428Y-114109330D01*
X122171428Y-114109330D02*
X122171428Y-114071235D01*
X122171428Y-114071235D02*
X122209524Y-113995044D01*
X122209524Y-113995044D02*
X122247619Y-113956949D01*
X122247619Y-113956949D02*
X122323809Y-113918854D01*
X122323809Y-113918854D02*
X122476190Y-113918854D01*
X122476190Y-113918854D02*
X122552381Y-113956949D01*
X122552381Y-113956949D02*
X122590476Y-113995044D01*
X122590476Y-113995044D02*
X122628571Y-114071235D01*
X122628571Y-114071235D02*
X122628571Y-114109330D01*
X122628571Y-114109330D02*
X122590476Y-114185520D01*
X122590476Y-114185520D02*
X122552381Y-114223616D01*
X122552381Y-114223616D02*
X122476190Y-114261711D01*
X122476190Y-114261711D02*
X122323809Y-114261711D01*
X122323809Y-114261711D02*
X122247619Y-114299806D01*
X122247619Y-114299806D02*
X122209524Y-114337901D01*
X122209524Y-114337901D02*
X122171428Y-114414092D01*
X122171428Y-114414092D02*
X122171428Y-114566473D01*
X122171428Y-114566473D02*
X122209524Y-114642663D01*
X122209524Y-114642663D02*
X122247619Y-114680759D01*
X122247619Y-114680759D02*
X122323809Y-114718854D01*
X122323809Y-114718854D02*
X122476190Y-114718854D01*
X122476190Y-114718854D02*
X122552381Y-114680759D01*
X122552381Y-114680759D02*
X122590476Y-114642663D01*
X122590476Y-114642663D02*
X122628571Y-114566473D01*
X122628571Y-114566473D02*
X122628571Y-114414092D01*
X122628571Y-114414092D02*
X122590476Y-114337901D01*
X122590476Y-114337901D02*
X122552381Y-114299806D01*
X122552381Y-114299806D02*
X122476190Y-114261711D01*
X134819048Y-90157902D02*
X134819048Y-90538855D01*
X134552381Y-89738855D02*
X134819048Y-90157902D01*
X134819048Y-90157902D02*
X135085714Y-89738855D01*
X135771428Y-90538855D02*
X135314285Y-90538855D01*
X135542857Y-90538855D02*
X135542857Y-89738855D01*
X135542857Y-89738855D02*
X135466666Y-89853140D01*
X135466666Y-89853140D02*
X135390476Y-89929331D01*
X135390476Y-89929331D02*
X135314285Y-89967426D01*
X124385714Y-95982664D02*
X124347618Y-96020760D01*
X124347618Y-96020760D02*
X124233333Y-96058855D01*
X124233333Y-96058855D02*
X124157142Y-96058855D01*
X124157142Y-96058855D02*
X124042856Y-96020760D01*
X124042856Y-96020760D02*
X123966666Y-95944569D01*
X123966666Y-95944569D02*
X123928571Y-95868379D01*
X123928571Y-95868379D02*
X123890475Y-95715998D01*
X123890475Y-95715998D02*
X123890475Y-95601712D01*
X123890475Y-95601712D02*
X123928571Y-95449331D01*
X123928571Y-95449331D02*
X123966666Y-95373140D01*
X123966666Y-95373140D02*
X124042856Y-95296950D01*
X124042856Y-95296950D02*
X124157142Y-95258855D01*
X124157142Y-95258855D02*
X124233333Y-95258855D01*
X124233333Y-95258855D02*
X124347618Y-95296950D01*
X124347618Y-95296950D02*
X124385714Y-95335045D01*
X125147618Y-96058855D02*
X124690475Y-96058855D01*
X124919047Y-96058855D02*
X124919047Y-95258855D01*
X124919047Y-95258855D02*
X124842856Y-95373140D01*
X124842856Y-95373140D02*
X124766666Y-95449331D01*
X124766666Y-95449331D02*
X124690475Y-95487426D01*
X125642857Y-95258855D02*
X125719047Y-95258855D01*
X125719047Y-95258855D02*
X125795238Y-95296950D01*
X125795238Y-95296950D02*
X125833333Y-95335045D01*
X125833333Y-95335045D02*
X125871428Y-95411236D01*
X125871428Y-95411236D02*
X125909523Y-95563617D01*
X125909523Y-95563617D02*
X125909523Y-95754093D01*
X125909523Y-95754093D02*
X125871428Y-95906474D01*
X125871428Y-95906474D02*
X125833333Y-95982664D01*
X125833333Y-95982664D02*
X125795238Y-96020760D01*
X125795238Y-96020760D02*
X125719047Y-96058855D01*
X125719047Y-96058855D02*
X125642857Y-96058855D01*
X125642857Y-96058855D02*
X125566666Y-96020760D01*
X125566666Y-96020760D02*
X125528571Y-95982664D01*
X125528571Y-95982664D02*
X125490476Y-95906474D01*
X125490476Y-95906474D02*
X125452380Y-95754093D01*
X125452380Y-95754093D02*
X125452380Y-95563617D01*
X125452380Y-95563617D02*
X125490476Y-95411236D01*
X125490476Y-95411236D02*
X125528571Y-95335045D01*
X125528571Y-95335045D02*
X125566666Y-95296950D01*
X125566666Y-95296950D02*
X125642857Y-95258855D01*
X110685713Y-122082664D02*
X110647617Y-122120760D01*
X110647617Y-122120760D02*
X110533332Y-122158855D01*
X110533332Y-122158855D02*
X110457141Y-122158855D01*
X110457141Y-122158855D02*
X110342855Y-122120760D01*
X110342855Y-122120760D02*
X110266665Y-122044569D01*
X110266665Y-122044569D02*
X110228570Y-121968379D01*
X110228570Y-121968379D02*
X110190474Y-121815998D01*
X110190474Y-121815998D02*
X110190474Y-121701712D01*
X110190474Y-121701712D02*
X110228570Y-121549331D01*
X110228570Y-121549331D02*
X110266665Y-121473140D01*
X110266665Y-121473140D02*
X110342855Y-121396950D01*
X110342855Y-121396950D02*
X110457141Y-121358855D01*
X110457141Y-121358855D02*
X110533332Y-121358855D01*
X110533332Y-121358855D02*
X110647617Y-121396950D01*
X110647617Y-121396950D02*
X110685713Y-121435045D01*
X111447617Y-122158855D02*
X110990474Y-122158855D01*
X111219046Y-122158855D02*
X111219046Y-121358855D01*
X111219046Y-121358855D02*
X111142855Y-121473140D01*
X111142855Y-121473140D02*
X111066665Y-121549331D01*
X111066665Y-121549331D02*
X110990474Y-121587426D01*
X111714284Y-121358855D02*
X112247618Y-121358855D01*
X112247618Y-121358855D02*
X111904760Y-122158855D01*
X138485714Y-90232664D02*
X138447618Y-90270760D01*
X138447618Y-90270760D02*
X138333333Y-90308855D01*
X138333333Y-90308855D02*
X138257142Y-90308855D01*
X138257142Y-90308855D02*
X138142856Y-90270760D01*
X138142856Y-90270760D02*
X138066666Y-90194569D01*
X138066666Y-90194569D02*
X138028571Y-90118379D01*
X138028571Y-90118379D02*
X137990475Y-89965998D01*
X137990475Y-89965998D02*
X137990475Y-89851712D01*
X137990475Y-89851712D02*
X138028571Y-89699331D01*
X138028571Y-89699331D02*
X138066666Y-89623140D01*
X138066666Y-89623140D02*
X138142856Y-89546950D01*
X138142856Y-89546950D02*
X138257142Y-89508855D01*
X138257142Y-89508855D02*
X138333333Y-89508855D01*
X138333333Y-89508855D02*
X138447618Y-89546950D01*
X138447618Y-89546950D02*
X138485714Y-89585045D01*
X139247618Y-90308855D02*
X138790475Y-90308855D01*
X139019047Y-90308855D02*
X139019047Y-89508855D01*
X139019047Y-89508855D02*
X138942856Y-89623140D01*
X138942856Y-89623140D02*
X138866666Y-89699331D01*
X138866666Y-89699331D02*
X138790475Y-89737426D01*
X139933333Y-89508855D02*
X139780952Y-89508855D01*
X139780952Y-89508855D02*
X139704761Y-89546950D01*
X139704761Y-89546950D02*
X139666666Y-89585045D01*
X139666666Y-89585045D02*
X139590476Y-89699331D01*
X139590476Y-89699331D02*
X139552380Y-89851712D01*
X139552380Y-89851712D02*
X139552380Y-90156474D01*
X139552380Y-90156474D02*
X139590476Y-90232664D01*
X139590476Y-90232664D02*
X139628571Y-90270760D01*
X139628571Y-90270760D02*
X139704761Y-90308855D01*
X139704761Y-90308855D02*
X139857142Y-90308855D01*
X139857142Y-90308855D02*
X139933333Y-90270760D01*
X139933333Y-90270760D02*
X139971428Y-90232664D01*
X139971428Y-90232664D02*
X140009523Y-90156474D01*
X140009523Y-90156474D02*
X140009523Y-89965998D01*
X140009523Y-89965998D02*
X139971428Y-89889807D01*
X139971428Y-89889807D02*
X139933333Y-89851712D01*
X139933333Y-89851712D02*
X139857142Y-89813617D01*
X139857142Y-89813617D02*
X139704761Y-89813617D01*
X139704761Y-89813617D02*
X139628571Y-89851712D01*
X139628571Y-89851712D02*
X139590476Y-89889807D01*
X139590476Y-89889807D02*
X139552380Y-89965998D01*
X130066665Y-97292664D02*
X130028569Y-97330760D01*
X130028569Y-97330760D02*
X129914284Y-97368855D01*
X129914284Y-97368855D02*
X129838093Y-97368855D01*
X129838093Y-97368855D02*
X129723807Y-97330760D01*
X129723807Y-97330760D02*
X129647617Y-97254569D01*
X129647617Y-97254569D02*
X129609522Y-97178379D01*
X129609522Y-97178379D02*
X129571426Y-97025998D01*
X129571426Y-97025998D02*
X129571426Y-96911712D01*
X129571426Y-96911712D02*
X129609522Y-96759331D01*
X129609522Y-96759331D02*
X129647617Y-96683140D01*
X129647617Y-96683140D02*
X129723807Y-96606950D01*
X129723807Y-96606950D02*
X129838093Y-96568855D01*
X129838093Y-96568855D02*
X129914284Y-96568855D01*
X129914284Y-96568855D02*
X130028569Y-96606950D01*
X130028569Y-96606950D02*
X130066665Y-96645045D01*
X130752379Y-96835521D02*
X130752379Y-97368855D01*
X130561903Y-96530760D02*
X130371426Y-97102188D01*
X130371426Y-97102188D02*
X130866665Y-97102188D01*
X125466667Y-99632664D02*
X125428571Y-99670760D01*
X125428571Y-99670760D02*
X125314286Y-99708855D01*
X125314286Y-99708855D02*
X125238095Y-99708855D01*
X125238095Y-99708855D02*
X125123809Y-99670760D01*
X125123809Y-99670760D02*
X125047619Y-99594569D01*
X125047619Y-99594569D02*
X125009524Y-99518379D01*
X125009524Y-99518379D02*
X124971428Y-99365998D01*
X124971428Y-99365998D02*
X124971428Y-99251712D01*
X124971428Y-99251712D02*
X125009524Y-99099331D01*
X125009524Y-99099331D02*
X125047619Y-99023140D01*
X125047619Y-99023140D02*
X125123809Y-98946950D01*
X125123809Y-98946950D02*
X125238095Y-98908855D01*
X125238095Y-98908855D02*
X125314286Y-98908855D01*
X125314286Y-98908855D02*
X125428571Y-98946950D01*
X125428571Y-98946950D02*
X125466667Y-98985045D01*
X126190476Y-98908855D02*
X125809524Y-98908855D01*
X125809524Y-98908855D02*
X125771428Y-99289807D01*
X125771428Y-99289807D02*
X125809524Y-99251712D01*
X125809524Y-99251712D02*
X125885714Y-99213617D01*
X125885714Y-99213617D02*
X126076190Y-99213617D01*
X126076190Y-99213617D02*
X126152381Y-99251712D01*
X126152381Y-99251712D02*
X126190476Y-99289807D01*
X126190476Y-99289807D02*
X126228571Y-99365998D01*
X126228571Y-99365998D02*
X126228571Y-99556474D01*
X126228571Y-99556474D02*
X126190476Y-99632664D01*
X126190476Y-99632664D02*
X126152381Y-99670760D01*
X126152381Y-99670760D02*
X126076190Y-99708855D01*
X126076190Y-99708855D02*
X125885714Y-99708855D01*
X125885714Y-99708855D02*
X125809524Y-99670760D01*
X125809524Y-99670760D02*
X125771428Y-99632664D01*
X128285714Y-110892663D02*
X128247618Y-110930759D01*
X128247618Y-110930759D02*
X128133333Y-110968854D01*
X128133333Y-110968854D02*
X128057142Y-110968854D01*
X128057142Y-110968854D02*
X127942856Y-110930759D01*
X127942856Y-110930759D02*
X127866666Y-110854568D01*
X127866666Y-110854568D02*
X127828571Y-110778378D01*
X127828571Y-110778378D02*
X127790475Y-110625997D01*
X127790475Y-110625997D02*
X127790475Y-110511711D01*
X127790475Y-110511711D02*
X127828571Y-110359330D01*
X127828571Y-110359330D02*
X127866666Y-110283139D01*
X127866666Y-110283139D02*
X127942856Y-110206949D01*
X127942856Y-110206949D02*
X128057142Y-110168854D01*
X128057142Y-110168854D02*
X128133333Y-110168854D01*
X128133333Y-110168854D02*
X128247618Y-110206949D01*
X128247618Y-110206949D02*
X128285714Y-110245044D01*
X129047618Y-110968854D02*
X128590475Y-110968854D01*
X128819047Y-110968854D02*
X128819047Y-110168854D01*
X128819047Y-110168854D02*
X128742856Y-110283139D01*
X128742856Y-110283139D02*
X128666666Y-110359330D01*
X128666666Y-110359330D02*
X128590475Y-110397425D01*
X129809523Y-110968854D02*
X129352380Y-110968854D01*
X129580952Y-110968854D02*
X129580952Y-110168854D01*
X129580952Y-110168854D02*
X129504761Y-110283139D01*
X129504761Y-110283139D02*
X129428571Y-110359330D01*
X129428571Y-110359330D02*
X129352380Y-110397425D01*
X158390476Y-104513854D02*
X158390476Y-105161473D01*
X158390476Y-105161473D02*
X158428571Y-105237663D01*
X158428571Y-105237663D02*
X158466666Y-105275759D01*
X158466666Y-105275759D02*
X158542857Y-105313854D01*
X158542857Y-105313854D02*
X158695238Y-105313854D01*
X158695238Y-105313854D02*
X158771428Y-105275759D01*
X158771428Y-105275759D02*
X158809523Y-105237663D01*
X158809523Y-105237663D02*
X158847619Y-105161473D01*
X158847619Y-105161473D02*
X158847619Y-104513854D01*
X159571428Y-104780520D02*
X159571428Y-105313854D01*
X159380952Y-104475759D02*
X159190475Y-105047187D01*
X159190475Y-105047187D02*
X159685714Y-105047187D01*
X112162742Y-109477500D02*
X112637258Y-109477500D01*
X112162742Y-110522500D02*
X112637258Y-110522500D01*
X170090000Y-120079999D02*
X177710000Y-120079999D01*
X177710000Y-120079999D02*
X177710000Y-109919999D01*
X170090000Y-109919999D02*
X170090000Y-120079999D01*
X176440000Y-109919999D02*
X176440000Y-120079999D01*
X177710000Y-109919999D02*
X170090000Y-109919999D01*
X164890000Y-80540580D02*
X164890000Y-80259420D01*
X165910000Y-80540580D02*
X165910000Y-80259420D01*
X102315000Y-102040000D02*
X102315000Y-103960000D01*
X102315000Y-103960000D02*
X105000000Y-103960000D01*
X105000000Y-102040000D02*
X102315000Y-102040000D01*
X151975000Y-86685000D02*
X151975000Y-83075000D01*
X151975000Y-81375000D02*
X151975000Y-76675000D01*
X151975000Y-75375000D02*
X151975000Y-73575000D01*
X151525000Y-86685000D02*
X151975000Y-86685000D01*
X150945000Y-70415000D02*
X151145000Y-70615000D01*
X150945000Y-70415000D02*
X149085000Y-70415000D01*
X149085000Y-70415000D02*
X148875000Y-70615000D01*
X148875000Y-70765000D02*
X148875000Y-70615000D01*
X148875000Y-70765000D02*
X142505000Y-70765000D01*
X141995000Y-70415000D02*
X142505000Y-70765000D01*
X139925000Y-86685000D02*
X138005000Y-86685000D01*
X139685000Y-70415000D02*
X141995000Y-70415000D01*
X139685000Y-70415000D02*
X139485000Y-70615000D01*
X139485000Y-70615000D02*
X139225000Y-70615000D01*
X138005000Y-86685000D02*
X138005000Y-72675000D01*
X134362742Y-118277500D02*
X134837258Y-118277500D01*
X134362742Y-119322500D02*
X134837258Y-119322500D01*
X115000000Y-122440000D02*
X114200000Y-122440000D01*
X115000000Y-122440000D02*
X115800000Y-122440000D01*
X115000000Y-125560000D02*
X114200000Y-125560000D01*
X115000000Y-125560000D02*
X115800000Y-125560000D01*
X113700000Y-122490000D02*
X113460000Y-122160000D01*
X113940000Y-122160000D01*
X113700000Y-122490000D01*
G36*
X113700000Y-122490000D02*
G01*
X113460000Y-122160000D01*
X113940000Y-122160000D01*
X113700000Y-122490000D01*
G37*
X164890000Y-89740580D02*
X164890000Y-89459420D01*
X165910000Y-89740580D02*
X165910000Y-89459420D01*
X144277500Y-90237258D02*
X144277500Y-89762742D01*
X145322500Y-90237258D02*
X145322500Y-89762742D01*
X142677500Y-90237258D02*
X142677500Y-89762742D01*
X143722500Y-90237258D02*
X143722500Y-89762742D01*
X137859420Y-100090000D02*
X138140580Y-100090000D01*
X137859420Y-101110000D02*
X138140580Y-101110000D01*
X117077500Y-84237258D02*
X117077500Y-83762742D01*
X118122500Y-84237258D02*
X118122500Y-83762742D01*
X168237258Y-118062499D02*
X167762742Y-118062499D01*
X168237258Y-117017499D02*
X167762742Y-117017499D01*
X164890000Y-110540580D02*
X164890000Y-110259420D01*
X165910000Y-110540580D02*
X165910000Y-110259420D01*
X157390000Y-94540580D02*
X157390000Y-94259420D01*
X158410000Y-94540580D02*
X158410000Y-94259420D01*
X126250000Y-124400000D02*
X126250000Y-126400000D01*
X127250000Y-123100000D02*
X127700000Y-122650000D01*
X127250000Y-127700000D02*
X127700000Y-128150000D01*
X127700000Y-122650000D02*
X130300000Y-122650000D01*
X127700000Y-128150000D02*
X130300000Y-128150000D01*
X130750000Y-123100000D02*
X130300000Y-122650000D01*
X130750000Y-127700000D02*
X130300000Y-128150000D01*
X131750000Y-124400000D02*
X131750000Y-126400000D01*
X116477500Y-78837258D02*
X116477500Y-78362742D01*
X117522500Y-78837258D02*
X117522500Y-78362742D01*
X105300000Y-109300000D02*
X103300000Y-109300000D01*
X101400000Y-109300000D02*
X99500000Y-109300000D01*
X99500000Y-109300000D02*
X99500000Y-118700000D01*
X105300000Y-118700000D02*
X103300000Y-118700000D01*
X101400000Y-118700000D02*
X99500000Y-118700000D01*
X138670000Y-128130000D02*
X138670000Y-126800000D01*
X140000000Y-128130000D02*
X138670000Y-128130000D01*
X141270000Y-128130000D02*
X146410000Y-128130000D01*
X141270000Y-128130000D02*
X141270000Y-125470000D01*
X146410000Y-128130000D02*
X146410000Y-125470000D01*
X141270000Y-125470000D02*
X146410000Y-125470000D01*
X107962742Y-102477500D02*
X108437258Y-102477500D01*
X107962742Y-103522500D02*
X108437258Y-103522500D01*
X112162742Y-117477500D02*
X112637258Y-117477500D01*
X112162742Y-118522500D02*
X112637258Y-118522500D01*
X162890000Y-87140580D02*
X162890000Y-86859420D01*
X163910000Y-87140580D02*
X163910000Y-86859420D01*
X160000000Y-85440000D02*
X159200000Y-85440000D01*
X160000000Y-85440000D02*
X160800000Y-85440000D01*
X160000000Y-88560000D02*
X159200000Y-88560000D01*
X160000000Y-88560000D02*
X160800000Y-88560000D01*
X158700000Y-85490000D02*
X158460000Y-85160000D01*
X158940000Y-85160000D01*
X158700000Y-85490000D01*
G36*
X158700000Y-85490000D02*
G01*
X158460000Y-85160000D01*
X158940000Y-85160000D01*
X158700000Y-85490000D01*
G37*
X170090000Y-105079999D02*
X177710000Y-105079999D01*
X177710000Y-105079999D02*
X177710000Y-94919999D01*
X170090000Y-94919999D02*
X170090000Y-105079999D01*
X176440000Y-94919999D02*
X176440000Y-105079999D01*
X177710000Y-94919999D02*
X170090000Y-94919999D01*
X164890000Y-119740580D02*
X164890000Y-119459420D01*
X165910000Y-119740580D02*
X165910000Y-119459420D01*
X108750000Y-83000000D02*
X108750000Y-85000000D01*
X109750000Y-81700000D02*
X110200000Y-81250000D01*
X109750000Y-86300000D02*
X110200000Y-86750000D01*
X110200000Y-81250000D02*
X112800000Y-81250000D01*
X110200000Y-86750000D02*
X112800000Y-86750000D01*
X113250000Y-81700000D02*
X112800000Y-81250000D01*
X113250000Y-86300000D02*
X112800000Y-86750000D01*
X114250000Y-83000000D02*
X114250000Y-85000000D01*
X156090000Y-87140580D02*
X156090000Y-86859420D01*
X157110000Y-87140580D02*
X157110000Y-86859420D01*
X146459420Y-108290000D02*
X146740580Y-108290000D01*
X146459420Y-109310000D02*
X146740580Y-109310000D01*
X128189999Y-94940580D02*
X128189999Y-94659420D01*
X129209999Y-94940580D02*
X129209999Y-94659420D01*
X164890000Y-115140580D02*
X164890000Y-114859420D01*
X165910000Y-115140580D02*
X165910000Y-114859420D01*
X149877500Y-90237258D02*
X149877500Y-89762742D01*
X150922500Y-90237258D02*
X150922500Y-89762742D01*
X127710000Y-108259420D02*
X127710000Y-108540580D01*
X126690000Y-108259420D02*
X126690000Y-108540580D01*
X138775000Y-110275000D02*
X138775000Y-110535000D01*
X138775000Y-115725000D02*
X138775000Y-115465000D01*
X141500000Y-110275000D02*
X138775000Y-110275000D01*
X141500000Y-110275000D02*
X144225000Y-110275000D01*
X141500000Y-115725000D02*
X138775000Y-115725000D01*
X141500000Y-115725000D02*
X144225000Y-115725000D01*
X144225000Y-110275000D02*
X144225000Y-110535000D01*
X144225000Y-115725000D02*
X144225000Y-115465000D01*
X137992500Y-110535000D02*
X137752500Y-110205000D01*
X138232500Y-110205000D01*
X137992500Y-110535000D01*
G36*
X137992500Y-110535000D02*
G01*
X137752500Y-110205000D01*
X138232500Y-110205000D01*
X137992500Y-110535000D01*
G37*
X158990000Y-94540580D02*
X158990000Y-94259420D01*
X160010000Y-94540580D02*
X160010000Y-94259420D01*
X134362742Y-116477500D02*
X134837258Y-116477500D01*
X134362742Y-117522500D02*
X134837258Y-117522500D01*
X113877500Y-78837258D02*
X113877500Y-78362742D01*
X114922500Y-78837258D02*
X114922500Y-78362742D01*
X151865000Y-89861252D02*
X151865000Y-89338748D01*
X153335000Y-89861252D02*
X153335000Y-89338748D01*
X168237258Y-88062499D02*
X167762742Y-88062499D01*
X168237258Y-87017499D02*
X167762742Y-87017499D01*
X135610000Y-104960000D02*
X135610000Y-105370000D01*
X135610000Y-98390000D02*
X135610000Y-99040000D01*
X134960000Y-105610000D02*
X135310000Y-105610000D01*
X134960000Y-98390000D02*
X135610000Y-98390000D01*
X129040000Y-105610000D02*
X128390000Y-105610000D01*
X129040000Y-98390000D02*
X128390000Y-98390000D01*
X128390000Y-105610000D02*
X128390000Y-104960000D01*
X128390000Y-98390000D02*
X128390000Y-99040000D01*
X135850000Y-105940000D02*
X135370000Y-105940000D01*
X135610000Y-105610000D01*
X135850000Y-105940000D01*
G36*
X135850000Y-105940000D02*
G01*
X135370000Y-105940000D01*
X135610000Y-105610000D01*
X135850000Y-105940000D01*
G37*
X132310000Y-113259420D02*
X132310000Y-113540580D01*
X131290000Y-113259420D02*
X131290000Y-113540580D01*
X137759420Y-105490000D02*
X138040580Y-105490000D01*
X137759420Y-106510000D02*
X138040580Y-106510000D01*
X125740580Y-105310000D02*
X125459420Y-105310000D01*
X125740580Y-104290000D02*
X125459420Y-104290000D01*
X148277500Y-90237258D02*
X148277500Y-89762742D01*
X149322500Y-90237258D02*
X149322500Y-89762742D01*
X170090000Y-90079999D02*
X177710000Y-90079999D01*
X177710000Y-90079999D02*
X177710000Y-79919999D01*
X170090000Y-79919999D02*
X170090000Y-90079999D01*
X176440000Y-79919999D02*
X176440000Y-90079999D01*
X177710000Y-79919999D02*
X170090000Y-79919999D01*
X109170000Y-75930000D02*
X109170000Y-74600000D01*
X110500000Y-75930000D02*
X109170000Y-75930000D01*
X111770000Y-75930000D02*
X119450000Y-75930000D01*
X111770000Y-75930000D02*
X111770000Y-73270000D01*
X119450000Y-75930000D02*
X119450000Y-73270000D01*
X111770000Y-73270000D02*
X119450000Y-73270000D01*
X133910000Y-113259420D02*
X133910000Y-113540580D01*
X132890000Y-113259420D02*
X132890000Y-113540580D01*
X118290000Y-124140580D02*
X118290000Y-123859420D01*
X119310000Y-124140580D02*
X119310000Y-123859420D01*
X130709999Y-113259420D02*
X130709999Y-113540580D01*
X129689999Y-113259420D02*
X129689999Y-113540580D01*
X131277500Y-95437258D02*
X131277500Y-94962742D01*
X132322500Y-95437258D02*
X132322500Y-94962742D01*
X134059419Y-95490000D02*
X134340579Y-95490000D01*
X134059419Y-96510000D02*
X134340579Y-96510000D01*
X141077500Y-90237258D02*
X141077500Y-89762742D01*
X142122500Y-90237258D02*
X142122500Y-89762742D01*
X146910000Y-89859420D02*
X146910000Y-90140580D01*
X145890000Y-89859420D02*
X145890000Y-90140580D01*
X168237258Y-112982500D02*
X167762742Y-112982500D01*
X168237258Y-111937500D02*
X167762742Y-111937500D01*
X168237258Y-82982500D02*
X167762742Y-82982500D01*
X168237258Y-81937500D02*
X167762742Y-81937500D01*
X164890000Y-85140580D02*
X164890000Y-84859420D01*
X165910000Y-85140580D02*
X165910000Y-84859420D01*
X101870000Y-80670000D02*
X103200000Y-80670000D01*
X101870000Y-82000000D02*
X101870000Y-80670000D01*
X101870000Y-83270000D02*
X101870000Y-88410000D01*
X101870000Y-83270000D02*
X104530000Y-83270000D01*
X101870000Y-88410000D02*
X104530000Y-88410000D01*
X104530000Y-83270000D02*
X104530000Y-88410000D01*
X126110000Y-108259420D02*
X126110000Y-108540580D01*
X125090000Y-108259420D02*
X125090000Y-108540580D01*
X121762742Y-110677500D02*
X122237258Y-110677500D01*
X121762742Y-111722500D02*
X122237258Y-111722500D01*
X121762742Y-112377500D02*
X122237258Y-112377500D01*
X121762742Y-113422500D02*
X122237258Y-113422500D01*
X133200000Y-90950000D02*
X133200000Y-94250000D01*
X133200000Y-94250000D02*
X137200000Y-94250000D01*
X125161252Y-98135000D02*
X124638748Y-98135000D01*
X125161252Y-96665000D02*
X124638748Y-96665000D01*
X110690000Y-124140580D02*
X110690000Y-123859420D01*
X111710000Y-124140580D02*
X111710000Y-123859420D01*
X139140580Y-91910000D02*
X138859420Y-91910000D01*
X139140580Y-90890000D02*
X138859420Y-90890000D01*
X129689999Y-94940580D02*
X129689999Y-94659420D01*
X130709999Y-94940580D02*
X130709999Y-94659420D01*
X125740580Y-101310000D02*
X125459420Y-101310000D01*
X125740580Y-100290000D02*
X125459420Y-100290000D01*
X129310000Y-108259420D02*
X129310000Y-108540580D01*
X128290000Y-108259420D02*
X128290000Y-108540580D01*
X156265000Y-100000000D02*
X156265000Y-102200000D01*
X156265000Y-100000000D02*
X156265000Y-97800000D01*
X161735000Y-100000000D02*
X161735000Y-102200000D01*
X161735000Y-100000000D02*
X161735000Y-97800000D01*
X156965000Y-104190000D02*
X156485000Y-104190000D01*
X156725000Y-103860000D01*
X156965000Y-104190000D01*
G36*
X156965000Y-104190000D02*
G01*
X156485000Y-104190000D01*
X156725000Y-103860000D01*
X156965000Y-104190000D01*
G37*
%LPC*%
D14*
X111575000Y-110000000D03*
X113225000Y-110000000D03*
D15*
X173900000Y-117539999D03*
D16*
X173900000Y-112459999D03*
D17*
X165400000Y-81175000D03*
X165400000Y-79625000D03*
D18*
X103062500Y-103000000D03*
X104937500Y-103000000D03*
D19*
X142225000Y-86525000D03*
X143325000Y-86525000D03*
X144425000Y-86525000D03*
X145525000Y-86525000D03*
X146625000Y-86525000D03*
X147725000Y-86525000D03*
X148825000Y-86525000D03*
X149925000Y-86525000D03*
X150875000Y-86525000D03*
D20*
X151825000Y-76025000D03*
D21*
X151825000Y-82225000D03*
D22*
X151825000Y-71875000D03*
D21*
X140675000Y-86525000D03*
D23*
X138325000Y-71425000D03*
D14*
X133775000Y-118800000D03*
X135425000Y-118800000D03*
D24*
X113862500Y-123050000D03*
X113862500Y-124000000D03*
X113862500Y-124950000D03*
X116137500Y-124950000D03*
X116137500Y-123050000D03*
D17*
X165400000Y-90375000D03*
X165400000Y-88825000D03*
D25*
X144800000Y-90825000D03*
X144800000Y-89175000D03*
X143200000Y-90825000D03*
X143200000Y-89175000D03*
D26*
X137225000Y-100600000D03*
X138775000Y-100600000D03*
D25*
X117600000Y-84825000D03*
X117600000Y-83175000D03*
D27*
X168825000Y-117539999D03*
X167175000Y-117539999D03*
D28*
X104000000Y-126000000D03*
D17*
X165400000Y-111175000D03*
X165400000Y-109625000D03*
X157900000Y-95175000D03*
X157900000Y-93625000D03*
D29*
X126000000Y-123525000D03*
X132000000Y-123525000D03*
X126000000Y-127275000D03*
X132000000Y-127275000D03*
D25*
X117000000Y-79425000D03*
X117000000Y-77775000D03*
D30*
X106000000Y-111110000D03*
X106000000Y-116890000D03*
D31*
X107445000Y-110750000D03*
X107445000Y-111550000D03*
D32*
X107445000Y-112750000D03*
X107445000Y-113750000D03*
X107445000Y-114250000D03*
X107445000Y-115250000D03*
D31*
X107445000Y-116450000D03*
X107445000Y-117250000D03*
X107445000Y-117250000D03*
X107445000Y-116450000D03*
D32*
X107445000Y-115750000D03*
X107445000Y-114750000D03*
X107445000Y-113250000D03*
X107445000Y-112250000D03*
D31*
X107445000Y-111550000D03*
X107445000Y-110750000D03*
D33*
X106530000Y-109680000D03*
D34*
X102350000Y-109680000D03*
D33*
X106530000Y-118320000D03*
D34*
X102350000Y-118320000D03*
D35*
X140000000Y-126800000D03*
D36*
X142540000Y-126800000D03*
X145080000Y-126800000D03*
D14*
X107375000Y-103000000D03*
X109025000Y-103000000D03*
X111575000Y-118000000D03*
X113225000Y-118000000D03*
D17*
X163400000Y-87775000D03*
X163400000Y-86225000D03*
D24*
X158862500Y-86050000D03*
X158862500Y-87000000D03*
X158862500Y-87950000D03*
X161137500Y-87950000D03*
X161137500Y-86050000D03*
D15*
X173900000Y-102539999D03*
D16*
X173900000Y-97459999D03*
D17*
X165400000Y-120375000D03*
X165400000Y-118825000D03*
D29*
X108500000Y-82125000D03*
X114500000Y-82125000D03*
X108500000Y-85875000D03*
X114500000Y-85875000D03*
D17*
X156600000Y-87775000D03*
X156600000Y-86225000D03*
D26*
X145825000Y-108800000D03*
X147375000Y-108800000D03*
D17*
X128699999Y-95575000D03*
X128699999Y-94025000D03*
X165400000Y-115775000D03*
X165400000Y-114225000D03*
D25*
X150400000Y-90825000D03*
X150400000Y-89175000D03*
D37*
X127200000Y-107625000D03*
X127200000Y-109175000D03*
D38*
X137900000Y-111095000D03*
X137900000Y-112365000D03*
X137900000Y-113635000D03*
X137900000Y-114905000D03*
X145100000Y-114905000D03*
X145100000Y-113635000D03*
X145100000Y-112365000D03*
X145100000Y-111095000D03*
D17*
X159500000Y-95175000D03*
X159500000Y-93625000D03*
D14*
X133775000Y-117000000D03*
X135425000Y-117000000D03*
D25*
X114400000Y-79425000D03*
X114400000Y-77775000D03*
D39*
X152600000Y-90550000D03*
X152600000Y-88650000D03*
D27*
X168825000Y-87539999D03*
X167175000Y-87539999D03*
D40*
X135437500Y-104600000D03*
X135437500Y-104200000D03*
X135437500Y-103800000D03*
X135437500Y-103400000D03*
X135437500Y-103000000D03*
X135437500Y-102600000D03*
X135437500Y-102200000D03*
X135437500Y-101800000D03*
X135437500Y-101400000D03*
X135437500Y-101000000D03*
X135437500Y-100600000D03*
X135437500Y-100200000D03*
X135437500Y-99800000D03*
X135437500Y-99400000D03*
D41*
X134600000Y-98562500D03*
X134200000Y-98562500D03*
X133800000Y-98562500D03*
X133400000Y-98562500D03*
X133000000Y-98562500D03*
X132600000Y-98562500D03*
X132200000Y-98562500D03*
X131800000Y-98562500D03*
X131400000Y-98562500D03*
X131000000Y-98562500D03*
X130600000Y-98562500D03*
X130200000Y-98562500D03*
X129800000Y-98562500D03*
X129400000Y-98562500D03*
D40*
X128562500Y-99400000D03*
X128562500Y-99800000D03*
X128562500Y-100200000D03*
X128562500Y-100600000D03*
X128562500Y-101000000D03*
X128562500Y-101400000D03*
X128562500Y-101800000D03*
X128562500Y-102200000D03*
X128562500Y-102600000D03*
X128562500Y-103000000D03*
X128562500Y-103400000D03*
X128562500Y-103800000D03*
X128562500Y-104200000D03*
X128562500Y-104600000D03*
D41*
X129400000Y-105437500D03*
X129800000Y-105437500D03*
X130200000Y-105437500D03*
X130600000Y-105437500D03*
X131000000Y-105437500D03*
X131400000Y-105437500D03*
X131800000Y-105437500D03*
X132200000Y-105437500D03*
X132600000Y-105437500D03*
X133000000Y-105437500D03*
X133400000Y-105437500D03*
X133800000Y-105437500D03*
X134200000Y-105437500D03*
X134600000Y-105437500D03*
D42*
X132000000Y-102000000D03*
D37*
X131800000Y-112625000D03*
X131800000Y-114175000D03*
D28*
X176000000Y-126000000D03*
D26*
X137125000Y-106000000D03*
X138675000Y-106000000D03*
D43*
X126375000Y-104800000D03*
X124825000Y-104800000D03*
D28*
X176000000Y-74000000D03*
D25*
X148800000Y-90825000D03*
X148800000Y-89175000D03*
D15*
X173900000Y-87539999D03*
D16*
X173900000Y-82459999D03*
D35*
X110500000Y-74600000D03*
D36*
X113040000Y-74600000D03*
X115580000Y-74600000D03*
X118120000Y-74600000D03*
D37*
X133400000Y-112625000D03*
X133400000Y-114175000D03*
D17*
X118800000Y-124775000D03*
X118800000Y-123225000D03*
D37*
X130199999Y-112625000D03*
X130199999Y-114175000D03*
D25*
X131800000Y-96025000D03*
X131800000Y-94375000D03*
D26*
X133424999Y-96000000D03*
X134974999Y-96000000D03*
D25*
X141600000Y-90825000D03*
X141600000Y-89175000D03*
D37*
X146400000Y-89225000D03*
X146400000Y-90775000D03*
D27*
X168825000Y-112460000D03*
X167175000Y-112460000D03*
X168825000Y-82460000D03*
X167175000Y-82460000D03*
D17*
X165400000Y-85775000D03*
X165400000Y-84225000D03*
D35*
X103200000Y-82000000D03*
D36*
X103200000Y-84540000D03*
X103200000Y-87080000D03*
D37*
X125600000Y-107625000D03*
X125600000Y-109175000D03*
D14*
X121175000Y-111200000D03*
X122825000Y-111200000D03*
D28*
X104000000Y-74000000D03*
D14*
X121175000Y-112900000D03*
X122825000Y-112900000D03*
D44*
X134100000Y-93450000D03*
X136300000Y-93450000D03*
X136300000Y-91750000D03*
X134100000Y-91750000D03*
D45*
X125850000Y-97400000D03*
X123950000Y-97400000D03*
D17*
X111200000Y-124775000D03*
X111200000Y-123225000D03*
D43*
X139775000Y-91400000D03*
X138225000Y-91400000D03*
D17*
X130199999Y-95575000D03*
X130199999Y-94025000D03*
D43*
X126375000Y-100800000D03*
X124825000Y-100800000D03*
D37*
X128800000Y-107625000D03*
X128800000Y-109175000D03*
D46*
X156725000Y-102862500D03*
X157375000Y-102862500D03*
X158025000Y-102862500D03*
X158675000Y-102862500D03*
X159325000Y-102862500D03*
X159975000Y-102862500D03*
X160625000Y-102862500D03*
X161275000Y-102862500D03*
X161275000Y-97137500D03*
X160625000Y-97137500D03*
X159975000Y-97137500D03*
X159325000Y-97137500D03*
X158675000Y-97137500D03*
X158025000Y-97137500D03*
X157375000Y-97137500D03*
X156725000Y-97137500D03*
%LPD*%
M02*
